<svg width="41" height="40" viewBox="0 0 41 40" fill="none" xmlns="http://www.w3.org/2000/svg">
    <path fill-rule="evenodd" clip-rule="evenodd"
        d="M16.7969 0C10.2861 0 5 5.54512 5 12.375C5 15.5002 6.77382 19.2161 8.96697 22.5214C12.1189 27.2733 16.059 31.1917 16.059 31.1917C16.473 31.6023 17.1208 31.6023 17.5347 31.1917C17.5347 31.1917 21.4749 27.2733 24.6268 22.5214C26.8199 19.2161 28.5938 15.5002 28.5938 12.375C28.5938 5.54512 23.3077 0 16.7969 0ZM16.7969 6.18749C13.5409 6.18749 10.8984 8.95949 10.8984 12.375C10.8984 15.7905 13.5409 18.5625 16.7969 18.5625C20.0528 18.5625 22.6953 15.7905 22.6953 12.375C22.6953 8.95949 20.0528 6.18749 16.7969 6.18749ZM16.7969 8.43749C18.8688 8.43749 20.5504 10.2015 20.5504 12.375C20.5504 14.5485 18.8688 16.3125 16.7969 16.3125C14.7249 16.3125 13.0433 14.5485 13.0433 12.375C13.0433 10.2015 14.7249 8.43749 16.7969 8.43749Z"
        fill="#98CB4D" />
</svg>
    