<svg width="24" height="32" viewBox="0 0 24 32" fill="none" xmlns="http://www.w3.org/2000/svg">
    <path fill-rule="evenodd" clip-rule="evenodd"
        d="M11.7969 0C5.28607 0 0 5.54512 0 12.375C0 15.5002 1.77382 19.2161 3.96697 22.5214C7.11888 27.2733 11.059 31.1917 11.059 31.1917C11.473 31.6023 12.1208 31.6023 12.5347 31.1917C12.5347 31.1917 16.4749 27.2733 19.6268 22.5214C21.8199 19.2161 23.5938 15.5002 23.5938 12.375C23.5938 5.54512 18.3077 0 11.7969 0ZM11.7969 6.18749C8.54094 6.18749 5.89844 8.95949 5.89844 12.375C5.89844 15.7905 8.54094 18.5625 11.7969 18.5625C15.0528 18.5625 17.6953 15.7905 17.6953 12.375C17.6953 8.95949 15.0528 6.18749 11.7969 6.18749ZM11.7969 8.43749C13.8688 8.43749 15.5504 10.2015 15.5504 12.375C15.5504 14.5485 13.8688 16.3125 11.7969 16.3125C9.72491 16.3125 8.04332 14.5485 8.04332 12.375C8.04332 10.2015 9.72491 8.43749 11.7969 8.43749Z"
        fill="#00385F" />
</svg>
    