<svg width="157" height="138" viewBox="0 0 157 138" fill="none" xmlns="http://www.w3.org/2000/svg">
    <path
        d="M157 108.427C157 112.932 152.845 116.585 147.72 116.585H9.28048C4.15498 116.585 0 112.932 0 108.427V29.5717C0 25.0665 4.15498 21.4141 9.28048 21.4141H147.72C152.845 21.4141 157 25.0665 157 29.5717V108.427Z"
        fill="#306FC5" />
    <path opacity="0.15"
        d="M6.59799 108.427V29.5717C6.59799 25.0665 10.7536 21.4141 15.8791 21.4141H9.28017C4.15498 21.4141 0 25.0662 0 29.5717V108.427C0 112.933 4.15498 116.585 9.28048 116.585H15.8794C10.7539 116.585 6.59799 112.932 6.59799 108.427Z"
        fill="#202121" />
    <path d="M22.8726 59.4978H27.5635L25.2187 54.25L22.8726 59.4978Z" fill="white" />
    <path
        d="M47.8193 77.1133V79.5501H55.7089V82.1745H47.8193V84.9866H56.5614L60.6124 81.0498L56.7748 77.1133H47.8193Z"
        fill="white" />
    <path d="M109.44 54.25L106.881 59.4978H111.786L109.44 54.25Z" fill="white" />
    <path d="M70.6339 86.4834V75.8008L65.0898 81.0488L70.6339 86.4834Z" fill="white" />
    <path
        d="M81.0825 78.8008C80.869 77.6763 80.0153 77.1133 78.7354 77.1133H74.2588V80.4867H78.9501C80.2291 80.487 81.0825 79.925 81.0825 78.8008Z"
        fill="white" />
    <path
        d="M96.0061 80.1123C96.4327 79.9244 96.6467 79.3616 96.6467 78.8005C96.8601 78.0514 96.4327 77.676 96.0061 77.4884C95.5808 77.3008 94.9402 77.3008 94.3015 77.3008H90.0361V80.2999H94.3012C94.9399 80.2999 95.5805 80.2999 96.0061 80.1123Z"
        fill="white" />
    <path
        d="M126.709 49.375V51.624L125.431 49.375H115.41V51.624L114.131 49.375H100.484C98.1392 49.375 96.2194 49.7502 94.5144 50.4998V49.375H84.92V49.5626V50.4998C83.8541 49.7505 82.5748 49.375 80.8689 49.375H46.5405L44.1941 54.0605L41.8492 49.375H34.1737H30.9751V51.624L29.9089 49.375H29.6955H20.5273L16.2622 58.1833L11.3587 67.7414L11.2686 67.9293H11.3587H22.2331H22.3693L22.4465 67.7414L23.7264 64.9307H26.4982L27.7775 67.9293H40.1431V67.7414V65.6803L41.2099 67.929H47.3927L48.4582 65.6803V67.7414V67.9293H53.3623H77.8829H78.0963V63.0561H78.5237C78.9497 63.0561 78.9497 63.0561 78.9497 63.6187V67.7417H94.3016V66.6172C95.5809 67.1802 97.4987 67.7417 100.058 67.7417H106.455L107.734 64.7437H110.719L111.998 67.7417H124.364V65.8679V64.931L126.284 67.7417H126.709H126.923H136.305V49.375H126.71H126.709ZM54.4291 65.1186H52.2965H51.0175V63.9949V54.8104L50.804 55.2403V55.2352L45.8438 65.1186H45.6868H44.5464H42.7014L37.5845 54.8104V65.1186H30.3355L28.843 62.3074H21.5928L20.1001 65.1186H16.352L22.6596 51.9992H27.9897L33.9597 64.5558V51.9992H35.2387H39.6086L39.7092 52.187H39.7165L42.4067 57.3335L44.3385 61.1894L44.4069 60.995L48.671 51.9994H54.4288V65.1186H54.4291ZM69.1418 54.8104H60.826V57.2467H68.9283V59.8703H60.826V62.495H69.1418V65.3054H57.2015V51.9994H69.1418V54.8104ZM84.3496 59.6431C84.3551 59.6474 84.3622 59.6503 84.3689 59.6544C84.4496 59.7293 84.5186 59.8045 84.5774 59.8765C84.9859 60.3471 85.3161 61.0471 85.3327 62.0734C85.3339 62.0912 85.3348 62.1087 85.3361 62.1265C85.3361 62.1368 85.3382 62.1457 85.3382 62.1562C85.3382 62.1621 85.3376 62.1667 85.3376 62.1723C85.3425 62.2756 85.3456 62.381 85.3456 62.495V65.1189H82.1479V63.6189C82.1479 62.8694 82.1479 61.7446 81.5074 60.995C81.3059 60.818 81.102 60.7012 80.88 60.6182C80.5604 60.4363 79.9548 60.4333 78.9497 60.4333H75.1105V65.1189H71.4866V51.9994H79.5896C81.5074 51.9994 82.7873 51.9994 83.8538 52.5617C84.8985 53.1131 85.5296 54.0276 85.5535 55.4758C85.5041 57.4704 84.0476 58.5647 83.0004 58.9337C83.0004 58.9337 83.7118 59.0595 84.3496 59.6431ZM91.5296 65.1186H87.9045V51.9992H91.5296V65.1186ZM133.108 65.1186H128.416L121.593 55.185V63.4313L121.571 63.4119V65.1267H117.969V65.1189H114.344L113.064 62.3076H105.601L104.322 65.3056H100.271C98.5661 65.3056 96.4325 64.9313 95.1538 63.8068C93.8745 62.6823 93.2354 61.1829 93.2354 58.7469C93.2354 56.8728 93.6614 54.9974 95.1538 53.4986C96.219 52.3733 98.1389 51.9994 100.484 51.9994H103.896V54.8104H100.484C99.2045 54.8104 98.5661 54.9972 97.7115 55.5605C97.073 56.1224 96.6462 57.2467 96.6462 58.5585C96.6462 60.0581 96.8596 60.995 97.7115 61.7446C98.3527 62.3077 99.2048 62.4952 100.271 62.4952H101.763L106.667 52.1876H108.8H111.998L117.968 64.7442V64.1038V59.8708V59.4964V52.1878H123.298L129.481 61.3708V52.1878H133.107V65.1191H133.108V65.1186Z"
        fill="white" />
    <path
        d="M81.3094 57.4655C81.3716 57.407 81.4281 57.3407 81.4759 57.2647C81.6691 56.996 81.8905 56.5119 81.7712 55.8513C81.7663 55.7906 81.7537 55.7346 81.739 55.6804C81.735 55.6653 81.7356 55.6521 81.731 55.637L81.7289 55.6373C81.6228 55.3163 81.352 55.119 81.0819 54.9993C80.6544 54.8125 80.0148 54.8125 79.3754 54.8125H75.1104V57.8116H79.3754C80.0148 57.8116 80.6547 57.8116 81.0819 57.6237C81.146 57.5951 81.203 57.5563 81.2579 57.5124L81.2585 57.5148C81.2585 57.5148 81.2806 57.4946 81.3094 57.4655Z"
        fill="white" />
    <path
        d="M145.686 83.8588C145.686 82.547 145.26 81.2346 144.621 80.2977V71.8644H144.611V71.3013C144.611 71.3013 135.674 71.3013 134.344 71.3013C133.014 71.3013 131.401 72.4255 131.401 72.4255V71.3013H121.593C120.1 71.3013 118.182 71.6765 117.328 72.4255V71.3013H99.8447V71.8644V72.4253C98.5663 71.4889 96.219 71.3011 95.1537 71.3011H83.6397V71.8641V72.425C82.5738 71.4886 80.014 71.3008 78.7341 71.3008H65.9428L62.9571 74.1123L60.185 71.3008H59.2924H57.8399H40.9961V71.8638V73.3444V90.2308H59.7594L62.8424 87.5201L65.5148 90.2308H65.7288H76.5403H77.0304H77.2438H77.456V88.3567V85.9204H78.5228C80.014 85.9204 81.9338 85.9204 83.4263 85.3574V90.0424V90.4181H93.0214V90.0424V85.545H93.4467C94.0872 85.545 94.0872 85.545 94.0872 86.1072V90.0424V90.4181H123.084C125.005 90.4181 126.922 90.0424 127.988 89.2928V90.0424V90.4181H137.157C139.075 90.4181 140.996 90.2308 142.275 89.4807C144.238 88.4454 145.475 86.6128 145.659 84.4272C145.668 84.3625 145.679 84.2979 145.685 84.2329L145.673 84.2224C145.681 84.1011 145.686 83.9812 145.686 83.8588ZM78.5231 82.7346H74.2577V83.2955V84.4205V85.5452V87.6069H67.2494L63.1705 83.4833L63.1564 83.4971L62.9571 83.2955L58.2664 87.6069H44.6206V74.488H58.4798L62.2662 78.1334L63.0623 78.8967L63.1702 78.7983L67.6484 74.4883H78.9487C81.1418 74.4883 83.5977 74.964 84.5283 76.9254C84.6403 77.3138 84.7053 77.7455 84.7053 78.2361C84.7053 81.9842 81.7201 82.7346 78.5231 82.7346ZM99.8447 82.5467C100.271 83.1076 100.484 83.8585 100.484 84.9835V87.6066H96.8599V85.9204C96.8599 85.1695 96.8599 83.8585 96.2193 83.2955C95.794 82.7346 94.94 82.7346 93.6616 82.7346H89.824V87.6069H86.1995V74.3004H94.3013C96.0059 74.3004 97.4983 74.3004 98.5663 74.8621C99.6316 75.4249 100.484 76.362 100.484 77.8614C100.484 79.9225 98.9923 81.047 97.9258 81.4225C98.9923 81.7958 99.6316 82.1718 99.8447 82.5467ZM114.557 77.1105H106.241V79.5471H114.343V82.1715H106.241V84.7957H114.557V87.6066H102.617V74.3001H114.557V77.1105ZM123.512 87.6069H116.688V84.7959H123.512C124.15 84.7959 124.578 84.7959 125.005 84.4208C125.219 84.2329 125.431 83.8588 125.431 83.4836C125.431 83.1079 125.219 82.7348 125.005 82.547C124.791 82.3596 124.364 82.1721 123.725 82.1721C120.313 81.9845 116.262 82.1721 116.262 78.0493C116.262 76.175 117.541 74.1131 121.379 74.1131H128.415V77.2987H121.806C121.167 77.2987 120.74 77.2987 120.313 77.4863C119.887 77.6741 119.887 78.0493 119.887 78.4237C119.887 78.9862 120.313 79.1738 120.739 79.3598C121.167 79.5476 121.593 79.5476 122.019 79.5476H123.938C125.857 79.5476 127.136 79.9225 127.989 80.6724C128.629 81.2349 129.055 82.1721 129.055 83.4836C129.055 86.294 127.136 87.6069 123.512 87.6069ZM141.849 86.294C140.997 87.0446 139.503 87.6069 137.37 87.6069H130.549V84.7959H137.37C138.01 84.7959 138.438 84.7959 138.864 84.4208C139.076 84.2329 139.29 83.8588 139.29 83.4836C139.29 83.1079 139.076 82.7348 138.864 82.547C138.65 82.3596 138.224 82.1721 137.584 82.1721C134.174 81.9845 130.122 82.1721 130.122 78.0496C130.122 76.2682 131.281 74.6591 134.14 74.1813C134.482 74.1398 134.843 74.1131 135.239 74.1131H142.276V77.2987H137.584H135.879H135.666C135.026 77.2987 134.6 77.2987 134.174 77.4863C133.959 77.6741 133.746 78.0493 133.746 78.4237C133.746 78.9862 133.959 79.1738 134.6 79.3598C135.026 79.5476 135.452 79.5476 135.879 79.5476H136.091H137.797C138.729 79.5476 139.434 79.6487 140.079 79.8479C140.669 80.0357 142.624 80.8044 143.062 82.8111C143.1 83.0213 143.128 83.2407 143.128 83.4836C143.128 84.6084 142.701 85.5452 141.849 86.294Z"
        fill="white" />
</svg>
    