<svg width="52" height="39" viewBox="0 0 52 39" fill="none" xmlns="http://www.w3.org/2000/svg">
    <path
        d="M47.79 37.283V18.6415H36.5105V13.327H15.2314V18.6415H10.0316V5.35535H14.7914V0.899371H10.0316V0H9.15161V0.899371V5.31447V18.6006H4.19181H3.95182V37.2421H0.271973V39H51.4699V37.2421H47.79V37.283ZM42.5902 26.2044H40.4303V23.9969H42.5902V26.2044ZM38.6704 23.956V26.1635H36.5105V23.956H38.6704ZM15.2314 26.2044H13.0714V23.9969H15.2314V26.2044ZM11.3515 23.956V26.1635H9.1916V23.956H11.3515ZM9.15161 37.283V27.9623H11.3115V37.283H9.15161ZM13.0714 37.283V27.9623H15.2314V37.283H13.0714ZM18.2712 37.283V18.6415H21.3111V37.283H18.2712ZM24.351 37.283V18.6415H27.3909V37.283H24.351ZM30.4307 37.283V18.6415H33.4706V37.283H30.4307ZM36.5105 37.283V27.9623H38.6704V37.283H36.5105ZM40.3903 37.283V27.9623H42.5502V37.283H40.3903Z"
        fill="#98CB4D" />
</svg>
    