<svg width="54" height="39" viewBox="0 0 54 39" fill="none" xmlns="http://www.w3.org/2000/svg">
    <path
        d="M49.3696 37.283V18.6415H37.8307V13.327H16.0622V18.6415H10.7428V5.35535H15.6121V0.899371H10.7428V0H9.84264V0.899371V5.31447V18.6006H4.76878H4.52327V37.2421H0.758789V39H53.1341V37.2421H49.3696V37.283ZM44.0503 26.2044H41.8407V23.9969H44.0503V26.2044ZM40.0403 23.956V26.1635H37.8307V23.956H40.0403ZM16.0622 26.2044H13.8526V23.9969H16.0622V26.2044ZM12.0931 23.956V26.1635H9.88355V23.956H12.0931ZM9.84264 37.283V27.9623H12.0522V37.283H9.84264ZM13.8526 37.283V27.9623H16.0622V37.283H13.8526ZM19.172 37.283V18.6415H22.2818V37.283H19.172ZM25.3916 37.283V18.6415H28.5013V37.283H25.3916ZM31.6111 37.283V18.6415H34.7209V37.283H31.6111ZM37.8307 37.283V27.9623H40.0403V37.283H37.8307ZM41.7998 37.283V27.9623H44.0094V37.283H41.7998Z"
        fill="#00385F" />
</svg>
    