<svg width="86" height="62" viewBox="0 0 86 62" fill="none" xmlns="http://www.w3.org/2000/svg">
    <path
        d="M57.3165 17.0917C59.5357 17.0917 61.3344 15.7937 61.3344 14.1939C61.3344 12.594 59.5357 11.2972 57.3165 11.2972C55.0956 11.2972 53.2969 12.594 53.2969 14.1939C53.2969 15.7937 55.0956 17.0917 57.3165 17.0917Z"
        fill="#98CB4D" />
    <path
        d="M73.0304 31.58H66.6745L67.3114 22.8224C67.5313 20.5805 65.3264 18.5561 62.1901 18.221C60.6007 18.0522 58.9723 17.9614 57.319 17.9614C54.7344 17.9614 52.2226 18.1776 49.8101 18.583C49.5493 18.6264 49.3365 18.7569 49.2265 18.9282L41.6732 30.5927H45.8596L49.8438 25.6256L50.4274 31.58H12.9219V33.5545H50.619L52.2669 50.4137H56.6325V33.8947H58.0019V50.4137H62.3693L64.0101 33.5545H73.0304V31.58Z"
        fill="#98CB4D" />
    <path
        d="M28.5843 17.0917C30.8052 17.0917 32.6057 15.7937 32.6057 14.1939C32.6057 12.594 30.8052 11.2972 28.5843 11.2972C26.3669 11.2972 24.5664 12.594 24.5664 14.1939C24.5664 15.7937 26.3669 17.0917 28.5843 17.0917Z"
        fill="#00385F" />
    <path
        d="M23.2993 22.5308L24.5889 26.5567C23.3862 27.7984 22.3804 29.1489 21.6016 30.58L35.5764 30.5812C34.7977 29.1489 33.7919 27.7984 32.5874 26.5553L33.877 22.5308L36.0802 25.2829C36.474 25.774 37.2102 26.1065 38.0545 26.1065C38.9716 26.1065 39.7575 25.7151 40.1229 25.155L43.339 20.179H39.9189L38.3774 22.2699L35.9507 19.1137C35.8336 18.9615 35.642 18.84 35.4097 18.7837C33.2721 18.2517 30.9767 17.9614 28.5872 17.9614C26.8453 17.9614 25.153 18.1174 23.5334 18.4077C21.3089 18.8068 19.7302 20.1112 19.3541 21.6407L17.1562 30.5927H20.3173L23.2993 22.5308Z"
        fill="#00385F" />
</svg>