<svg width="41" height="37" viewBox="0 0 41 37" fill="none" xmlns="http://www.w3.org/2000/svg">
    <path fill-rule="evenodd" clip-rule="evenodd"
        d="M3.4165 32.7604C2.7089 32.7604 2.13525 33.2781 2.13525 33.9167C2.13525 34.5552 2.7089 35.0729 3.4165 35.0729H37.5832C38.2908 35.0729 38.8644 34.5552 38.8644 33.9167C38.8644 33.2781 38.2908 32.7604 37.5832 32.7604H35.8748H31.604H29.0415V24.6667C29.0415 21.7597 29.0415 20.3062 28.0408 19.4031C27.04 18.5 25.4294 18.5 22.2082 18.5H18.7915C15.5702 18.5 13.9596 18.5 12.9589 19.4031C11.9582 20.3062 11.9582 21.7597 11.9582 24.6667V32.7604H9.39567H5.12484H3.4165ZM15.8019 23.125C15.8019 22.4864 16.3756 21.9688 17.0832 21.9688H23.9165C24.6241 21.9688 25.1978 22.4864 25.1978 23.125C25.1978 23.7636 24.6241 24.2812 23.9165 24.2812H17.0832C16.3756 24.2812 15.8019 23.7636 15.8019 23.125ZM15.8019 27.75C15.8019 27.1114 16.3756 26.5938 17.0832 26.5938H23.9165C24.6241 26.5938 25.1978 27.1114 25.1978 27.75C25.1978 28.3886 24.6241 28.9062 23.9165 28.9062H17.0832C16.3756 28.9062 15.8019 28.3886 15.8019 27.75Z"
        fill="#00385F" />
    <g opacity="0.5">
        <path
            d="M13.6667 6.9375C15.2773 6.9375 16.0826 6.9375 16.583 7.38904C17.0833 7.84059 17.0833 8.56733 17.0833 10.0208L17.0833 12.7842C17.3512 12.9016 17.584 13.0497 17.7909 13.2364C18.4813 13.8594 18.6953 14.7443 18.7618 16.1875V18.5C15.5604 18.5 13.9567 18.5028 12.9591 19.4031C11.9583 20.3062 11.9583 21.7597 11.9583 24.6667V32.7604H5.125V18.5C5.125 15.593 5.125 14.1395 6.12572 13.2364C6.33259 13.0497 6.5655 12.9017 6.83333 12.7842V10.0208C6.83333 8.56733 6.83333 7.84059 7.33369 7.38904C7.83406 6.9375 8.63937 6.9375 10.25 6.9375H10.6771V4.625C10.6771 3.98643 11.2507 3.46875 11.9583 3.46875C12.6659 3.46875 13.2396 3.98643 13.2396 4.625V6.9375H13.6667Z"
            fill="#00385F" />
        <path
            d="M35.2663 8.0894C34.6578 7.29711 33.5855 6.93418 31.4407 6.20837C27.2464 4.78894 25.1491 4.0792 23.6785 4.99888C22.208 5.91855 22.208 7.93983 22.208 11.9824V18.5006C25.4292 18.5006 27.0399 18.5006 28.0406 19.4038C29.0413 20.3069 29.0413 21.7603 29.0413 24.6673V32.7611H35.8747V11.9824C35.8747 9.91526 35.8747 8.88169 35.2663 8.0894Z"
            fill="#98CB4D" />
    </g>
</svg>
    