<svg width="55" height="49" viewBox="0 0 55 49" fill="none" xmlns="http://www.w3.org/2000/svg">
    <path
        d="M27.3079 39C34.5692 39 40.4556 32.9558 40.4556 25.5C40.4556 18.0442 34.5692 12 27.3079 12C20.0466 12 14.1602 18.0442 14.1602 25.5C14.1602 32.9558 20.0466 39 27.3079 39Z"
        fill="#98CB4D" />
    <path
        d="M27.3059 40.6976C19.2431 40.6976 12.6836 33.9177 12.6836 25.584C12.6836 17.2503 19.2431 10.4702 27.3059 10.4702C35.3687 10.4702 41.9282 17.2502 41.9282 25.5839C41.9282 33.9176 35.3688 40.6976 27.3059 40.6976ZM27.3059 13.4672C20.8419 13.4672 15.5831 18.9027 15.5831 25.5839C15.5831 32.265 20.8419 37.7005 27.3059 37.7005C33.7698 37.7005 39.0286 32.265 39.0286 25.5839C39.0286 18.9027 33.7698 13.4672 27.3059 13.4672Z"
        fill="#00385F" />
    <path
        d="M33.7394 27.0824H27.3071C26.5065 27.0824 25.8574 26.4115 25.8574 25.5839V18.8327C25.8574 18.0051 26.5065 17.3342 27.3071 17.3342C28.1078 17.3342 28.7569 18.0051 28.7569 18.8327V24.0856H33.7393C34.5399 24.0856 35.189 24.7565 35.189 25.584C35.189 26.4116 34.5399 27.0824 33.7394 27.0824Z"
        fill="#00385F" />
    <path
        d="M52.5943 2.38056C51.2073 0.867682 49.2549 0 47.2378 0C45.3455 0 43.5465 0.7399 42.171 2.08365L40.9543 3.24493C40.6694 3.5167 40.5017 3.89531 40.4888 4.29596C40.4759 4.69651 40.6187 5.08581 40.8855 5.37665L43.9668 8.73757L42.932 9.75321C38.826 5.42329 33.2133 2.96688 27.3067 2.96688C21.1965 2.96688 15.6641 5.57003 11.6904 9.75839L10.6474 8.73691L13.7279 5.37687C13.9945 5.08603 14.1375 4.69673 14.1246 4.29618C14.1117 3.89564 13.944 3.51714 13.6591 3.24515L12.4424 2.08387C11.0669 0.740231 9.26785 0.000220383 7.37557 0.000220383C5.35849 0.000220383 3.40616 0.868013 2.01916 2.38078C-0.779154 5.43299 -0.653287 10.2693 2.2997 13.1616C2.30418 13.1662 2.30887 13.1705 2.31346 13.175L3.53693 14.3425C3.81544 14.6084 4.16819 14.7399 4.51998 14.7399C4.9043 14.7399 5.28766 14.5829 5.57268 14.2721L8.65324 10.9121L9.79799 12.0332C7.05322 15.8124 5.42495 20.5054 5.42495 25.584C5.42495 30.8111 7.15018 35.6291 10.0418 39.4635L7.84 41.6202C7.25877 42.1894 7.23413 43.1378 7.78496 43.7386C8.06998 44.0495 8.45345 44.2064 8.83745 44.2064C9.19543 44.2064 9.55404 44.0702 9.83447 43.7957L11.9724 41.7018C15.924 45.7188 21.3399 48.2014 27.307 48.2014C33.2741 48.2014 38.6903 45.7188 42.6417 41.7018L44.7796 43.7957C45.06 44.0703 45.4185 44.2064 45.7766 44.2064C46.1606 44.2064 46.5441 44.0495 46.8291 43.7386C47.3798 43.1378 47.3551 42.1894 46.7741 41.6202L44.5722 39.4635C47.464 35.6293 49.1891 30.8111 49.1891 25.584C49.1891 24.7565 48.54 24.0856 47.7394 24.0856C46.9388 24.0856 46.2897 24.7565 46.2897 25.584C46.2897 36.4027 37.7742 45.2045 27.3071 45.2045C16.8401 45.2045 8.32395 36.4026 8.32395 25.5839C8.32395 14.7653 16.8396 5.96352 27.3065 5.96352C32.8701 5.96352 38.1346 8.47451 41.7504 12.8525C41.763 12.8678 41.7768 12.8809 41.7899 12.8956C41.7971 12.9035 41.8029 12.9123 41.8102 12.9202C41.8166 12.9271 41.8236 12.933 41.8302 12.9397C41.8469 12.9569 41.8638 12.9736 41.8812 12.9898C41.9059 13.0132 41.9311 13.036 41.9568 13.0573C41.9614 13.0611 41.9662 13.0648 41.9709 13.0686C42.2316 13.2792 42.5459 13.3869 42.8616 13.3869C43.2201 13.3869 43.5793 13.2502 43.8596 12.975L45.9607 10.9128L49.0404 14.272C49.3253 14.5828 49.7086 14.7398 50.0931 14.7398C50.445 14.7398 50.7977 14.6083 51.0762 14.3424L52.2996 13.1749C52.3043 13.1704 52.3089 13.1661 52.3134 13.1615C55.2667 10.2691 55.3926 5.43277 52.5943 2.38056ZM4.45203 11.137L4.28734 10.9798C2.50098 9.22345 2.42684 6.29262 4.1235 4.44194C4.9778 3.51009 6.13258 2.99687 7.37525 2.99687C8.52566 2.99687 9.61932 3.44757 10.4548 4.26586C10.4593 4.27038 10.464 4.27468 10.4686 4.27909L10.613 4.4168L4.45203 11.137ZM50.3258 10.9798L50.1611 11.137L44.0001 4.41713L44.1445 4.27942C44.1491 4.27513 44.1537 4.2706 44.1583 4.26619C44.9938 3.44791 46.0874 2.9972 47.2378 2.9972C48.4804 2.9972 49.6353 3.51042 50.4896 4.44227C52.1863 6.29262 52.1122 9.22345 50.3258 10.9798Z"
        fill="#00385F" />
</svg>