<svg width="90" height="82" viewBox="0 0 90 82" fill="none" xmlns="http://www.w3.org/2000/svg">


    <path fill-rule="evenodd" clip-rule="evenodd"
        d="M22.5179 0C15.1168 0 9.11702 5.50692 9.11702 12.3V16.4H4.65006C2.18305 16.4 0.183105 18.2357 0.183105 20.5C0.183105 22.7643 2.18305 24.6 4.65006 24.6H9.11702V36.9H4.65006C2.18305 36.9 0.183105 38.7356 0.183105 41C0.183105 43.2644 2.18305 45.1 4.65006 45.1H9.11702V57.4H4.65006C2.18305 57.4 0.183105 59.2356 0.183105 61.5C0.183105 63.7644 2.18305 65.6 4.65006 65.6H9.11702V69.7C9.11702 76.4933 15.1168 82 22.5179 82H76.1214C83.5227 82 89.5222 76.4933 89.5222 69.7V12.3C89.5222 5.50692 83.5227 0 76.1214 0H22.5179ZM31.4518 41C31.4518 31.9425 39.4517 24.6 49.3196 24.6C59.1876 24.6 67.1874 31.9425 67.1874 41C67.1874 50.0573 59.1876 57.4 49.3196 57.4C39.4517 57.4 31.4518 50.0573 31.4518 41ZM37.4255 72.4946C39.1506 70.7951 42.2395 69.7 49.279 69.7C56.4936 69.7 59.553 70.7705 61.2468 72.4687C62.913 74.1387 65.7388 74.253 67.5582 72.7237C69.3776 71.1949 69.5022 68.6012 67.8361 66.9313C63.399 62.4832 56.8375 61.5 49.279 61.5C41.7691 61.5 35.3063 62.5529 30.8886 66.9054C29.2069 68.5622 29.307 71.1563 31.1121 72.7C32.9171 74.2432 35.7437 74.1514 37.4255 72.4946Z "
        fill="#00385F"
    />


</svg>
    