<svg width="45" height="46" viewBox="0 0 45 46" fill="none" xmlns="http://www.w3.org/2000/svg">
    <path
        d="M22.5 0C10.0964 0 0 10.3208 0 23C0 35.6792 10.0964 46 22.5 46C34.9036 46 45 35.6792 45 23C45 10.3208 34.9036 0 22.5 0ZM22.5 5.75C31.8713 5.75 39.375 13.4204 39.375 23C39.375 32.5796 31.8713 40.25 22.5 40.25C13.1287 40.25 5.625 32.5796 5.625 23C5.625 13.4204 13.1287 5.75 22.5 5.75ZM16.7871 14.2852C16.04 14.2852 15.3259 14.5884 14.7986 15.1274C13.7 16.2505 13.7 18.0698 14.7986 19.1929L18.4351 22.9102L14.7986 26.6274C13.7 27.7505 13.7 29.5698 14.7986 30.6929C15.8972 31.8159 17.677 31.8159 18.7756 30.6929L22.4121 26.9756L26.0486 30.6929C27.1472 31.8159 28.927 31.8159 30.0256 30.6929C31.1243 29.5698 31.1243 27.7505 30.0256 26.6274L26.3892 22.9102L30.0256 19.1929C31.1243 18.0698 31.1243 16.2505 30.0256 15.1274C29.4983 14.5884 28.7842 14.2852 28.0371 14.2852C27.29 14.2852 26.5759 14.5884 26.0486 15.1274L22.4121 18.8447L18.7756 15.1274C18.2483 14.5884 17.5342 14.2852 16.7871 14.2852Z"
        fill="#98CB4D" />
</svg>