<svg width="62" height="64" viewBox="0 0 62 64" fill="none" xmlns="http://www.w3.org/2000/svg">
    <path
        d="M50.6327 55.9999H11.366C8.00768 55.9999 5.16602 53.0666 5.16602 49.5999V37.3333H10.3327V48.5333C10.3327 50.1333 11.366 50.6666 12.916 50.6666H49.0827C50.6327 50.6666 51.666 49.5999 51.666 47.9999V37.3333H56.8327V49.5999C56.8327 53.0666 53.991 55.9999 50.6327 55.9999Z"
        fill="#FFFFFF" />
    <path
        d="M39.5257 32.2667L34.6173 37.3333V26.6667C34.6173 21.3333 34.6173 13.6 40.8173 8C32.034 9.6 27.6423 16.5333 27.384 26.6667V37.3333L22.4757 32.2667L18.084 34.6667L31.0007 48L43.9173 34.6667L39.5257 32.2667Z"
        fill="#FFFFFF" />
</svg>