<svg width="157" height="96" viewBox="0 0 157 96" fill="none" xmlns="http://www.w3.org/2000/svg">
    <path
        d="M148.627 0.273438H8.37333C3.74887 0.273438 0 3.90292 0 8.3801V87.6228C0 92.1 3.74887 95.7294 8.37333 95.7294H148.627C153.251 95.7294 157 92.1 157 87.6228V8.3801C157 3.90292 153.251 0.273438 148.627 0.273438Z"
        fill="#0079BE" />
    <path
        d="M122.446 48.498C122.446 28.3497 105.075 14.423 86.044 14.4297H69.6653C50.406 14.423 34.5537 28.3539 34.5537 48.498C34.5537 66.9266 50.406 82.0677 69.6653 81.9793H86.044C105.075 82.0676 122.446 66.9226 122.446 48.498Z"
        fill="white" />
    <path
        d="M69.7668 17.2852C52.1682 17.2905 37.9075 31.1288 37.9033 48.208C37.9075 65.2842 52.1681 79.1212 69.7668 79.1265C87.3696 79.1212 101.633 65.2842 101.636 48.208C101.633 31.1288 87.3696 17.2905 69.7668 17.2852Z"
        fill="#0079BE" />
    <path
        d="M49.626 48.1228C49.6426 39.777 55.0155 32.6601 62.5922 29.832V66.4093C55.0155 63.5828 49.6424 56.4699 49.626 48.1228ZM77.0486 66.4186V29.832C84.628 32.6533 90.0093 39.7741 90.0231 48.124C90.0093 56.4765 84.628 63.5919 77.0486 66.4186Z"
        fill="white" />
</svg>
    