<svg width="157" height="96" viewBox="0 0 157 96" fill="none" xmlns="http://www.w3.org/2000/svg">
    <path
        d="M11.0689 0.273438C4.95689 0.273438 0 4.9661 0 10.7534V85.2495C0 91.0379 4.9553 95.7295 11.0689 95.7295H145.931C152.043 95.7295 157 91.0368 157 85.2495V51.4418V10.7534C157 4.965 152.045 0.273437 145.931 0.273438H11.0689Z"
        fill="#4D4D4D" />
    <path
        d="M65.85 31.1172C67.6286 31.1172 69.1204 31.4683 70.9359 32.3153V36.7916C69.2162 35.2445 67.7244 34.5971 65.7517 34.5971C61.8742 34.5971 58.8248 37.5511 58.8248 41.2963C58.8248 45.2458 61.7799 48.024 65.9439 48.024C67.8184 48.024 69.2825 47.4101 70.9359 45.8879V50.3665C69.0557 51.1811 67.532 51.5028 65.7517 51.5028C59.456 51.5028 54.564 47.0572 54.564 41.324C54.564 35.6526 59.5863 31.1172 65.85 31.1172ZM46.3028 31.2405C48.6268 31.2405 50.7533 31.9725 52.5312 33.4036L50.3678 36.01C49.2908 34.8992 48.2722 34.4307 47.0337 34.4307C45.2517 34.4307 43.9539 35.3642 43.9539 36.5926C43.9539 37.6461 44.6825 38.2036 47.1634 39.0484C51.8663 40.6309 53.26 42.0341 53.26 45.1328C53.26 48.909 50.2457 51.5373 45.9494 51.5373C42.8034 51.5373 40.5162 50.3973 38.6113 47.8246L41.2818 45.4575C42.2341 47.1516 43.8224 48.059 45.7945 48.059C47.6389 48.059 49.0044 46.8879 49.0044 45.3077C49.0044 44.4885 48.5908 43.7861 47.7649 43.2895C47.349 43.0544 46.5254 42.7038 44.9068 42.1786C41.0238 40.8923 39.6916 39.5173 39.6916 36.83C39.6916 33.6379 42.5525 31.2405 46.3028 31.2405ZM93.5483 31.5806H98.0646L103.717 44.6821L109.443 31.5806H113.925L104.768 51.5865H102.543L93.5483 31.5806ZM13.5693 31.6106H19.6381C26.3431 31.6106 31.0172 35.6205 31.0172 41.377C31.0172 44.2474 29.5873 47.0227 27.1692 48.8644C25.1345 50.419 22.8162 51.1162 19.6062 51.1162H13.5693V31.6106ZM32.9195 31.6106H37.0541V51.1162H32.9195V31.6106ZM115.794 31.6106H127.519V34.9156H119.926V39.2451H127.239V42.5486H119.926V47.8138H127.519V51.1162H115.794V31.6106ZM130.258 31.6106H136.388C141.156 31.6106 143.889 33.7177 143.889 37.3695C143.889 40.356 142.175 42.3158 139.061 42.8991L145.733 51.1162H140.649L134.926 43.2803H134.387V51.1162H130.258V31.6106ZM134.387 34.6828V40.5901H135.595C138.236 40.5901 139.635 39.5351 139.635 37.5744C139.635 35.6761 138.235 34.6828 135.661 34.6828H134.387ZM17.7007 34.9156V47.8138H18.8101C21.4818 47.8138 23.169 47.3428 24.4681 46.2637C25.8979 45.0919 26.758 43.2208 26.758 41.349C26.758 39.4801 25.8979 37.6648 24.4681 36.493C23.1025 35.3559 21.4818 34.9156 18.8101 34.9156H17.7007Z"
        fill="white" />
    <path
        d="M83.5585 30.9883C89.7862 30.9883 94.8346 35.481 94.8346 41.031V41.0373C94.8346 46.5873 89.7862 51.0863 83.5585 51.0863C77.3308 51.0863 72.2823 46.5873 72.2823 41.0373V41.031C72.2823 35.481 77.3308 30.9883 83.5585 30.9883ZM156.996 55.2139C151.753 58.7065 112.498 83.6677 44.5293 95.7252H145.927C152.04 95.7252 156.996 91.0326 156.996 85.2453V55.2139Z"
        fill="#F47216" />
</svg>
    