<svg width="51" height="40" viewBox="0 0 51 40" fill="none" xmlns="http://www.w3.org/2000/svg">
    <path
        d="M12.2188 1.66797C13.0989 1.66797 13.8125 2.22762 13.8125 2.91797V6.0013L17.4689 5.42775C20.9763 4.87757 24.612 5.13937 27.9329 6.18125L28.8112 6.45679C31.8391 7.40669 35.1715 7.58409 38.3352 6.96374C39.6761 6.70084 40.7528 7.84064 40.0418 8.77017L37.325 12.3217C36.5993 13.2703 36.2363 13.7446 36.1503 14.2605C36.1146 14.4757 36.1146 14.6936 36.1503 14.9088C36.2363 15.4247 36.5993 15.899 37.325 16.8476L40.6413 21.1828C41.3017 22.0461 40.7112 23.1646 39.4657 23.4088L39.253 23.4505C35.4926 24.1878 31.5318 23.977 27.9329 22.848C24.612 21.806 20.9763 21.5443 17.4689 22.0945L13.8125 22.668V36.2513C13.8125 36.9416 13.0989 37.5013 12.2188 37.5013C11.3386 37.5013 10.625 36.9416 10.625 36.2513V2.91797C10.625 2.22762 11.3386 1.66797 12.2188 1.66797Z"
        fill="#98CB4D" />
</svg>
    