<svg width="81" height="62" viewBox="0 0 81 62" fill="none" xmlns="http://www.w3.org/2000/svg">
    <path fill-rule="evenodd" clip-rule="evenodd"
        d="M40.5 62C21.4081 62 11.8622 62 5.9311 57.4601C0 52.9204 0 45.6134 0 31C0 16.3864 0 9.07968 5.9311 4.53986C11.8622 -4.47938e-07 21.4081 0 40.5 0C59.5917 0 69.1379 -4.47938e-07 75.0688 4.53986C81 9.07968 81 16.3864 81 31C81 45.6134 81 52.9204 75.0688 57.4601C69.1379 62 59.5917 62 40.5 62ZM40.5 48.825C42.1775 48.825 43.5375 47.784 43.5375 46.5V27.9C43.5375 26.616 42.1775 25.575 40.5 25.575C38.8225 25.575 37.4625 26.616 37.4625 27.9V46.5C37.4625 47.784 38.8225 48.825 40.5 48.825ZM40.5 15.5C42.7368 15.5 44.55 16.8879 44.55 18.6C44.55 20.3121 42.7368 21.7 40.5 21.7C38.2632 21.7 36.45 20.3121 36.45 18.6C36.45 16.8879 38.2632 15.5 40.5 15.5Z"
        fill="#FFFFFF" />
</svg>