<svg width="38" height="39" viewBox="0 0 38 39" fill="none" xmlns="http://www.w3.org/2000/svg">
    <path
        d="M14.139 3.25H7.94817C4.74984 3.25 3.1665 4.875 3.1665 8.1575V14.5275C3.1665 17.875 4.74984 19.5 7.94817 19.4188H14.1548C17.4165 19.5 18.9998 17.875 18.9207 14.5113V8.1575C18.9998 4.875 17.4165 3.25 14.139 3.25ZM14.2657 15.86C13.189 15.86 12.144 15.4375 11.2732 14.69C10.2915 15.4213 9.104 15.86 7.8215 15.86C7.17234 15.86 6.634 15.3075 6.634 14.6413C6.634 13.975 7.17234 13.4225 7.8215 13.4225C9.4365 13.4225 10.7823 12.285 11.2732 10.725H7.8215C7.17234 10.725 6.634 10.1725 6.634 9.50625C6.634 8.84 7.17234 8.2875 7.8215 8.2875H9.864C9.92734 7.67 10.4182 7.1825 11.0357 7.1825C11.6532 7.1825 12.144 7.67 12.2073 8.2875H12.619C12.6348 8.2875 12.6507 8.2875 12.6507 8.2875H12.6823H14.2498C14.899 8.2875 15.4373 8.84 15.4373 9.50625C15.4373 10.1725 14.9148 10.725 14.2498 10.725H13.7273C13.5848 11.505 13.284 12.2363 12.8882 12.9025C13.3157 13.2275 13.7748 13.4225 14.2657 13.4225C14.9148 13.4225 15.4532 13.975 15.4532 14.6413C15.4532 15.3075 14.9148 15.86 14.2657 15.86Z"
        fill="#00385F" />
    <path
        d="M14.2498 36.9687C7.489 36.9687 1.979 31.3137 1.979 24.375C1.979 23.7087 2.51734 23.1562 3.1665 23.1562C3.81567 23.1562 4.354 23.7087 4.354 24.375C4.354 29.185 7.61567 33.215 12.0015 34.2712L11.574 33.54C11.2415 32.955 11.4157 32.2075 11.9857 31.8663C12.5398 31.525 13.284 31.7038 13.6165 32.2888L15.279 35.1325C15.5007 35.5063 15.5007 35.9775 15.2948 36.3513C15.0732 36.725 14.6773 36.9687 14.2498 36.9687Z"
        fill="#00385F" />
    <path
        d="M34.8311 15.8437C34.1819 15.8437 33.6436 15.2912 33.6436 14.625C33.6436 9.815 30.3819 5.785 25.9961 4.72875L26.4236 5.46C26.7561 6.045 26.5819 6.7925 26.0119 7.13375C25.4577 7.475 24.7136 7.29625 24.3811 6.71125L22.7186 3.8675C22.4969 3.49375 22.4969 3.0225 22.7027 2.64875C22.9244 2.275 23.3202 2.03125 23.7477 2.03125C30.5086 2.03125 36.0186 7.68625 36.0186 14.625C36.0186 15.2912 35.4802 15.8437 34.8311 15.8437Z"
        fill="#98CB4D" />
    <path
        d="M26.7894 19.2578C22.3561 19.2578 18.7461 22.9466 18.7461 27.5128C18.7461 32.0628 22.3403 35.7678 26.7894 35.7678C31.2228 35.7678 34.8328 32.0791 34.8328 27.5128C34.8328 22.9466 31.2386 19.2578 26.7894 19.2578ZM30.7161 31.4291C30.1303 31.7216 29.4178 31.4941 29.1169 30.8766L28.8478 30.3241H24.7469L24.4778 30.8766C24.2719 31.2991 23.8444 31.5428 23.4169 31.5428C23.2428 31.5428 23.0528 31.4941 22.8944 31.4128C22.3086 31.1041 22.0711 30.3728 22.3561 29.7716L25.7444 22.8328C25.9503 22.4266 26.3619 22.1666 26.8053 22.1666C27.2486 22.1666 27.6603 22.4266 27.8661 22.8491L31.2544 29.7878C31.5394 30.3891 31.3019 31.1203 30.7161 31.4291Z"
        fill="#98CB4D" />
    <path d="M25.9336 27.8845H27.6594L26.7886 26.1133L25.9336 27.8845Z" fill="#98CB4D" />
</svg>
    