<svg width="38" height="33" viewBox="0 0 38 33" fill="none" xmlns="http://www.w3.org/2000/svg">
    <path fill-rule="evenodd" clip-rule="evenodd"
        d="M10.6847 0.101562C7.94593 0.101562 5.46936 0.807164 3.67179 2.5278C1.85718 4.26479 0.933594 6.84422 0.933594 10.1534V22.3903C0.933594 25.6996 1.85718 28.2789 3.67179 30.0159C5.46936 31.7366 7.94593 32.4421 10.6847 32.4421H27.643C30.3818 32.4421 32.8584 31.7366 34.6558 30.0159C36.4705 28.2789 37.3941 25.6996 37.3941 22.3903V10.1534C37.3941 6.84422 36.4705 4.26479 34.6558 2.5278C32.8584 0.807164 30.3818 0.101562 27.643 0.101562H10.6847ZM31.4222 9.91264C31.9779 9.46991 32.0803 8.6465 31.6508 8.07353C31.2214 7.50054 30.4227 7.39497 29.8668 7.83773L20.4598 15.3307C19.6965 15.9388 18.631 15.9388 17.8675 15.3307L8.46073 7.83773C7.90489 7.39497 7.10613 7.50054 6.67663 8.07353C6.24712 8.6465 6.34953 9.46991 6.90538 9.91264L16.3123 17.4057C17.9918 18.7434 20.3357 18.7434 22.0152 17.4057L31.4222 9.91264Z"
        fill="#00385F" />
</svg>