<svg width="31" height="23" viewBox="0 0 31 23" fill="none" xmlns="http://www.w3.org/2000/svg">
    <path fill-rule="evenodd" clip-rule="evenodd"
        d="M6.15043 6.2196e-07H24.8496C25.5294 -1.3753e-05 26.1161 -2.82616e-05 26.6017 0.0306911C27.1129 0.0630492 27.6243 0.134206 28.1296 0.328268C29.2688 0.765958 30.1742 1.6055 30.646 2.66218C30.8552 3.1307 30.932 3.60495 30.967 4.07908C31 4.52939 31 5.07346 31 5.70401V17.296C31 17.9265 31 18.4706 30.967 18.9209C30.932 19.395 30.8552 19.8693 30.646 20.3379C30.1742 21.3945 29.2688 22.2341 28.1296 22.6717C27.6243 22.8657 27.1129 22.9369 26.6017 22.9694C26.1161 23 25.5294 23 24.8496 23H6.15042C5.47051 23 4.88386 23 4.39831 22.9694C3.88707 22.9369 3.37571 22.8657 2.87052 22.6717C1.73115 22.2341 0.825903 21.3945 0.353959 20.3379C0.144709 19.8693 0.0679835 19.395 0.033093 18.9209C-3.04733e-05 18.4706 -1.48294e-05 17.9265 6.70635e-07 17.296V5.70403C-1.48294e-05 5.07347 -3.04733e-05 4.52939 0.033093 4.07908C0.0679835 3.60495 0.144709 3.1307 0.353959 2.66218C0.825903 1.6055 1.73115 0.765958 2.87052 0.328268C3.37571 0.134206 3.88707 0.0630492 4.39831 0.0306911C4.88386 -2.82616e-05 5.47052 -1.3753e-05 6.15043 6.2196e-07ZM3.59205 3.2743C4.15577 2.67683 5.135 2.61628 5.77924 3.13907L14.4793 10.1991C15.0637 10.6733 15.9363 10.6733 16.5207 10.1991L25.2208 3.13907C25.865 2.61628 26.8443 2.67683 27.4079 3.2743C27.9716 3.87178 27.9064 4.77993 27.2622 5.30272L18.562 12.3628C16.8088 13.7855 14.1912 13.7855 12.438 12.3628L3.73787 5.30272C3.09363 4.77993 3.02834 3.87178 3.59205 3.2743Z"
        fill="#00385F" />
</svg>