<svg width="157" height="97" viewBox="0 0 157 97" fill="none" xmlns="http://www.w3.org/2000/svg">
    <path
        d="M157 4.8391V91.6599C157 94.132 154.737 96.1644 151.984 96.1644H5.01541C2.2627 96.1644 0 94.132 0 91.6599V4.8391C0 2.36692 2.2627 0.355469 5.01541 0.355469H151.984C154.737 0.355469 157 2.36692 157 4.8391Z"
        fill="url(#paint0_linear_327_509)" />
    <g opacity="0.2">
        <path
            d="M91.7999 28.7968C91.4605 28.454 91.2486 28.1494 90.8245 28.3207C90.4004 28.492 90.4004 28.7396 89.9549 28.435C89.5096 28.1304 89.7004 27.7683 88.7035 27.4447C87.7066 27.1208 87.4947 26.9305 86.4129 26.7972C85.3313 26.6639 84.5466 26.5306 84.4829 26.5306C84.4194 26.5306 84.7162 26.7019 84.2921 26.8925C83.868 27.0831 83.5286 27.1211 83.1045 26.8735C82.6804 26.6259 82.7016 26.5496 81.9807 26.6069C81.2595 26.6642 80.8354 26.8165 80.5174 26.8545C80.1994 26.8925 80.5174 26.8355 80.0295 26.5306C79.5417 26.2258 79.8811 26.0545 79.0326 26.1115C78.1845 26.1688 77.8239 26.204 77.6117 26.1005C77.3995 25.9972 77.654 25.4638 76.827 25.2352C76 25.0066 75.8301 25.1782 75.406 25.1209C74.9819 25.0639 75.0031 24.9686 73.7943 24.8923C72.5855 24.8161 72.649 24.9876 71.822 25.2162C70.995 25.4448 70.7828 25.4448 70.0192 25.4068C69.2557 25.3688 69.4467 25.7876 68.98 25.8449C68.5133 25.9019 67.7713 25.4831 67.6863 25.2355C67.6014 24.9879 68.3226 24.7213 67.6863 24.4928C67.05 24.2642 65.8624 23.826 65.6291 23.9023C65.3957 23.9786 65.523 24.3215 65.0989 24.4165C64.6748 24.5118 64.1235 24.5118 63.466 24.2452C62.8086 23.9786 62.5541 23.8467 61.8543 23.8935C61.1546 23.9403 60.7728 24.1309 60.1788 24.1689C59.5849 24.2069 59.2246 23.9783 59.6275 23.807C60.0304 23.6357 60.5394 23.1213 60.5394 22.8737C60.5394 22.6262 60.8363 22.0927 60.1577 22.0357C59.4791 21.9787 59.3518 22.3976 58.7155 22.0357C58.0793 21.6739 57.2523 21.6549 57.0189 21.7691C56.7855 21.8834 56.7855 22.074 56.3826 22.131C55.9797 22.188 56.1281 22.5119 55.6402 22.6262C55.1524 22.7404 55.2162 22.3976 54.092 22.4929C52.9679 22.5882 51.8863 22.7214 51.6107 23.007C51.335 23.2926 51.6745 23.6165 51.0805 23.864C50.4865 24.1116 49.1293 23.921 48.9598 24.1306C48.7902 24.3402 49.7021 25.0639 49.087 25.3878C48.4719 25.7116 48.0901 25.1592 46.6695 25.3878C45.2485 25.6164 45.4181 25.5783 44.8882 25.8639C44.358 26.1495 44.2519 25.9592 43.9339 26.3591C43.6159 26.7589 42.6614 27.1211 42.0039 27.1211C41.3465 27.1211 41.0708 26.7592 40.2224 27.0641C39.3742 27.3689 39.5014 27.5782 38.1651 27.4832C36.8291 27.3879 36.2777 27.4069 36.0232 27.5595C35.7687 27.7118 35.7687 28.0929 35.1113 28.2642C34.4538 28.4355 33.4358 28.7404 33.1813 28.6834C32.9268 28.6264 32.0574 29.0072 31.4635 29.0642C30.8695 29.1215 30.5304 29.0832 30.3396 28.8737C30.1486 28.6641 29.9367 28.3022 30.2335 28.4165C30.5304 28.5308 30.7849 28.6831 31.3151 28.6641C31.8452 28.6451 32.4392 28.2642 32.3119 28.0547C32.1847 27.8451 32.2908 27.5405 31.2516 27.3119C30.2124 27.0834 29.7671 27.1214 28.9824 26.6072C28.1977 26.0931 29.2793 25.7502 27.2223 25.9405C25.1651 26.1311 24.6137 26.3214 23.7867 26.8738C22.9597 27.4262 22.7898 27.9024 21.9417 28.5688C21.0935 29.2355 21.3903 29.4258 20.33 29.902C19.2696 30.3781 19.1 30.1496 18.7817 30.8733C18.4634 31.597 18.2516 32.435 18.909 32.5876C19.5664 32.7399 20.245 32.4733 20.5845 32.359C20.9239 32.2447 21.1784 32.4543 21.2208 32.7972C21.2631 33.14 21.2842 33.7115 21.7086 33.7875C22.1327 33.8637 23.0235 33.3303 22.9812 32.7782C22.9389 32.2257 22.7904 31.8449 23.2145 31.2924C23.6386 30.74 23.9143 30.3401 24.3598 30.1496C24.8051 29.959 25.4202 29.6164 25.1868 30.0543C24.9535 30.4924 24.5294 31.0066 24.8262 31.4447C25.1231 31.8829 25.8017 31.578 25.9715 32.0162C26.1411 32.4543 25.7382 32.8732 25.6321 33.0257C25.526 33.178 25.8866 33.3686 25.3987 33.6735C24.9109 33.978 24.5929 34.3019 24.0627 34.6638C23.5325 35.0256 21.9631 35.2732 21.6025 35.1972C21.2419 35.1209 20.6483 35.1972 20.6056 34.759C20.5633 34.3209 21.1358 33.8447 20.5422 33.6352C19.9482 33.4256 19.2908 33.7115 19.1 34.4542C18.909 35.1969 18.6122 35.3302 18.1246 35.6921C17.6367 36.0539 18.0397 37.1585 16.619 37.3681C15.198 37.5777 14.3922 37.2728 14.4983 37.73C14.6044 38.1871 15.4952 37.9013 15.5163 38.6633C15.5375 39.425 15.7497 39.6918 15.1346 39.8441C14.5194 39.9964 14.371 39.7108 13.544 39.9584C12.717 40.206 12.7593 41.1393 12.5897 41.5392C12.4202 41.939 12.3352 42.3009 12.8866 42.4725C13.4379 42.6438 14.3287 42.9486 14.9861 42.701C15.6436 42.4535 16.0253 42.4155 16.1103 41.9583C16.1952 41.5012 16.4071 41.2156 16.8527 41.1393C17.2979 41.063 17.595 40.6059 17.8492 40.3393C18.1038 40.0727 17.8492 40.168 18.5067 40.187C19.1641 40.206 19.7792 39.5776 20.0123 39.7488C20.2456 39.9201 20.9454 40.2823 21.3906 40.6631C21.8359 41.044 22.451 41.1583 22.3449 41.7297C22.2388 42.3012 22.1965 42.9638 22.6206 42.7944C23.0447 42.625 22.8962 42.1106 23.1719 41.863C23.4476 41.6154 23.8082 41.844 23.7659 41.4059C23.7236 40.9677 23.0023 40.8534 22.6206 40.4536C22.2388 40.0537 21.942 39.6156 22.4084 39.7488C22.8748 39.8821 23.7656 40.244 23.8505 40.5489C23.9354 40.8537 24.7201 41.4822 24.8048 42.0726C24.8897 42.663 25.3561 43.1965 25.5683 42.8916C25.7805 42.5867 25.5895 42.3582 26.0562 42.2822C26.5226 42.2059 26.353 41.9013 26.6075 41.5012C26.862 41.1013 27.5618 41.6917 27.8163 40.9487C28.0708 40.206 27.4983 39.9502 28.1343 39.5448C28.7706 39.1394 29.0462 38.8728 29.237 39.2347C29.4277 39.5966 29.9156 39.9774 30.1489 39.5966C30.3823 39.2157 29.7248 39.1014 30.2762 38.8155C30.8275 38.53 31.3154 38.1871 31.167 38.6823C31.0185 39.1774 30.8063 39.5013 31.1881 39.8441C31.5699 40.187 32.6937 40.3966 32.0789 40.7011C31.4638 41.006 30.5733 40.8344 29.746 41.1583C28.919 41.4822 28.7917 41.3296 28.5795 41.9393C28.3673 42.5487 28.3462 42.7393 29.0459 42.7393C29.7457 42.7393 30.064 42.3012 30.2547 42.8536C30.4454 43.406 30.4031 44.6439 30.1063 44.7582C29.8095 44.8725 29.6822 44.7012 28.3673 44.8345C27.0524 44.9678 27.1159 45.2536 26.0556 44.7772C24.9952 44.3011 24.7407 43.7106 24.3589 44.3011C23.9771 44.8915 24.2528 45.1919 23.4258 45.0419C22.5988 44.8915 23.1925 44.5679 22.0898 44.3203C20.9871 44.0728 20.7749 44.149 20.7749 43.7109C20.7749 43.2727 20.9233 42.7013 20.0537 42.6443C19.184 42.5873 17.6573 42.9109 16.4059 43.2347C15.1545 43.5586 15.409 43.1585 13.9669 43.6156C12.5247 44.0728 11.6339 44.225 11.4855 44.9298C11.3371 45.6345 10.8492 46.0344 10.5313 46.4155C10.2133 46.7964 10.0434 48.4727 9.95876 49.501C9.87383 50.5296 10.171 50.0534 9.85267 50.8151C9.53437 51.5771 10.4252 52.777 10.7858 53.1006C11.1464 53.4245 12.3128 54.4528 13.0549 54.5291C13.7973 54.6053 13.7335 54.2815 14.8788 54.4338C16.0241 54.5861 16.003 53.9956 17.1694 54.2625C18.3359 54.5291 18.76 54.7196 19.4386 55.0435C20.1172 55.3674 20.1809 55.6339 20.1809 56.4149C20.1809 57.1959 20.2233 56.6055 20.8384 57.7101C21.4535 58.8147 22.535 59.8433 21.8987 60.7956C21.2625 61.7479 20.9868 61.9192 21.3897 62.8145C21.7926 63.7098 22.9168 65.5191 23.044 66.4334C23.1713 67.3477 22.8533 67.4047 22.9806 67.9571C23.1078 68.5095 24.2531 69.119 25.2923 68.7381C26.3315 68.3573 26.6495 68.3382 27.498 67.6335C28.3462 66.9288 29.1946 67.4622 29.8309 65.9955C30.4672 64.529 30.255 64.3575 30.5307 63.767C30.8063 63.1766 32.4607 62.3196 32.5241 61.253C32.5876 60.1864 32.1635 59.3864 32.3119 58.3581C32.4604 57.3295 32.5665 56.4345 33.6691 55.6155C34.7718 54.7965 35.0263 55.5965 35.7899 54.0537C36.5534 52.511 37.4653 52.1301 36.6169 52.1491C35.7684 52.1681 34.1144 52.7776 33.4146 52.4347C32.7149 52.0919 31.5696 50.5301 31.3362 49.8064C31.1029 49.0827 31.1878 49.4445 30.7849 48.4159C30.382 47.3874 30.0002 46.8542 29.8306 46.4541C29.661 46.0542 29.5549 45.3495 30.064 45.9209C30.573 46.4923 31.0609 47.3494 31.7395 48.6635C32.418 49.9777 32.821 50.9873 33.4149 51.1968C34.0089 51.4064 34.1996 51.654 35.0904 51.3301C35.9812 51.0063 36.2992 50.9683 37.1477 50.5491C37.9958 50.13 38.5049 50.054 39.12 49.5015C39.7351 48.9491 41.1346 48.7205 39.5867 48.1874C38.0385 47.6542 37.5083 47.9588 37.063 47.3494C36.6178 46.7399 35.8966 46.1305 36.554 46.2258C37.2115 46.321 36.9569 46.4923 37.6993 46.6256C38.4417 46.7589 38.9719 46.4587 39.3748 46.9421C39.7777 47.4256 40.4563 47.7685 41.0926 47.5016C41.7289 47.2351 41.9834 47.0828 42.662 47.4254C43.3406 47.7682 42.8953 48.7395 43.9134 49.0061C44.9314 49.2727 45.101 48.2824 45.3132 49.5395C45.5254 50.7967 45.9283 51.9583 46.2886 52.2061C46.6492 52.4537 46.0979 53.5966 47.2429 53.2917C48.3882 52.9869 48.7273 53.0252 48.7273 51.9586C48.7273 50.892 48.685 50.6254 49.2998 50.2443C49.915 49.8634 50.7631 49.4825 51.1449 49.0824C51.5267 48.6825 51.2933 48.4347 52.0568 48.5109C52.8204 48.5872 54.7077 50.4918 54.6228 50.8917C54.5379 51.2916 54.4532 51.4441 54.8135 51.6917C55.1742 51.9393 55.153 52.0156 55.4287 52.9106C55.7043 53.8059 55.6409 53.6723 56.5102 54.5106C57.3798 55.3486 58.6098 55.9391 58.5037 55.3296C58.3976 54.7202 57.9735 54.7962 57.5917 53.8249C57.2099 52.8536 56.7647 51.9773 57.2737 52.2251C57.7827 52.4727 57.6343 52.8346 58.1645 52.9109C58.6947 52.9871 58.7796 52.4347 59.1826 52.2631C59.5855 52.0919 60.3067 50.7014 59.7339 50.092C59.1614 49.4825 58.5674 49.0634 59.1614 48.8731C59.7554 48.6825 59.4794 48.8161 60.1794 48.9301C60.8792 49.0444 60.6673 48.7395 61.5155 48.5302C62.3636 48.3207 63.5939 47.9778 64.2513 47.2161C64.9088 46.4543 65.6297 46.2258 65.4389 45.2162C65.2482 44.2069 64.9937 43.7687 64.5908 43.5019C64.1879 43.2353 64.1667 43.0447 64.527 42.9304C64.8876 42.8161 65.8207 42.7971 65.2905 42.5496C64.7603 42.302 65.0149 42.4353 64.3997 42.302C63.7846 42.1687 63.1272 42.4353 63.6785 41.9781C64.2299 41.521 64.6539 41.1401 64.6539 41.1401C64.6539 41.1401 64.5055 41.2354 64.8661 41.5783C65.2267 41.9211 65.4601 41.7688 65.6297 41.6926C65.7992 41.6163 66.3083 41.2927 66.3721 41.6546C66.4358 42.0164 65.7146 42.283 66.1387 42.4163C66.5628 42.5496 66.9445 42.2067 66.775 42.8924C66.6054 43.5782 66.9446 44.2066 67.3052 43.8637C67.6658 43.5209 68.1959 42.5116 68.0899 42.0924C67.9838 41.6736 67.6231 41.8828 68.111 41.1211C68.5989 40.3594 68.5989 39.826 69.2563 39.9212C69.9137 40.0165 70.55 39.4451 70.8045 39.2165C71.0591 38.9879 72.1406 38.4545 72.3101 37.8071C72.4797 37.1593 72.3951 37.0643 72.6281 36.3213C72.8615 35.5786 73.3705 35.5786 72.7342 35.2357C72.098 34.8929 71.6101 34.9692 71.5043 34.588C71.3982 34.2072 73.2009 32.3596 73.9856 32.074C74.7703 31.7884 75.3217 31.9217 75.8518 32.131C76.382 32.3406 76.5516 32.5499 77.0395 32.2833C77.5273 32.0167 77.8453 31.8641 78.121 31.8451C78.3967 31.8261 79.1602 31.3117 79.4782 31.5403C79.7962 31.7689 79.8388 32.0164 80.2206 31.8641C80.6023 31.7118 81.1113 30.9118 81.2809 31.1974C81.4505 31.483 81.4082 31.8259 80.9415 32.3783C80.4748 32.9307 80.0718 33.026 79.4782 33.4639C78.8842 33.902 78.6512 34.3592 78.6512 34.759C78.6512 35.1589 78.4816 36.4924 78.7146 36.5114C78.948 36.5304 79.0115 36.4734 79.6266 35.7686C80.2417 35.0639 80.5597 35.0259 80.9626 34.759C81.3656 34.4925 81.514 34.1686 81.5777 33.5402C81.6415 32.9117 81.196 32.7592 81.8534 32.4356C82.5109 32.1117 83.2955 31.7689 83.953 31.8641C84.6104 31.9594 84.462 31.9404 84.9499 31.5023C85.4377 31.0641 85.7769 30.7785 86.2859 30.8166C86.7949 30.8546 87.6219 30.9498 87.7492 30.7213C87.8764 30.4927 87.7704 30.3024 87.7915 29.9785C87.8127 29.6547 87.7704 29.5214 88.2582 29.4071C88.7461 29.2928 88.7246 29.1405 88.958 29.0642C89.1913 28.988 89.3397 29.2165 89.7215 29.3498C90.1033 29.4831 91.0364 29.5021 91.2486 29.2545C91.4605 29.0064 91.7999 28.7968 91.7999 28.7968Z"
            fill="#040000" />
        <path
            d="M73.1798 39.1611C73.457 39.2528 73.9856 39.6372 74.3039 39.6182C74.6219 39.5992 74.7918 39.9801 74.5373 40.0181C74.2828 40.0561 73.4346 40.4179 73.4346 40.4179C73.4346 40.4179 73.1801 40.1324 73.0317 40.4179C72.8832 40.7035 72.7983 40.9131 72.8409 41.0847C72.8833 41.256 73.1804 41.7514 73.0105 41.999C72.8409 42.2465 72.6076 42.3798 72.6076 42.6847C72.6076 42.9893 72.8198 43.3131 72.5226 43.4464C72.2258 43.5797 71.9287 43.618 71.6745 43.694C71.42 43.7703 71.2292 43.7893 71.1231 43.9989C71.017 44.2084 70.7625 44.513 70.2323 44.494C69.7022 44.475 69.7022 44.0941 69.2143 44.456C68.7264 44.8179 68.7053 45.0274 68.4508 44.9321C68.1962 44.8369 68.387 44.7036 68.4508 44.3417C68.5142 43.9798 67.5811 44.0751 68.4296 43.656C69.2778 43.2368 69.2778 43.1798 69.8506 43.1036C70.4231 43.0273 70.7414 43.2748 70.9744 42.837C71.2078 42.3988 70.9744 42.2275 71.4411 42.2085C71.9078 42.1895 72.2047 42.3801 72.2893 41.9037C72.3742 41.4275 72.3104 41.0277 72.2893 40.7228C72.2681 40.4179 72.1409 40.1324 72.5226 40.0181C72.9044 39.9038 72.9467 40.1134 72.9893 39.8468C73.0314 39.5799 72.7768 39.0278 73.1798 39.1611Z"
            fill="#040000" />
        <path
            d="M64.6539 49.4805C65.0568 49.5378 65.2475 50.1852 65.1206 50.4518C64.9933 50.7183 64.8661 51.0232 65.2267 51.0802C65.5873 51.1375 65.8418 51.1755 65.8418 51.4041C65.8418 51.6326 65.9902 51.1565 66.2659 51.7659C66.5415 52.3754 66.287 52.4707 66.6053 52.9278C66.9233 53.385 67.3051 53.6135 66.8598 53.8421C66.4146 54.0707 66.7537 54.3183 66.2873 54.185C65.8209 54.0517 66.0117 54.1277 65.7783 53.7278C65.545 53.3279 65.3965 53.6515 65.1847 53.6325C64.9725 53.6135 64.909 53.6135 65.0786 53.347C65.2481 53.0804 65.3331 53.0994 65.1423 52.7945C64.9516 52.4897 65.2484 52.1278 64.9728 52.0708C64.6971 52.0138 64.6122 52.4327 64.1246 52.6992C63.6367 52.9658 62.9158 53.0421 62.937 52.9468C62.9581 52.8515 63.2338 52.7182 63.6794 52.2231C64.1246 51.7279 64.4006 52.0325 64.3156 51.2708C64.2307 50.5091 63.9339 50.7183 64.2095 50.1852C64.4843 49.652 64.6539 49.4805 64.6539 49.4805Z"
            fill="#040000" />
        <path
            d="M63.2969 53.8055C63.6179 54.0939 64.0393 54.0151 63.912 54.3007C63.7847 54.5863 63.407 54.6245 63.617 54.9101C63.8271 55.196 64.0181 55.6149 64.2938 55.5768C64.5694 55.5388 64.5483 55.3483 65.2269 55.3483C65.9055 55.3483 66.3296 55.215 66.3722 55.4626C66.4145 55.7101 66.0754 55.7291 65.6298 56.091C65.1846 56.4529 64.739 56.8147 65.0996 57.0433C65.4602 57.2719 65.6086 57.691 65.4814 57.8433C65.3541 57.9956 65.2269 58.1482 65.5237 58.3385C65.8205 58.529 67.2415 58.4718 66.9021 58.9289C66.5626 59.3861 65.7356 59.6336 64.866 59.6526C63.9963 59.6716 64.6955 59.4431 62.9357 59.2908C61.1758 59.1385 60.879 59.5383 59.6491 59.0052C58.4191 58.4718 57.613 58.9289 56.9344 57.9576C56.2558 56.9863 56.5315 57.4624 55.683 56.4529C54.8348 55.4436 55.2378 55.4436 54.5165 55.0434C53.7953 54.6435 53.1805 54.0721 53.6684 54.0721C54.1562 54.0721 53.9229 53.558 55.4285 54.6816C56.9341 55.8051 56.5312 55.7481 57.6342 56.4149C58.7368 57.0816 59.0974 57.1576 59.5004 57.0816C59.9033 57.0053 60.4973 57.0816 60.1155 56.6434C59.7337 56.2053 59.5215 55.6531 59.8398 55.5578C60.1581 55.4626 60.1366 55.9387 60.6668 55.4246C61.197 54.9104 61.197 54.7768 61.6637 54.6055C62.1304 54.4343 61.8759 54.6055 62.3212 54.358C62.7667 54.1104 62.9363 53.4817 63.2969 53.8055Z"
            fill="#040000" />
        <path
            d="M69.1289 56.0158C69.3595 56.2821 69.744 56.6252 69.9136 56.9111C70.0832 57.1969 70.4014 56.6693 71.0163 56.6852C71.6314 56.7015 72.5433 57.0061 72.9251 57.1586C73.3069 57.3112 73.9643 57.4062 74.3672 57.9014C74.7702 58.3965 75.067 58.1109 75.0884 58.6061C75.1096 59.1012 75.1945 59.0442 75.5548 59.3298C75.9155 59.6154 75.9789 60.1488 75.3427 59.9203C74.7064 59.6917 74.5156 58.911 73.837 58.987C73.1585 59.0632 73.4341 59.2345 72.9039 59.3298C72.3738 59.4251 72.1404 59.2535 71.5041 59.2155C70.8678 59.1775 70.4014 59.3678 70.6983 58.8537C70.9951 58.3395 71.2073 58.3205 70.1681 57.9394C69.1289 57.5585 68.726 57.7488 68.726 57.3489C68.726 56.9491 68.8955 56.9108 68.4926 56.5679C68.0897 56.2251 67.9624 55.9775 68.2169 55.8059C68.4714 55.6346 68.9805 55.8442 69.1289 56.0158Z"
            fill="#040000" />
        <path
            d="M70.3591 61.4985C71.0589 61.8223 71.3346 62.4698 71.674 62.3555C72.0135 62.2412 71.8862 62.0506 72.1404 61.3652C72.3949 60.6795 72.4161 59.9748 72.7344 60.2606C73.0524 60.5462 72.7555 61.1039 73.2646 61.2823C73.7736 61.4605 73.8797 61.594 73.9858 62.1272C74.0919 62.6606 74.198 62.4891 74.7282 63.0415C75.2583 63.5939 75.7345 63.4986 75.825 64.1271C75.9158 64.7555 76.8066 65.4033 76.8489 66.0507C76.8912 66.6984 77.0184 67.1553 76.4883 67.9743C75.9581 68.7933 75.7459 69.2122 75.5763 69.5553C75.4067 69.8982 74.8977 70.0695 74.3464 70.0695C73.795 70.0695 73.4767 69.8599 73.1376 69.9362C72.7982 70.0125 72.5651 70.3933 72.1622 70.1268C71.7593 69.8602 71.5259 69.5173 71.3986 69.3077C71.2714 69.0982 71.2079 68.3934 70.6139 68.4697C70.0203 68.546 70.1049 68.8126 69.7443 68.4697C69.3837 68.1269 69.6382 67.8413 68.5779 67.6887C67.5175 67.5364 67.2418 67.4601 66.7963 67.5554C66.351 67.6507 65.8843 67.784 65.3965 68.1269C64.9086 68.4697 64.1451 68.2984 63.721 68.4697C63.2969 68.641 62.6606 69.0222 62.1939 68.7936C61.7272 68.565 61.8971 68.4507 61.9182 67.9176C61.9394 67.3841 61.8971 67.7463 61.6002 66.832C61.3034 65.9177 61.4307 66.051 61.155 65.6131C60.8793 65.175 60.6671 65.3845 61.0489 64.7561C61.4307 64.1276 61.3034 63.9944 61.5153 63.7848C61.7275 63.5752 61.9182 63.8421 62.6395 63.4039C63.3607 62.9658 63.5726 63.1563 64.23 62.9278C64.8874 62.6992 65.0359 61.8232 65.4388 61.5563C65.8417 61.2897 65.9478 61.0802 66.2446 61.0802C66.5415 61.0802 66.8809 61.2325 67.4111 61.423C67.9413 61.6136 67.8352 61.6326 68.2807 61.1945C68.726 60.7563 68.2807 60.3374 69.0866 60.4134C69.8924 60.4897 70.1893 60.3754 70.2953 60.7943C70.4014 61.2129 70.3591 61.4985 70.3591 61.4985Z"
            fill="#040000" />
        <path
            d="M85.0769 70.4892C85.501 69.9941 85.7132 69.9368 85.5648 69.3654C85.4164 68.7939 85.4587 68.3459 86.0101 68.8556C86.5614 69.3654 87.1765 69.6512 87.6006 69.6702C88.0247 69.6892 89.0427 69.9751 88.0035 70.6798C86.9643 71.3845 87.1553 70.8894 86.328 71.937C85.501 72.9845 86.1373 73.0035 85.1404 73.5177C84.1435 74.0319 83.0409 74.2604 83.253 73.8036C83.4652 73.3464 83.3591 73.3464 84.2711 72.737C85.183 72.1275 85.7767 71.6704 85.7767 71.1562C85.7767 70.6418 85.0769 70.4892 85.0769 70.4892Z"
            fill="#040000" />
        <path
            d="M34.4334 65.3455C34.0517 64.8503 34.0517 64.6978 34.0094 63.898C33.967 63.098 33.6699 62.7172 34.0094 62.26C34.3488 61.8029 35.2393 61.0411 35.5787 60.5077C35.9182 59.9745 36.0028 58.8317 36.215 59.86C36.4272 60.8886 37.1058 61.498 36.0878 62.8695C35.0697 64.2406 34.4334 65.3455 34.4334 65.3455Z"
            fill="#040000" />
        <path
            d="M14.0312 37.0085C13.9463 36.8562 14.3281 36.3607 14.3281 36.3607C14.3281 36.3607 14.7948 36.1322 14.6675 35.2942C14.5403 34.4561 14.4553 34.9513 14.1162 34.1513C13.7767 33.3513 13.268 33.5036 13.7767 32.9704C14.2858 32.437 14.8794 31.6372 15.0067 32.2847C15.1339 32.9321 14.8371 33.3513 15.1339 33.6561C15.4308 33.961 16.0247 34.0238 16.3639 34.5255C16.7033 35.0273 18.0605 35.2179 17.0425 35.8653C16.0244 36.513 15.558 36.0939 15.1762 36.551C14.7945 37.0085 14.0312 37.0085 14.0312 37.0085Z"
            fill="#040000" />
        <path
            d="M12.6738 36.3957C13.3524 36.0529 13.6004 36.1292 13.5612 35.5195C13.5219 34.91 13.9886 34.3766 13.2674 34.3386C12.5465 34.3006 12.3343 34.6814 12.2494 34.948C12.1644 35.2146 12.1644 35.2909 12.3766 35.5575C12.5888 35.824 12.6311 36.2052 12.5462 36.3955C12.4619 36.5863 12.6738 36.3957 12.6738 36.3957Z"
            fill="#040000" />
        <path
            d="M10.2137 30.453C10.765 30.1102 11.6558 30.415 11.6981 29.691C11.7405 28.9673 11.9527 28.7767 10.7227 28.7007C9.49278 28.6245 9.49278 28.6245 8.72924 28.7007C7.96571 28.777 7.2448 28.0913 7.83845 29.1199C8.43211 30.1485 8.51705 30.377 8.98376 30.453C9.45046 30.5291 10.2137 30.453 10.2137 30.453Z"
            fill="#040000" />
        <path
            d="M95.596 27.7105C94.934 27.0308 93.8571 26.9867 94.7052 26.5676C95.5534 26.1487 96.0624 25.8819 96.8686 25.7296C97.6744 25.5773 98.5229 25.8819 99.8378 26.1867C101.153 26.4916 103.273 26.2247 104.249 26.4916C105.225 26.7582 105.691 27.2916 105.988 27.2533C106.285 27.2153 107.133 26.4153 107.982 26.4153C108.83 26.4153 109.254 26.301 110.993 26.4916C112.732 26.6822 114.429 26.7582 114.471 27.1393C114.513 27.5202 114.513 27.7108 115.15 27.7108C115.786 27.7108 116.337 27.3679 116.719 27.9013C117.101 28.4348 117.694 28.8156 117.61 28.3965C117.525 27.9776 117.101 27.6347 117.44 27.4822C117.78 27.3299 118.755 27.2536 119.01 27.3299C119.264 27.4062 120.07 27.5205 120.324 27.4822C120.579 27.4442 120.409 27.063 121.258 27.2916C122.106 27.5202 122.233 28.0916 122.403 28.1296C122.572 28.1676 122.954 27.5439 122.997 27.1322C123.039 26.7202 123.421 26.7202 122.657 26.187C121.894 25.6536 122.583 25.0061 123.129 25.2347C123.675 25.4633 123.336 25.7681 123.887 26.2633C124.439 26.7584 124.524 27.1776 124.905 27.025C125.287 26.8727 125.075 26.225 125.584 26.7202C126.093 27.2153 126.22 26.9658 126.687 26.881C127.153 26.7962 126.772 26.5296 127.323 26.7962C127.874 27.0628 128.807 27.3676 128.129 27.8628C127.45 28.3579 126.432 28.2819 125.711 28.6628C124.99 29.0436 125.202 28.9294 124.99 29.3865C124.778 29.8437 124.863 29.8817 124.015 30.0722C123.166 30.2628 122.912 30.1102 122.954 30.7579C122.997 31.4057 122.912 31.4817 122.615 31.8245C122.318 32.1674 122.487 32.4723 122.827 32.6245C123.166 32.7768 123.548 32.5103 123.548 32.9674C123.548 33.4246 124.184 33.7674 125.032 33.7674C125.88 33.7674 126.262 33.958 126.771 34.5291C127.28 35.1006 126.559 35.1386 127.408 35.8623C128.256 36.586 129.062 36.9289 129.189 36.2815C129.316 35.634 129.189 35.4814 129.316 34.7197C129.444 33.958 130.249 33.8817 129.825 33.196C129.401 32.5103 128.765 32.2057 129.359 31.8245C129.953 31.4437 129.231 31.0917 130.249 30.9058C131.268 30.7199 131.946 30.5674 132.37 31.2531C132.794 31.9388 132.328 32.396 132.752 32.7006C133.176 33.0054 134.491 32.5483 134.745 32.2817C135 32.0151 135.721 32.0531 135.975 33.0434C136.23 34.0337 136.399 34.3006 136.781 34.4149C137.163 34.5291 137.163 34.7577 137.63 35.1386C138.096 35.5195 138.987 36.1289 137.63 36.2432C136.273 36.3575 135.17 36.2052 134.661 36.624C134.151 37.0429 134.109 36.7383 134.448 37.3098C134.788 37.8812 134.533 37.5003 134.788 38.2241C135.042 38.9478 136.315 38.9478 135.381 39.4429C134.448 39.9381 134.618 40.0524 134.067 39.9001C133.515 39.7478 133.388 38.6539 132.752 39.5437C132.115 40.4335 132.2 40.7764 131.649 41.043C131.098 41.3095 131.055 40.7764 130.546 41.6144C130.037 42.4524 130.843 42.5287 129.698 43.481C128.553 44.4333 128.001 43.9761 127.917 44.7762C127.832 45.5762 128.383 46.5285 128.086 46.719C127.789 46.9096 127.832 46.8713 127.492 46.3382C127.153 45.8047 127.323 45.5002 126.135 45.4239C124.948 45.3476 125.033 45.081 124.566 45.5382C124.099 45.9953 124.735 46.1476 123.421 45.9953C122.106 45.843 121.936 44.4336 121.682 46.0716C121.427 47.7096 121.385 47.8999 121.809 48.3571C122.233 48.8142 123.378 49.9188 123.887 49.4236C124.396 48.9285 123.76 48.3191 124.736 48.5094C125.711 48.6999 125.966 48.4714 125.796 48.9665C125.627 49.4617 124.312 49.5379 125.372 49.9951C126.432 50.4522 127.323 49.9188 127.408 50.6428C127.493 51.3665 127.281 51.5571 127.323 51.976C127.365 52.3948 127.577 52.6997 128.553 52.6997C129.528 52.6997 129.486 52.3568 129.74 52.814C129.995 53.2711 130.801 53.0426 131.14 52.3948C131.48 51.7471 131.734 51.0234 132.243 51.7854C132.752 52.5471 132.837 52.6997 133.346 52.3948C133.855 52.09 133.855 52.09 133.855 52.09C133.855 52.09 134.406 51.6328 134.873 52.0137C135.339 52.3946 136.103 51.9757 136.273 52.5089C136.442 53.042 136.188 53.1183 136.909 53.3089C137.63 53.4994 138.478 53.1946 138.902 53.7277C139.326 54.2612 138.181 53.9183 139.411 54.5657C140.641 55.2135 141.023 55.2895 140.938 55.7086C140.853 56.1278 141.193 56.2038 142.296 56.4323C143.398 56.6609 143.229 56.5466 144.119 57.1561C145.01 57.7655 145.731 57.4989 146.028 57.8038C146.325 58.1086 146.834 58.1847 146.41 59.0227C145.986 59.8607 145.562 59.6704 145.222 60.3178C144.883 60.9655 144.586 61.1178 144.671 62.2607C144.756 63.4036 144.798 63.2893 144.544 63.8607C144.289 64.4322 143.356 64.5082 142.593 64.9273C141.829 65.3465 141.787 65.0036 141.278 66.1462C140.769 67.2891 141.066 66.6796 140.642 67.6699C140.217 68.6602 140.811 68.1651 139.581 68.7365C138.351 69.308 137.885 68.8128 137.757 69.1557C137.63 69.4985 138.478 69.2319 137.588 69.9557C136.697 70.6794 136.315 70.87 135.764 71.1746C135.212 71.4791 134.873 71.8223 135 72.4697C135.128 73.1172 135.764 73.0792 135.043 73.6886C134.321 74.298 134.025 73.6886 133.813 74.6789C133.6 75.6692 133.389 75.2123 133.6 76.2406C133.813 77.2692 134.915 77.2692 133.897 77.8407C132.879 78.4121 131.777 78.6787 131.14 77.3075C130.504 75.9361 130.504 75.4029 130.504 74.4886C130.504 73.5743 130.377 74.26 130.886 72.6983C131.395 71.1365 130.546 71.6697 130.971 69.9557C131.395 68.2414 131.31 66.413 131.734 65.1559C132.158 63.8987 133.091 64.2416 132.158 63.099C131.225 61.9561 131.056 62.1467 130.25 61.3847C129.444 60.623 129.953 60.7753 129.486 59.861C129.02 58.9467 128.723 59.0229 128.341 58.3372C127.959 57.6515 127.747 57.8801 128.129 56.7375C128.511 55.5946 127.662 55.6329 128.511 55.29C129.359 54.9472 129.232 54.1091 129.104 53.8043C128.977 53.4994 129.741 53.3851 128.553 53.2329C127.366 53.0806 127.026 53.4234 126.602 52.7757C126.178 52.128 126.517 52.014 125.627 51.6328C124.736 51.252 123.76 51.252 123.421 50.9471C123.081 50.6423 123.081 50.6423 123.081 50.6423C123.081 50.6423 123.718 50.4137 122.276 50.2614C120.833 50.1091 119.773 50.2614 119.052 49.3471C118.331 48.4328 118.501 48.9662 118.331 48.1282C118.161 47.2902 117.949 47.2902 117.27 46.7568C116.592 46.2236 116.592 45.9188 115.955 45.6902C115.319 45.4616 115.192 45.5379 115.192 45.6522C115.192 45.7665 115.15 46.2236 115.743 46.6425C116.337 47.0616 116.38 47.4425 116.38 47.6328C116.38 47.8234 115.574 48.0519 115.574 48.0519C115.574 48.0519 115.574 47.8234 115.319 47.2902C115.065 46.7568 114.98 46.4902 114.471 45.8427C113.962 45.1953 113.834 45.119 113.834 45.119C113.834 45.119 113.24 44.281 112.223 43.1764C111.205 42.0718 110.908 42.7573 110.908 41.5004C110.908 40.2432 111.162 40.2432 110.908 39.3672C110.653 38.4912 110.06 38.072 110.568 37.9198C111.077 37.7675 111.374 37.5389 110.441 36.8152C109.508 36.0914 109.169 36.4723 108.829 35.482C108.49 34.4917 109.211 34.5677 107.811 34.1106C106.412 33.6534 106.242 33.2725 105.606 33.006C104.969 32.7394 104.588 32.5871 104.588 32.5871C104.588 32.5871 104.715 32.4728 103.188 32.3585C101.661 32.2442 101.831 31.5968 100.685 32.0157C99.54 32.4348 99.3705 32.5108 99.3705 32.5108C99.3705 32.5108 100.007 31.8251 98.9041 31.9014C97.8014 31.9777 98.0556 32.2062 98.0133 32.6634C97.971 33.1205 98.1405 33.6537 97.377 33.9205C96.6135 34.1871 95.5108 34.9108 95.9349 34.1491C96.3589 33.3871 97.4193 32.8539 97.0375 32.6634C96.6558 32.4728 95.8499 33.0822 95.765 32.4728C95.68 31.8634 95.8499 31.5585 94.9591 31.5205C94.0683 31.4825 93.3474 31.1396 94.026 30.8728C94.7046 30.6062 95.3409 30.7205 95.5531 30.0728C95.7653 29.4251 97.3347 29.2728 95.5954 29.311C93.8565 29.349 93.0929 29.3491 93.3051 29.0445C93.5173 28.7396 93.4324 28.1684 94.6623 28.3207C95.8929 28.4722 95.8929 28.0151 95.596 27.7105Z"
            fill="#040000" />
    </g>
    <path
        d="M26.0341 60.1707C25.8474 59.7937 25.6144 59.4795 25.3111 59.2281C24.9845 58.9766 24.6346 58.7883 24.2145 58.6415C23.8181 58.5156 23.3746 58.4531 22.9316 58.4531C22.4648 58.4531 22.0218 58.5159 21.6253 58.6415C21.5787 58.6624 21.5087 58.6834 21.4618 58.7046C21.1353 58.8513 20.8087 59.0185 20.552 59.2284C20.2255 59.4798 19.9921 59.794 19.8054 60.171C19.6186 60.5274 19.5254 60.9672 19.5254 61.4282V65.6604C19.5254 66.1423 19.6186 66.5612 19.8054 66.9382C19.9918 67.3155 20.2251 67.6088 20.552 67.8811C20.8553 68.1326 21.2285 68.3209 21.625 68.4465C22.0214 68.5724 22.4648 68.6351 22.9312 68.6351C23.1413 68.6351 23.3747 68.6142 23.5844 68.5933C23.7944 68.5514 24.0275 68.5093 24.2142 68.4465C24.6343 68.3209 24.9842 68.1326 25.3108 67.8811C25.614 67.6088 25.8474 67.3155 26.0338 66.9382C26.2206 66.5612 26.3138 66.1423 26.3138 65.6604V61.4282C26.3141 60.9669 26.2209 60.5268 26.0341 60.1707ZM24.2845 65.6392C24.2845 66.079 24.1446 66.3932 23.9113 66.6449C23.6779 66.8545 23.398 66.9798 23.0481 67.001H22.9316C22.5118 67.001 22.1849 66.8751 21.9285 66.6449C21.6952 66.3932 21.5554 66.0792 21.5554 65.6392V61.47C21.5554 61.386 21.5554 61.3232 21.5787 61.2605C21.5787 61.2395 21.602 61.2186 21.602 61.2186C21.6253 60.9047 21.7418 60.6739 21.9285 60.4643C21.9751 60.4227 22.0218 60.3806 22.0684 60.3597C22.3017 60.171 22.5817 60.1079 22.9316 60.1079C23.3283 60.1079 23.6546 60.2129 23.9116 60.4643C24.1449 60.7157 24.2848 61.0509 24.2848 61.47L24.2845 65.6392Z"
        fill="#CECECF" />
    <path
        d="M31.4466 58.5352L29.1836 60.3161V62.2854L31.4466 60.5047V68.5497H33.4996V58.5352H31.4466Z"
        fill="#CECECF" />
    <path
        d="M37.2549 58.5352V61.7616H39.1913V60.1903H42.1538L38.5146 68.5497H40.7307L44.3466 60.1903V58.5352H37.2549Z"
        fill="#CECECF" />
    <path
        d="M52.7456 60.1707C52.5588 59.7937 52.3258 59.4795 52.0225 59.2281C51.6959 58.9766 51.3461 58.7883 50.926 58.6415C50.5062 58.5156 50.0861 58.4531 49.643 58.4531C49.1763 58.4531 48.7332 58.5159 48.3367 58.6415C47.9169 58.7883 47.5667 58.9766 47.2634 59.2281C46.9369 59.4795 46.6802 59.7937 46.5168 60.1707C46.3303 60.5271 46.2368 60.9669 46.2368 61.4279V65.6601C46.2368 66.142 46.3303 66.5609 46.5168 66.9379C46.6802 67.3152 46.9369 67.6085 47.2634 67.8808C47.5667 68.1323 47.9166 68.3206 48.3367 68.4462C48.7332 68.5721 49.1766 68.6349 49.643 68.6349C50.0861 68.6349 50.5062 68.5721 50.926 68.4462C51.3458 68.3206 51.6959 68.1323 52.0225 67.8808C52.3258 67.6085 52.5591 67.3152 52.7456 66.9379C52.932 66.5609 53.0255 66.142 53.0255 65.6601V61.4279C53.0252 60.9669 52.932 60.5268 52.7456 60.1707ZM50.9726 65.6392C50.9726 66.079 50.856 66.3932 50.6227 66.6449C50.366 66.8751 50.0395 67.001 49.643 67.001C49.2232 67.001 48.8966 66.8751 48.64 66.6449C48.4069 66.3932 48.2668 66.0792 48.2668 65.6392V61.47C48.2668 61.0509 48.4069 60.7155 48.64 60.4643C48.8966 60.2129 49.2232 60.1079 49.643 60.1079C50.0395 60.1079 50.366 60.2129 50.6227 60.4643C50.856 60.7157 50.9726 61.0509 50.9726 61.47V65.6392Z"
        fill="#CECECF" />
    <path
        d="M69.8217 64.2757C69.6818 63.8987 69.4485 63.5844 69.1685 63.333C68.8885 63.0816 68.5853 62.8932 68.2354 62.7464C67.8855 62.6209 67.512 62.5578 67.1389 62.5578C66.999 62.5578 66.8589 62.5578 66.7191 62.5787C66.5792 62.5996 66.4391 62.6206 66.3226 62.6834L67.0922 61.3218L68.6319 58.5352H66.4158L66.1824 58.9543V58.9752L65.9025 59.4781L64.0596 62.872C64.0363 62.9139 64.013 62.956 63.9897 62.9979C63.7563 63.4167 63.5699 63.8147 63.4064 64.2129C63.2197 64.6318 63.1265 65.093 63.1265 65.5538C63.1265 66.0357 63.1964 66.4755 63.3831 66.8734C63.5699 67.2507 63.8029 67.5859 64.1298 67.8373C64.3631 68.0469 64.5962 68.1937 64.8995 68.3192H64.9228C65.0163 68.3611 65.1328 68.4032 65.226 68.4448C65.6458 68.5707 66.1125 68.6335 66.6025 68.6335C67.0922 68.6335 67.5357 68.5707 67.9554 68.4242C68.3985 68.2983 68.7487 68.089 69.0753 67.8164L69.0986 67.7954C69.4019 67.5231 69.6352 67.2301 69.7984 66.8318C69.9851 66.4546 70.0783 66.0148 70.0783 65.5119C70.0783 65.0509 69.9851 64.6527 69.8217 64.2757ZM66.6025 64.0664C67.0456 64.0664 67.3955 64.192 67.6525 64.4643C67.9091 64.7157 68.049 65.093 68.049 65.5328C68.049 65.9936 67.9091 66.3706 67.6292 66.6223C67.3492 66.8734 67.0226 66.9993 66.6025 66.9993C66.1828 66.9993 65.8326 66.8734 65.5526 66.6223C65.2959 66.3706 65.1561 65.9936 65.1561 65.5328C65.1561 65.0718 65.2959 64.6948 65.5526 64.4434C65.8326 64.192 66.1824 64.0664 66.6025 64.0664Z"
        fill="#CECECF" />
    <path
        d="M78.8265 63.7725C78.7333 63.3327 78.453 62.8927 78.0099 62.5159C77.7766 62.3061 77.4969 62.1386 77.1467 62.0128C76.7968 61.8872 76.4003 61.8244 75.9103 61.8244C75.5372 61.8244 75.2106 61.8875 74.9073 61.9921C74.604 62.0968 74.394 62.2014 74.2542 62.3273V60.1903H78.7566V58.5352H72.388V64.192H74.2542C74.3241 64.0036 74.4642 63.8147 74.674 63.6472C74.8138 63.5217 74.9772 63.4377 75.2106 63.4167C75.3271 63.3749 75.4672 63.3749 75.6071 63.3749C76.1201 63.3749 76.4703 63.5426 76.6567 63.8356C76.8667 64.1498 76.9833 64.5902 76.9833 65.1765C76.9833 65.4907 76.9367 65.784 76.8897 66.0566C76.8897 66.0985 76.8664 66.1194 76.8431 66.1406C76.8431 66.1615 76.8431 66.1615 76.8431 66.1615C76.7732 66.3708 76.68 66.5386 76.5399 66.6644C76.2832 66.8946 75.9799 66.9996 75.5602 66.9996C75.1404 66.9996 74.8135 66.8946 74.6037 66.6644C74.3937 66.4546 74.2539 66.1615 74.2073 65.7633H72.1543C72.2009 66.1197 72.2708 66.4755 72.3877 66.8318C72.5042 67.2091 72.7142 67.5231 73.0641 67.8376C73.2975 68.0681 73.6473 68.2358 74.0674 68.4032C74.4639 68.5707 74.9772 68.6337 75.5605 68.6337C75.7705 68.6337 75.9336 68.6337 76.0971 68.5919H76.1204C76.4703 68.5709 76.7735 68.5079 77.0535 68.4035C77.45 68.2361 77.7766 68.0471 78.0332 67.8379C78.43 67.4606 78.6864 67.0626 78.8265 66.6438C78.943 66.2246 79.0132 65.7427 79.0132 65.177C79.0132 64.6945 78.943 64.2335 78.8265 63.7725Z"
        fill="#CECECF" />
    <path
        d="M80.9492 58.5352V61.7616H82.8857V60.1903H85.8484L82.2325 68.5497H84.4253L88.0645 60.1903V58.5352H80.9492Z"
        fill="#CECECF" />
    <path
        d="M96.5557 60.2338C96.3923 59.8359 96.1359 59.5216 95.8327 59.2493C95.5061 58.9978 95.1562 58.7883 94.7131 58.6627C94.2933 58.5159 93.8499 58.4531 93.3599 58.4531C92.8702 58.4531 92.4035 58.5159 91.9837 58.6627C91.5639 58.8095 91.1904 59.0188 90.8639 59.2702C90.5606 59.5423 90.3272 59.878 90.1408 60.2547C89.9544 60.6527 89.8608 61.0927 89.8608 61.5747C89.8608 62.0566 89.9544 62.4758 90.1175 62.8316C90.2809 63.1879 90.5143 63.5021 90.7706 63.7533C91.0506 64.005 91.3772 64.2143 91.7271 64.3399C92.0769 64.4867 92.4501 64.5497 92.8236 64.5497C92.9634 64.5497 93.1036 64.5497 93.2434 64.5288C93.3832 64.5079 93.5234 64.4657 93.6399 64.4239L91.3303 68.5511H93.5464L95.9026 64.2355C96.1592 63.7745 96.3693 63.3135 96.5557 62.8946C96.7425 62.4548 96.8357 62.0148 96.8357 61.5537C96.8357 61.0509 96.7425 60.6108 96.5557 60.2338ZM94.3862 62.6432C94.1063 62.8946 93.7797 63.0205 93.3599 63.0205C92.9168 63.0205 92.5669 62.8946 92.31 62.6432C92.03 62.3708 91.9135 62.0145 91.9135 61.5747C91.9135 61.0927 92.0533 60.7367 92.31 60.4852C92.5899 60.2338 92.9398 60.1079 93.3599 60.1079C93.7797 60.1079 94.1063 60.2338 94.3862 60.4852C94.6662 60.7367 94.7827 61.0927 94.7827 61.5747C94.783 62.0357 94.6662 62.3918 94.3862 62.6432Z"
        fill="#CECECF" />
    <path
        d="M109.923 58.5352L107.637 60.3161V62.2854L109.923 60.5047V68.5497H111.953V58.5352H109.923Z"
        fill="#CECECF" />
    <path
        d="M115.708 58.5352V61.7616H117.667V60.1903H120.607L116.991 68.5497H119.207L122.823 60.1903V58.5352H115.708Z"
        fill="#CECECF" />
    <path
        d="M127.722 58.5352L125.459 60.3161V62.2854L127.722 60.5047V68.5497H129.775V58.5352H127.722Z"
        fill="#CECECF" />
    <path
        d="M140.226 60.2338C140.063 59.8359 139.807 59.5216 139.503 59.2493C139.177 58.9978 138.827 58.7883 138.384 58.6627C137.964 58.5159 137.52 58.4531 137.031 58.4531C136.541 58.4531 136.074 58.5159 135.654 58.6627C135.234 58.8095 134.861 59.0188 134.534 59.2702C134.231 59.5423 133.974 59.878 133.811 60.2547C133.624 60.6527 133.531 61.0927 133.531 61.5747C133.531 62.0566 133.624 62.4758 133.788 62.8316C133.951 63.1879 134.184 63.5021 134.441 63.7533C134.721 64.005 135.024 64.2143 135.397 64.3399C135.747 64.4867 136.121 64.5497 136.494 64.5497C136.634 64.5497 136.774 64.5497 136.913 64.5288C137.054 64.5079 137.193 64.4657 137.31 64.4239L135.001 68.5511H137.217L139.573 64.2355C139.83 63.7745 140.04 63.3135 140.226 62.8946C140.413 62.4548 140.506 62.0148 140.506 61.5537C140.506 61.0509 140.413 60.6108 140.226 60.2338ZM138.057 62.6432C137.777 62.8946 137.45 63.0205 137.031 63.0205C136.588 63.0205 136.237 62.8946 135.981 62.6432C135.701 62.3708 135.584 62.0145 135.584 61.5747C135.584 61.0927 135.724 60.7367 135.981 60.4852C136.261 60.2338 136.611 60.1079 137.031 60.1079C137.45 60.1079 137.777 60.2338 138.057 60.4852C138.337 60.7367 138.453 61.0927 138.453 61.5747C138.453 62.0357 138.337 62.3918 138.057 62.6432Z"
        fill="#CECECF" />
    <path
        d="M99.1689 84.9134C99.0291 84.641 98.8423 84.4105 98.6323 84.2219C98.3989 84.0335 98.1423 83.8867 97.839 83.803C97.5357 83.6981 97.2092 83.6562 96.8826 83.6562C96.5327 83.6562 96.2294 83.6981 95.9262 83.803C95.6229 83.887 95.3663 84.0335 95.1329 84.2219C94.8995 84.4105 94.7131 84.641 94.573 84.9134C94.4564 85.1858 94.3862 85.5 94.3862 85.8351V88.9358C94.3862 89.2921 94.4561 89.6063 94.573 89.8787C94.7131 90.1511 94.8995 90.3816 95.1329 90.5699C95.3663 90.7586 95.6229 90.9051 95.9262 90.9888C96.2294 91.0937 96.5327 91.1356 96.8826 91.1356C97.2092 91.1356 97.5357 91.0937 97.839 90.9888C98.1423 90.9051 98.3989 90.7586 98.6323 90.5699C98.8423 90.3816 99.0288 90.1511 99.1689 89.8787C99.309 89.6063 99.3556 89.2921 99.3556 88.9358V85.8351C99.3556 85.5003 99.309 85.186 99.1689 84.9134ZM97.8626 88.936C97.8626 89.2503 97.7694 89.4808 97.606 89.6694C97.4192 89.8368 97.1862 89.9206 96.8829 89.9206C96.5796 89.9206 96.3463 89.8368 96.1598 89.6694C95.9731 89.4808 95.8799 89.2503 95.8799 88.936V85.8563C95.8799 85.5633 95.9731 85.3116 96.1598 85.123C96.3466 84.9555 96.5796 84.8715 96.8829 84.8715C97.1862 84.8715 97.4195 84.9555 97.606 85.123C97.7694 85.3116 97.8626 85.5631 97.8626 85.8563V88.936Z"
        fill="#CECECF" />
    <path
        d="M105.841 87.5739C105.771 87.2388 105.561 86.9243 105.234 86.631C105.071 86.4845 104.861 86.3586 104.605 86.2747C104.348 86.17 104.045 86.1281 103.695 86.1281C103.438 86.1281 103.182 86.17 102.972 86.2537C102.738 86.3165 102.575 86.4005 102.482 86.5054V84.9131H105.795V83.7188H101.106V87.867H102.482C102.529 87.7204 102.645 87.5949 102.785 87.469C102.948 87.3432 103.158 87.2597 103.485 87.2597C103.835 87.2597 104.092 87.3853 104.255 87.6161C104.395 87.8463 104.465 88.1608 104.465 88.6006C104.465 88.8311 104.465 89.0404 104.418 89.2293C104.372 89.4177 104.278 89.5645 104.162 89.69C103.975 89.8575 103.742 89.9203 103.438 89.9203C103.135 89.9203 102.879 89.8575 102.739 89.69C102.575 89.5223 102.482 89.3128 102.435 89.0195H100.942C100.966 89.2918 101.012 89.5433 101.106 89.8156C101.199 90.0671 101.362 90.3185 101.619 90.5487C101.782 90.6955 102.039 90.842 102.342 90.9676C102.645 91.0725 103.019 91.1353 103.438 91.1353C103.858 91.1353 104.232 91.0725 104.535 90.9676C104.815 90.842 105.072 90.6955 105.258 90.5278C105.538 90.2766 105.748 89.9831 105.841 89.6691C105.934 89.3758 105.981 88.9985 105.981 88.6006C105.981 88.2445 105.934 87.9091 105.841 87.5739Z"
        fill="#CECECF" />
    <path d="M110.11 82.9453L106.82 91.8495H108.22L111.509 82.9453H110.11Z" fill="#CECECF" />
    <path
        d="M114.612 83.7188L112.933 85.018V86.4636L114.612 85.1646V91.0725H116.105V83.7188H114.612Z"
        fill="#CECECF" />
    <path
        d="M121.145 83.7188L119.465 85.018V86.4636L121.145 85.1646V91.0725H122.638V83.7188H121.145Z"
        fill="#CECECF" />
    <path d="M125.507 87.4922V88.7491H129.053V87.4922H125.507Z" fill="#CECECF" />
    <path
        d="M135.445 84.9134C135.305 84.641 135.118 84.4105 134.885 84.2219C134.675 84.0335 134.395 83.8867 134.092 83.803C133.789 83.6981 133.486 83.6562 133.159 83.6562C132.809 83.6562 132.506 83.6981 132.203 83.803C131.899 83.887 131.643 84.0335 131.409 84.2219C131.176 84.4105 130.989 84.641 130.849 84.9134C130.71 85.1858 130.663 85.5 130.663 85.8351V88.9358C130.663 89.2921 130.709 89.6063 130.849 89.8787C130.989 90.1511 131.176 90.3816 131.409 90.5699C131.643 90.7586 131.899 90.9051 132.203 90.9888C132.506 91.0937 132.809 91.1356 133.159 91.1356C133.486 91.1356 133.789 91.0937 134.092 90.9888C134.395 90.9051 134.675 90.7586 134.885 90.5699C135.118 90.3816 135.305 90.1511 135.445 89.8787C135.561 89.6063 135.631 89.2921 135.631 88.9358V85.8351C135.631 85.5003 135.561 85.186 135.445 84.9134ZM134.138 88.936C134.138 89.2503 134.045 89.4808 133.858 89.6694C133.695 89.8368 133.439 89.9206 133.159 89.9206C132.855 89.9206 132.599 89.8368 132.436 89.6694C132.249 89.4808 132.156 89.2503 132.156 88.936V85.8563C132.156 85.5633 132.249 85.3116 132.436 85.123C132.599 84.9555 132.855 84.8715 133.159 84.8715C133.439 84.8715 133.695 84.9555 133.858 85.123C134.045 85.3116 134.138 85.5631 134.138 85.8563V88.936Z"
        fill="#CECECF" />
    <path
        d="M141.977 84.9134C141.837 84.641 141.65 84.4105 141.44 84.2219C141.207 84.0335 140.95 83.8867 140.647 83.803C140.344 83.6981 140.017 83.6562 139.69 83.6562C139.341 83.6562 139.037 83.6981 138.734 83.803C138.431 83.887 138.174 84.0335 137.941 84.2219C137.708 84.4105 137.521 84.641 137.381 84.9134C137.264 85.1858 137.194 85.5 137.194 85.8351V88.9358C137.194 89.2921 137.264 89.6063 137.381 89.8787C137.521 90.1511 137.707 90.3816 137.941 90.5699C138.174 90.7586 138.431 90.9051 138.734 90.9888C139.037 91.0937 139.341 91.1356 139.69 91.1356C140.017 91.1356 140.344 91.0937 140.647 90.9888C140.95 90.9051 141.207 90.7586 141.44 90.5699C141.65 90.3816 141.837 90.1511 141.977 89.8787C142.117 89.6063 142.163 89.2921 142.163 88.9358V85.8351C142.163 85.5003 142.117 85.186 141.977 84.9134ZM140.67 88.936C140.67 89.2503 140.577 89.4808 140.414 89.6694C140.227 89.8368 139.994 89.9206 139.691 89.9206C139.388 89.9206 139.154 89.8368 138.968 89.6694C138.781 89.4808 138.688 89.2503 138.688 88.936V85.8563C138.688 85.5633 138.781 85.3116 138.968 85.123C139.154 84.9555 139.388 84.8715 139.691 84.8715C139.994 84.8715 140.227 84.9555 140.414 85.123C140.577 85.3116 140.67 85.5631 140.67 85.8563V88.936Z"
        fill="#CECECF" />
    <path d="M20.6919 71.1289V71.7995H21.8117V74.9632H22.6516V71.7995H23.7715V71.1289H20.6919Z"
        fill="#CECECF" />
    <path
        d="M27.5507 72.1335C27.5041 72.0079 27.4805 71.9033 27.4109 71.7984C27.3643 71.6935 27.2707 71.5885 27.1542 71.4841C27.0144 71.3586 26.851 71.2536 26.6645 71.1909C26.4778 71.1281 26.2677 71.0859 26.0347 71.0859C25.778 71.0859 25.568 71.1278 25.3815 71.1909C25.1951 71.2536 25.0317 71.3586 24.8918 71.4841C24.7753 71.5888 24.6818 71.6937 24.6352 71.7984C24.5649 71.9033 24.5416 72.0079 24.4953 72.1335C24.472 72.2594 24.472 72.4062 24.4487 72.5527V73.5372C24.472 73.6837 24.472 73.8095 24.4953 73.9354C24.5419 74.061 24.5653 74.1868 24.6352 74.2915C24.6818 74.3755 24.775 74.4801 24.8918 74.5848C25.0317 74.7106 25.1951 74.8153 25.3815 74.8781C25.5683 74.9621 25.7783 74.983 26.0347 74.983C26.268 74.983 26.4781 74.9621 26.6645 74.8781C26.851 74.8153 27.0144 74.7106 27.1542 74.5848C27.2707 74.4801 27.3643 74.3752 27.4109 74.2915C27.4808 74.1868 27.5041 74.061 27.5507 73.9354C27.574 73.8095 27.5973 73.6837 27.5973 73.5372V72.5527C27.5973 72.4059 27.574 72.2594 27.5507 72.1335ZM26.7574 73.4956C26.7574 73.6212 26.7341 73.7049 26.7108 73.7886C26.7108 73.8726 26.6875 73.9354 26.6642 73.9773C26.6409 74.0191 26.594 74.061 26.5474 74.1028C26.5008 74.1659 26.4309 74.2284 26.3376 74.2493C26.2444 74.2912 26.1509 74.3121 26.0344 74.3121C25.9178 74.3121 25.8013 74.2912 25.7078 74.2493C25.6379 74.2284 25.5444 74.1656 25.4748 74.1028C25.4514 74.061 25.4045 74.0191 25.3812 73.9773C25.3579 73.9354 25.3346 73.8723 25.3346 73.7886C25.3113 73.7046 25.288 73.6212 25.288 73.4956V72.5736C25.288 72.469 25.3113 72.364 25.3346 72.2803C25.3346 72.1963 25.3579 72.1335 25.3812 72.0919C25.4045 72.0501 25.4511 72.0079 25.4748 71.9661C25.5447 71.9033 25.6382 71.8614 25.7078 71.8196C25.8013 71.7777 25.9178 71.7568 26.0344 71.7568C26.1509 71.7568 26.2444 71.7777 26.3376 71.8196C26.4309 71.8614 26.5011 71.9036 26.5474 71.9661C26.594 72.0079 26.6409 72.0501 26.6642 72.0919C26.6875 72.1335 26.7108 72.1966 26.7108 72.2803C26.7341 72.3643 26.7574 72.469 26.7574 72.5736V73.4956Z"
        fill="#CECECF" />
    <path
        d="M31.5629 71.8625C31.5163 71.7158 31.423 71.5899 31.2829 71.4853C31.1664 71.3597 31.0262 71.276 30.8398 71.2129C30.6764 71.1498 30.4666 71.1289 30.2566 71.1289H28.6001V74.9632H29.44V73.5176H30.2563C30.4663 73.5176 30.6761 73.4758 30.8395 73.4127C31.0262 73.3497 31.1661 73.2659 31.2826 73.161C31.4227 73.0564 31.5159 72.9308 31.5626 72.784C31.6328 72.6372 31.6558 72.4701 31.6558 72.3233C31.6561 72.1558 31.6331 72.0093 31.5629 71.8625ZM30.6764 72.7006C30.5598 72.7846 30.3964 72.8473 30.2097 72.8473H29.44V71.7998H30.2097C30.3964 71.7998 30.5595 71.8416 30.6764 71.9256C30.7696 72.0303 30.8398 72.1558 30.8398 72.3235C30.8398 72.4703 30.7696 72.5959 30.6764 72.7006Z"
        fill="#CECECF" />
    <path
        d="M35.3189 71.7995V71.1289H32.5195V74.9632H35.3189V74.2926H33.3594V73.3499H35.0389V72.6793H33.3594V71.7995H35.3189Z"
        fill="#CECECF" />
    <path
        d="M38.2115 74.1651C38.095 74.2697 37.9316 74.3116 37.7218 74.3116C37.6053 74.3116 37.5118 74.2907 37.4186 74.2697C37.3253 74.2279 37.2551 74.186 37.1852 74.1232C37.1619 74.0814 37.1153 74.0395 37.092 73.9767C37.0687 73.9349 37.0454 73.8718 37.0221 73.7881C37.0221 73.7041 36.9988 73.6206 36.9988 73.4951C36.9988 73.3692 36.9755 73.2224 36.9755 73.0341C36.9755 72.8457 36.9988 72.6989 36.9988 72.5733C36.9988 72.4687 37.0221 72.3637 37.0221 72.28C37.0454 72.196 37.0687 72.1333 37.092 72.0917C37.1153 72.0498 37.1619 71.9867 37.1852 71.9658C37.2551 71.903 37.3253 71.8402 37.4186 71.8193C37.5118 71.7774 37.6053 71.7565 37.7218 71.7565C37.9316 71.7565 38.095 71.7984 38.2115 71.9033C38.3284 72.008 38.3983 72.1335 38.4449 72.3012H39.2848C39.2149 71.9033 39.0281 71.5888 38.7481 71.4004C38.4682 71.1906 38.1183 71.0859 37.7218 71.0859C37.4885 71.0859 37.2551 71.1278 37.0687 71.1909C36.9052 71.2537 36.7188 71.3586 36.579 71.4842C36.4854 71.5888 36.3922 71.6937 36.3223 71.7984C36.2757 71.9033 36.2291 72.0079 36.2058 72.1335C36.1825 72.2594 36.1592 72.4062 36.1592 72.5527V73.5372C36.1592 73.6837 36.1825 73.8096 36.2058 73.9354C36.2291 74.061 36.276 74.1868 36.3223 74.2915C36.3925 74.3755 36.4858 74.4801 36.579 74.5848C36.7188 74.7106 36.9055 74.8153 37.0687 74.8781C37.2554 74.9621 37.4885 74.983 37.7218 74.983C38.1183 74.983 38.4685 74.8781 38.7481 74.6897C39.0281 74.4801 39.2149 74.1868 39.2848 73.7677H38.4449C38.3983 73.9346 38.3284 74.0602 38.2115 74.1651Z"
        fill="#CECECF" />
    <path
        d="M43.1572 72.5527C43.1572 72.4062 43.1339 72.2594 43.1106 72.1335C43.0873 72.0079 43.0404 71.9033 42.9708 71.7984C42.9241 71.6935 42.8309 71.5885 42.7374 71.4841C42.5976 71.3586 42.4341 71.2536 42.2477 71.1909C42.061 71.1281 41.8509 71.0859 41.5946 71.0859C41.3379 71.0859 41.1278 71.1278 40.9414 71.1909C40.7547 71.2536 40.5915 71.3586 40.4514 71.4841C40.3349 71.5888 40.2647 71.6937 40.1947 71.7984C40.1481 71.9033 40.1012 72.0079 40.0782 72.1335C40.0549 72.2594 40.0316 72.4062 40.0316 72.5527C40.0316 72.6992 40.0083 72.846 40.0083 73.0346C40.0083 73.223 40.0316 73.391 40.0316 73.5375C40.0316 73.684 40.0549 73.8098 40.0782 73.9357C40.1015 74.0613 40.1481 74.1871 40.1947 74.2918C40.2647 74.3758 40.3346 74.4804 40.4514 74.585C40.5912 74.7109 40.7547 74.8156 40.9414 74.8783C41.1278 74.9623 41.3379 74.9833 41.5946 74.9833C41.8512 74.9833 42.0613 74.9623 42.2477 74.8783C42.4341 74.8156 42.5976 74.7109 42.7374 74.585C42.8309 74.4804 42.9241 74.3755 42.9708 74.2918C43.0407 74.1871 43.0873 74.0613 43.1106 73.9357C43.1339 73.8098 43.1572 73.684 43.1572 73.5375C43.1572 73.391 43.1805 73.2232 43.1805 73.0346C43.1805 72.846 43.1572 72.6992 43.1572 72.5527ZM42.3173 73.4956C42.3173 73.6212 42.294 73.7049 42.294 73.7886C42.2707 73.8726 42.2474 73.9354 42.2241 73.9773C42.2008 74.0191 42.1775 74.061 42.1309 74.1028C42.0606 74.1659 41.991 74.2284 41.8975 74.2493C41.8043 74.2912 41.7108 74.3121 41.5942 74.3121C41.4777 74.3121 41.3845 74.2912 41.291 74.2493C41.1978 74.2284 41.1275 74.1656 41.0576 74.1028C41.011 74.061 40.9877 74.0191 40.9644 73.9773C40.9178 73.9354 40.9178 73.8723 40.8942 73.7886C40.8709 73.7046 40.8709 73.6212 40.8476 73.4956V72.5736C40.8709 72.469 40.8709 72.364 40.8942 72.2803C40.9175 72.1963 40.9175 72.1335 40.9644 72.0919C40.9877 72.0501 41.011 72.0079 41.0576 71.9661C41.1275 71.9033 41.1975 71.8614 41.291 71.8196C41.3845 71.7777 41.4777 71.7568 41.5942 71.7568C41.7108 71.7568 41.8043 71.7777 41.8975 71.8196C41.991 71.8614 42.061 71.9036 42.1309 71.9661C42.1775 72.0079 42.2008 72.0501 42.2241 72.0919C42.2474 72.1335 42.2707 72.1966 42.294 72.2803C42.294 72.3643 42.3173 72.469 42.3173 72.5736C42.3406 72.6992 42.3406 72.846 42.3406 73.0343C42.3406 73.223 42.3406 73.3698 42.3173 73.4956Z"
        fill="#CECECF" />
    <path
        d="M46.6096 71.1289V73.4755L44.9068 71.1289H44.1602V74.9632H45V72.5956L46.7028 74.9632H47.4492V71.1289H46.6096Z"
        fill="#CECECF" />
    <path
        d="M53.1649 73.4962C53.1183 73.3912 53.0484 73.2863 52.9548 73.2026C52.9082 73.1607 52.8616 73.1189 52.815 73.0979C52.7684 73.0561 52.7218 73.0352 52.6286 72.9933C52.9784 72.8047 53.1652 72.5532 53.1652 72.1759C53.1652 72.0085 53.1186 71.8617 53.072 71.7361C53.002 71.6103 52.9085 71.5056 52.792 71.4013C52.6988 71.3382 52.6289 71.2963 52.512 71.2545C52.4887 71.2336 52.4421 71.2126 52.3955 71.1917C52.2088 71.1498 52.0456 71.1289 51.8356 71.1289H50.1328V74.9632H51.9058C52.1156 74.9632 52.3023 74.9213 52.4424 74.8792C52.6059 74.8164 52.7457 74.7533 52.8622 74.6487C52.9787 74.565 53.0723 74.4391 53.1189 74.3135C53.1888 74.1879 53.2124 74.0205 53.2124 73.8528C53.2115 73.7264 53.1882 73.6005 53.1649 73.4962ZM50.9485 71.7989H51.7651C51.8117 71.7989 51.8586 71.7989 51.8819 71.8199C52.0217 71.8199 52.0916 71.8408 52.1852 71.9039C52.2784 71.9876 52.325 72.0925 52.325 72.239C52.325 72.3649 52.2784 72.4698 52.1852 72.5532C52.0683 72.6369 51.9518 72.6788 51.7651 72.6788H50.9485V71.7989ZM52.2318 74.1665C52.1385 74.2502 51.9984 74.292 51.8353 74.292H50.9488V73.3494H51.8353C51.9987 73.3494 52.1385 73.3912 52.2318 73.4752C52.3253 73.559 52.3952 73.6639 52.3952 73.8104C52.3949 73.9569 52.325 74.0825 52.2318 74.1665Z"
        fill="#CECECF" />
    <path
        d="M55.9646 71.1289H55.3115L53.7485 74.9632H54.6117L54.8684 74.2717H56.3847L56.6414 74.9632H57.5046L55.9646 71.1289ZM55.1014 73.6432L55.6614 72.2605L56.1747 73.6432H55.1014Z"
        fill="#CECECF" />
    <path
        d="M60.6302 71.1289V73.4755L58.9272 71.1289H58.2041V74.9632H59.0207V72.5956L60.7238 74.9632H61.4704V71.1289H60.6302Z"
        fill="#CECECF" />
    <path
        d="M64.5497 72.6372L65.9492 71.1289H64.9462L63.4299 72.784V71.1289H62.6133V74.9632H63.4299V73.8107L63.9898 73.2029L65.086 74.9629H66.0657L64.5497 72.6372Z"
        fill="#CECECF" />
    <path
        d="M109.107 47.1185C108.99 47.2234 108.827 47.2653 108.617 47.2653C108.5 47.2653 108.407 47.2443 108.314 47.2022C108.22 47.1813 108.15 47.1182 108.081 47.0763C108.057 47.0345 108.011 46.9923 107.987 46.9298C107.964 46.888 107.941 46.8249 107.917 46.7415C107.917 46.6575 107.894 46.5528 107.894 46.4479C107.894 46.3223 107.871 46.1758 107.871 45.9872C107.871 45.7985 107.894 45.652 107.894 45.5262C107.894 45.4003 107.917 45.3166 107.917 45.2332C107.941 45.1492 107.964 45.0864 107.987 45.0445C108.011 44.9817 108.057 44.9396 108.081 44.8977C108.15 44.8352 108.22 44.7931 108.314 44.7512C108.407 44.7303 108.5 44.7096 108.617 44.7096C108.827 44.7096 108.99 44.7512 109.107 44.8561C109.223 44.9608 109.294 45.0866 109.34 45.2541H110.18C110.11 44.8352 109.923 44.5419 109.643 44.3324C109.364 44.144 109.014 44.0391 108.617 44.0391C108.384 44.0391 108.15 44.0809 107.987 44.144C107.801 44.2068 107.637 44.3114 107.474 44.437C107.381 44.5419 107.288 44.6466 107.241 44.7512C107.171 44.8352 107.124 44.9605 107.101 45.0864C107.078 45.2122 107.054 45.3378 107.054 45.4843V46.49C107.054 46.6368 107.078 46.7627 107.101 46.8883C107.124 47.0138 107.171 47.1188 107.241 47.2234C107.287 47.3283 107.381 47.433 107.474 47.5374C107.637 47.6632 107.801 47.7681 107.987 47.8309C108.151 47.8937 108.384 47.9356 108.617 47.9356C109.014 47.9356 109.364 47.8309 109.643 47.6213C109.923 47.433 110.11 47.1185 110.18 46.7205H109.34C109.294 46.888 109.223 47.0136 109.107 47.1185Z"
        fill="#CECECF" />
    <path
        d="M113.329 46.2378C113.446 46.2168 113.539 46.1747 113.632 46.1119C113.726 46.0488 113.819 45.9861 113.889 45.9023C113.959 45.8183 114.006 45.714 114.052 45.609C114.076 45.546 114.099 45.4623 114.099 45.3785C114.122 45.3367 114.122 45.2736 114.122 45.232C114.122 45.0853 114.076 44.9175 114.029 44.792C113.959 44.6454 113.866 44.5196 113.749 44.4147C113.632 44.31 113.492 44.2263 113.306 44.1635C113.213 44.1217 113.143 44.1005 113.026 44.0795H113.003C112.909 44.0586 112.816 44.0586 112.723 44.0586H111.066V47.8926H111.883V46.3633H112.49L113.329 47.8926H114.286L113.329 46.2378ZM113.119 45.609C113.003 45.693 112.863 45.7558 112.676 45.7558H111.883V44.7289H112.676C112.863 44.7289 113.003 44.7708 113.119 44.8754C113.236 44.9594 113.283 45.0853 113.283 45.232C113.282 45.3995 113.236 45.5044 113.119 45.609Z"
        fill="#CECECF" />
    <path
        d="M117.948 44.7289V44.0586H115.125V47.8926H117.948V47.2223H115.965V46.3003H117.645V45.63H115.965V44.7289H117.948Z"
        fill="#CECECF" />
    <path
        d="M121.984 45.2945C121.984 45.2527 121.961 45.2108 121.961 45.1899C121.961 45.085 121.914 44.9803 121.891 44.8963C121.844 44.7917 121.797 44.708 121.727 44.6242C121.587 44.4356 121.401 44.2891 121.191 44.2051C120.981 44.1214 120.748 44.0586 120.444 44.0586H118.904V47.8926H120.444C120.747 47.8926 120.981 47.851 121.191 47.767C121.307 47.7251 121.401 47.6621 121.494 47.5993C121.587 47.5362 121.657 47.4528 121.727 47.3479C121.797 47.2641 121.844 47.1804 121.891 47.0755C121.914 46.9915 121.961 46.8871 121.961 46.7825C121.984 46.6776 121.984 46.5517 122.007 46.4261V45.546C121.984 45.462 121.984 45.3785 121.984 45.2945ZM121.167 46.384C121.167 46.4886 121.144 46.5724 121.144 46.6564C121.121 46.7403 121.121 46.8031 121.097 46.8447C121.074 46.9075 121.027 46.9496 121.004 46.9912C120.864 47.1589 120.654 47.222 120.374 47.222H119.744V44.7286H120.374C120.654 44.7286 120.864 44.8126 121.004 44.9801C121.027 45.0219 121.074 45.064 121.097 45.1268C121.121 45.1687 121.121 45.2318 121.144 45.3152C121.144 45.3989 121.167 45.4826 121.167 45.5876V46.384Z"
        fill="#CECECF" />
    <path d="M123.011 44.0586V47.8926H123.827V44.0586H123.011Z" fill="#CECECF" />
    <path d="M124.667 44.0586V44.7289H125.787V47.8926H126.603V44.7289H127.723V44.0586H124.667Z"
        fill="#CECECF" />
    <path
        d="M132.016 47.1185C131.899 47.2234 131.736 47.2653 131.526 47.2653C131.409 47.2653 131.316 47.2443 131.222 47.2022C131.129 47.1813 131.059 47.1182 130.989 47.0763C130.966 47.0345 130.919 46.9923 130.896 46.9298C130.872 46.888 130.849 46.8249 130.826 46.7415C130.826 46.6575 130.802 46.5528 130.802 46.4479C130.779 46.3223 130.779 46.1758 130.779 45.9872C130.779 45.7985 130.779 45.652 130.802 45.5262C130.802 45.4003 130.826 45.3166 130.826 45.2332C130.849 45.1492 130.872 45.0864 130.896 45.0445C130.919 44.9817 130.966 44.9396 130.989 44.8977C131.059 44.8352 131.129 44.7931 131.222 44.7512C131.315 44.7303 131.409 44.7096 131.526 44.7096C131.736 44.7096 131.899 44.7512 132.016 44.8561C132.132 44.9608 132.202 45.0866 132.249 45.2541H133.089C133.019 44.8352 132.832 44.5419 132.552 44.3324C132.272 44.144 131.922 44.0391 131.526 44.0391C131.292 44.0391 131.059 44.0809 130.873 44.144C130.709 44.2068 130.523 44.3114 130.383 44.437C130.266 44.5419 130.196 44.6466 130.126 44.7512C130.079 44.8352 130.033 44.9605 130.01 45.0864C129.986 45.2122 129.963 45.3378 129.963 45.4843V46.49C129.963 46.6368 129.986 46.7627 130.01 46.8883C130.033 47.0138 130.079 47.1188 130.126 47.2234C130.196 47.3283 130.266 47.433 130.383 47.5374C130.523 47.6632 130.709 47.7681 130.873 47.8309C131.059 47.8937 131.292 47.9356 131.526 47.9356C131.923 47.9356 132.273 47.8309 132.552 47.6213C132.832 47.433 133.019 47.1185 133.089 46.7205H132.249C132.202 46.888 132.132 47.0136 132.016 47.1185Z"
        fill="#CECECF" />
    <path
        d="M135.701 44.0586H135.048L133.485 47.8926H134.372L134.629 47.2223H136.145L136.402 47.8926H137.265L135.701 44.0586ZM134.862 46.5936L135.398 45.1899L135.911 46.5936H134.862Z"
        fill="#CECECF" />
    <path
        d="M140.204 46.2378C140.32 46.2168 140.413 46.1747 140.507 46.1119C140.6 46.0488 140.694 45.9861 140.764 45.9023C140.833 45.8183 140.88 45.714 140.927 45.609C140.974 45.5041 140.997 45.3785 140.997 45.232C140.997 45.0853 140.974 44.9175 140.904 44.792C140.834 44.6454 140.74 44.5196 140.624 44.4147C140.507 44.31 140.367 44.2263 140.181 44.1635C140.017 44.1005 139.831 44.0586 139.621 44.0586H137.941V47.8926H138.781V46.3633H139.364L140.204 47.8926H141.16L140.204 46.2378ZM139.994 45.609C139.877 45.693 139.737 45.7558 139.55 45.7558H138.781V44.7289H139.55C139.737 44.7289 139.877 44.7708 139.994 44.8754C140.11 44.9594 140.157 45.0853 140.157 45.232C140.157 45.3995 140.11 45.5044 139.994 45.609Z"
        fill="#CECECF" />
    <path
        d="M145.079 45.1899C145.056 45.085 145.032 44.9803 144.986 44.8963C144.962 44.7917 144.893 44.708 144.846 44.6242C144.682 44.4356 144.496 44.2891 144.286 44.2051C144.099 44.1214 143.843 44.0586 143.54 44.0586H142V47.8926H143.54C143.843 47.8926 144.1 47.851 144.286 47.767C144.496 47.683 144.682 47.5362 144.846 47.3479C144.893 47.2641 144.962 47.1804 144.986 47.0755C145.032 46.9915 145.056 46.8871 145.079 46.7825C145.079 46.6776 145.102 46.5517 145.102 46.4261V45.546C145.102 45.4201 145.079 45.2945 145.079 45.1899ZM144.263 46.384C144.263 46.4886 144.263 46.5724 144.239 46.6564C144.239 46.7403 144.216 46.8031 144.193 46.8447C144.169 46.9075 144.146 46.9496 144.099 46.9912C143.959 47.1589 143.749 47.222 143.469 47.222H142.84V44.7286H143.469C143.749 44.7286 143.959 44.8126 144.099 44.9801C144.146 45.0219 144.169 45.064 144.193 45.1268C144.216 45.1687 144.239 45.2318 144.239 45.3152C144.263 45.3989 144.263 45.4826 144.263 45.5876V46.384Z"
        fill="#CECECF" />
    <path
        d="M145.538 9.33817V24.1043C145.538 24.6986 144.997 25.1847 144.335 25.1847H124.084C123.422 25.1847 122.881 24.6986 122.881 24.1043V9.33817C122.881 8.74388 123.422 8.25781 124.084 8.25781H144.335C144.997 8.25754 145.538 8.74388 145.538 9.33817Z"
        fill="#F7D072" />
    <path opacity="0.2"
        d="M141.09 11.8356L144.613 8.67188H143.47L140.437 11.4164L139.971 11.8356L139.621 12.1289L137.218 14.2868H131.992L131.526 13.8677L129.59 12.1289L128.82 11.4164L125.764 8.67188H124.62L127.653 11.4164L128.12 11.8356H123.291V12.5477H128.936L130.429 13.9095L130.826 14.2868V15.1246H123.291V15.8579H130.826V18.4347H123.291V19.1469H130.826V20.0059H130.872L129.402 21.3051L128.936 21.7243H123.291V22.4577H128.12L125.087 25.1813H126.23L129.263 22.4577L131.992 20.0067H137.218L143.003 25.1815H144.123L141.09 22.4579H145.546V21.7246H140.297L138.384 20.0067V19.1477H145.546V18.4356H138.384V15.8587H145.546V15.1254H138.384V14.2876L140.297 12.5485H145.546V11.8364H141.09V11.8356ZM137.591 19.273H131.619V14.9993H137.591V19.273Z"
        fill="white" />
    <path
        d="M131.595 13.8672L132.388 14.5793H136.028L136.354 14.2863L136.821 13.8672H131.595ZM131.595 13.8672L132.388 14.5793H136.028L136.354 14.2863L136.821 13.8672H131.595ZM131.595 13.8672L132.388 14.5793H136.028L136.354 14.2863L136.821 13.8672H131.595ZM131.595 13.8672L132.388 14.5793H136.028L136.354 14.2863L136.821 13.8672H131.595ZM136.494 19.2726L136.028 18.8537H132.388L131.945 19.2726H131.922L131.595 19.5868H136.821L136.494 19.2726ZM131.595 13.8672L132.388 14.5793H136.028L136.354 14.2863L136.821 13.8672H131.595ZM130.429 13.8672V19.5868H137.987V13.8672H130.429ZM137.194 18.8537H131.222V14.5796H137.194V18.8537ZM131.595 13.8672L132.388 14.5793H136.028L136.354 14.2863L136.821 13.8672H131.595ZM131.595 13.8672L132.388 14.5793H136.028L136.354 14.2863L136.821 13.8672H131.595ZM131.595 13.8672L132.388 14.5793H136.028L136.354 14.2863L136.821 13.8672H131.595ZM131.595 13.8672L132.388 14.5793H136.028L136.354 14.2863L136.821 13.8672H131.595ZM131.595 13.8672L132.388 14.5793H136.028L136.354 14.2863L136.821 13.8672H131.595ZM131.595 13.8672L132.388 14.5793H136.028L136.354 14.2863L136.821 13.8672H131.595Z"
        fill="#717070" />
    <path d="M128.861 11.4062L129.663 12.1267H122.881V11.4062H128.861Z" fill="#717070" />
    <path d="M145.539 11.4062V12.1267H138.756L139.558 11.4062H145.539Z" fill="#717070" />
    <path d="M131.227 14.707H122.881V15.4275H131.227V14.707Z" fill="#717070" />
    <path d="M145.538 14.707H137.192V15.4275H145.538V14.707Z" fill="#717070" />
    <path d="M131.227 18.0078H122.881V18.7282H131.227V18.0078Z" fill="#717070" />
    <path d="M145.538 18.0078H137.192V18.7282H145.538V18.0078Z" fill="#717070" />
    <path d="M129.664 21.3086L128.862 22.029H122.881V21.3086H129.664Z" fill="#717070" />
    <path d="M145.539 21.3086V22.029H139.557L138.755 21.3086H145.539Z" fill="#717070" />
    <path d="M132.396 18.8594L125.353 25.1845H124.219L131.262 18.8594H132.396Z" fill="#717070" />
    <path d="M144.201 8.25781L137.158 14.583H136.024L143.067 8.25781H144.201Z" fill="#717070" />
    <path d="M132.395 14.583H131.261L124.218 8.25781H125.352L132.395 14.583Z" fill="#717070" />
    <path
        d="M144.2 25.1845H143.066L136.826 19.5798L136.492 19.2799L136.023 18.8594H137.157L137.593 19.251L137.96 19.5798L138.396 19.9714L139.889 21.3128L140.357 21.7334L140.691 22.0333L141.16 22.4538L144.2 25.1845Z"
        fill="#717070" />
    <path
        d="M24.2306 14.7139C24.2306 12.4596 25.2658 10.4233 26.9308 8.96433C25.3185 7.55157 23.1156 6.67969 20.6852 6.67969C15.7443 6.67969 11.7393 10.2768 11.7393 14.7139C11.7393 19.1513 15.7446 22.7482 20.6852 22.7482C23.1159 22.7482 25.3188 21.8763 26.9308 20.4635C25.2658 19.0048 24.2306 16.9683 24.2306 14.7139Z"
        fill="#DC3B39" />
    <path
        d="M33.1763 6.67969C30.7456 6.67969 28.543 7.55157 26.9307 8.96433C28.5957 10.4233 29.6309 12.4596 29.6309 14.7139C29.6309 16.9683 28.5957 19.0045 26.9307 20.4635C28.543 21.8763 30.7459 22.7482 33.1763 22.7482C38.1172 22.7482 42.1223 19.151 42.1223 14.7139C42.1223 10.2768 38.1169 6.67969 33.1763 6.67969Z"
        fill="#E6AB2D" />
    <path
        d="M29.631 14.7144C29.631 12.4601 28.5958 10.4239 26.9307 8.96484C25.2657 10.4239 24.2305 12.4601 24.2305 14.7144C24.2305 16.9688 25.2657 19.005 26.9307 20.4641C28.5958 19.0053 29.631 16.9688 29.631 14.7144Z"
        fill="#D67261" />
    <path
        d="M29.6312 14.7163C29.6312 14.5466 29.6235 14.3787 29.6118 14.2115L25.5311 10.5469C25.2321 10.9878 24.9785 11.4562 24.7773 11.9478L29.4812 16.1723C29.5778 15.6997 29.6312 15.2139 29.6312 14.7163Z"
        fill="#E6AB2D" />
    <path
        d="M24.3215 13.5781C24.263 13.9496 24.2305 14.3288 24.2305 14.7147C24.2305 15.0231 24.2516 15.3271 24.2893 15.6265L28.1693 19.111C28.4814 18.6839 28.7491 18.2286 28.9671 17.75L24.3215 13.5781Z"
        fill="#E6AB2D" />
    <path opacity="0.2" d="M157 51.2461H0V53.0061H157V51.2461Z" fill="#040000" />
    <path opacity="0.2"
        d="M157 4.48363V91.3047C157 93.7768 154.737 95.809 151.984 95.809H25.1714L50.1329 73.3916L50.9491 72.6582L51.8822 71.8205L52.5121 71.2548L65.506 59.5849L66.1824 58.9774V58.9564L66.6255 58.5792L66.6721 58.5373L68.6552 56.7357L69.285 56.191L72.831 53.0064L74.7907 51.2463L95.7628 32.4115L102.505 26.3571L131.432 0.356631L131.829 0H151.984C154.737 0 157 2.01118 157 4.48363Z"
        fill="#040000" />
    <defs>
        <linearGradient id="paint0_linear_327_509" x1="78.5" y1="0.355386" x2="78.5" y2="96.1644"
            gradientUnits="userSpaceOnUse">
            <stop stop-color="#297BA4" />
            <stop offset="1" stop-color="#2F5F71" />
        </linearGradient>
    </defs>
</svg>
    