<svg width="18" height="30" viewBox="0 0 18 30" fill="none" xmlns="http://www.w3.org/2000/svg">
    <path
        d="M7.82491 4C9.8818 4 11.5505 3.10441 11.5505 1.99954C11.5505 0.895591 9.8818 0 7.82491 0C5.76632 0 4.09766 0.895591 4.09766 1.99954C4.09766 3.10441 5.76632 4 7.82491 4Z"
        fill="#98CB4D" />
    <path
        d="M17.9393 30L12.0242 5.34718C11.9853 5.152 11.733 5.00099 11.4246 5.00099C11.4184 5.00099 11.4106 5 11.4028 5C8.55276 5 6.1263 6.19576 5.2121 7.86716L5.20276 7.86609L0.904297 15.6539H3.81355L6.1886 12.4498L7.21494 14.6667L2.06457 30H5.74163L10.3453 21.4201L14.3199 30H17.9393Z"
        fill="#98CB4D" />
</svg>