<svg width="95" height="95" viewBox="0 0 95 95" fill="none" xmlns="http://www.w3.org/2000/svg">
    <path d="M92.0312 29.6875H2.96875V41.5625H92.0312V29.6875Z" fill="#98CB4D" />
    <path
        d="M2.96875 77.1875C2.96875 78.8262 4.29875 80.1562 5.9375 80.1562H89.0625C90.7012 80.1562 92.0312 78.8262 92.0312 77.1875V44.5312H2.96875V77.1875Z"
        fill="#00385F" />
    <path
        d="M89.0625 14.8438H5.9375C4.29875 14.8438 2.96875 16.1723 2.96875 17.8125V26.7188H92.0312V17.8125C92.0312 16.1723 90.7012 14.8438 89.0625 14.8438Z"
        fill="#00385F" />
    <path
        d="M89.0625 11.875H5.9375C2.65555 11.875 0 14.5305 0 17.8125V77.1875C0 80.4695 2.65555 83.125 5.9375 83.125H89.0625C92.3445 83.125 95 80.4695 95 77.1875V17.8125C95 14.5305 92.3445 11.875 89.0625 11.875ZM92.0312 77.1875C92.0312 78.8262 90.7012 80.1562 89.0625 80.1562H5.9375C4.29875 80.1562 2.96875 78.8262 2.96875 77.1875V44.5312H92.0312V77.1875ZM92.0312 41.5625H2.96875V29.6875H92.0312V41.5625ZM92.0312 26.7188H2.96875V17.8125C2.96875 16.1723 4.29875 14.8438 5.9375 14.8438H89.0625C90.7012 14.8438 92.0312 16.1723 92.0312 17.8125V26.7188Z"
        fill="white" />
    <path
        d="M16.3281 59.375H37.1094C37.9302 59.375 38.5938 58.7115 38.5938 57.8906C38.5938 57.0698 37.9302 56.4062 37.1094 56.4062H16.3281C15.5073 56.4062 14.8438 57.0698 14.8438 57.8906C14.8438 58.7115 15.5073 59.375 16.3281 59.375Z"
        fill="white" />
    <path
        d="M43.0469 59.375H51.9531C52.774 59.375 53.4375 58.7115 53.4375 57.8906C53.4375 57.0698 52.774 56.4062 51.9531 56.4062H43.0469C42.226 56.4062 41.5625 57.0698 41.5625 57.8906C41.5625 58.7115 42.226 59.375 43.0469 59.375Z"
        fill="white" />
    <path
        d="M16.3281 68.2812H31.1719C31.9927 68.2812 32.6562 67.6177 32.6562 66.7969C32.6562 65.976 31.9927 65.3125 31.1719 65.3125H16.3281C15.5073 65.3125 14.8438 65.976 14.8438 66.7969C14.8438 67.6177 15.5073 68.2812 16.3281 68.2812Z"
        fill="white" />
    <path
        d="M66.7969 68.2812H78.6719C79.4927 68.2812 80.1562 67.6177 80.1562 66.7969V57.8906C80.1562 57.0698 79.4927 56.4062 78.6719 56.4062H66.7969C65.976 56.4062 65.3125 57.0698 65.3125 57.8906V66.7969C65.3125 67.6177 65.976 68.2812 66.7969 68.2812ZM68.2812 59.375H77.1875V65.3125H68.2812V59.375Z"
        fill="white" />
    <path d="M77.1875 59.375H68.2812V65.3125H77.1875V59.375Z" fill="#1F7796" />
</svg>
    