<svg width="39" height="34" viewBox="0 0 39 34" fill="none" xmlns="http://www.w3.org/2000/svg">
    <path
        d="M33.15 23.8C31.7707 23.8 30.5039 24.2205 29.5028 24.9191L24.9912 20.9859C26.0253 19.9047 26.6499 18.5153 26.6499 17C26.6499 15.436 25.9811 14.0086 24.8859 12.9132L30.4895 8.02632C31.3891 8.67571 32.5435 9.06671 33.8 9.06671C36.6672 9.06671 39 7.03295 39 4.53336C39 2.03376 36.6672 0 33.8 0C30.9328 0 28.5999 2.03376 28.5999 4.53336C28.5999 5.52958 28.975 6.44871 29.6022 7.19724L23.9479 12.1278C22.7253 11.2784 21.1809 10.7667 19.4999 10.7667C17.7573 10.7667 16.1602 11.3141 14.9181 12.2207L8.2127 6.30986C8.76776 5.6525 9.09995 4.84387 9.09995 3.96671C9.10003 1.77936 7.05831 0 4.54997 0C2.04163 0 0 1.77936 0 3.96664C0 6.15393 2.04163 7.93329 4.54997 7.93329C5.58477 7.93329 6.53638 7.62729 7.30146 7.11842L14.0004 13.0225C12.9708 14.1026 12.3501 15.4893 12.3501 16.9999C12.3501 18.5147 12.9741 19.9041 14.0088 20.9858L10.6107 23.9484C9.4901 23.1482 8.05876 22.6666 6.50005 22.6666C2.91594 22.6666 0 25.2087 0 28.3334C0 31.458 2.91594 34 6.49997 34C10.0841 34 12.9999 31.4579 12.9999 28.3334C12.9999 26.9745 12.4475 25.7272 11.5303 24.7497L14.9279 21.7872C16.1687 22.6888 17.7625 23.2334 19.4999 23.2334C21.2374 23.2334 22.8311 22.6894 24.072 21.7872L28.5836 25.7205C27.7823 26.5931 27.3 27.6975 27.3 28.9C27.3 31.7118 29.924 34 33.15 34C36.376 34 39 31.7118 39 28.9C39 26.0882 36.376 23.8 33.15 23.8ZM33.8 2.26664C34.1594 2.26664 34.4499 2.52052 34.4499 2.83329C34.4499 3.14606 34.1594 3.39993 33.8 3.39993C33.083 3.39993 32.4999 3.90821 32.4999 4.53329C32.4999 4.84606 32.2094 5.09993 31.85 5.09993C31.4905 5.09993 31.2 4.84606 31.2 4.53329C31.2 3.28326 32.3661 2.26664 33.8 2.26664ZM4.54997 3.4C4.19121 3.4 3.9 3.6544 3.9 3.96664C3.9 4.27942 3.60948 4.53329 3.25003 4.53329C2.89057 4.53329 2.60005 4.27942 2.60005 3.96664C2.60005 3.02939 3.47496 2.26664 4.55005 2.26664C4.90951 2.26664 5.20003 2.52052 5.20003 2.83329C5.20003 3.14613 4.90943 3.4 4.54997 3.4ZM6.49997 26.0666C5.06604 26.0666 3.9 27.0833 3.9 28.3333C3.9 28.6461 3.60948 28.8999 3.25003 28.8999C2.89057 28.8999 2.60005 28.6461 2.60005 28.3333C2.60005 26.4582 4.34919 24.9333 6.50005 24.9333C6.85951 24.9333 7.15002 25.1872 7.15002 25.4999C7.15002 25.8127 6.85943 26.0666 6.49997 26.0666ZM19.5 14.1666C17.708 14.1666 16.25 15.4377 16.25 17C16.25 17.3128 15.9595 17.5666 15.6 17.5666C15.2405 17.5666 14.95 17.3128 14.95 17C14.95 14.8126 16.9917 13.0334 19.5 13.0334C19.8595 13.0334 20.15 13.2872 20.15 13.6C20.15 13.9128 19.8595 14.1666 19.5 14.1666ZM33.15 27.2C32.0749 27.2 31.2 27.9627 31.2 28.9C31.2 29.2128 30.9095 29.4666 30.55 29.4666C30.1906 29.4666 29.9001 29.2128 29.9001 28.9C29.9001 27.3377 31.358 26.0666 33.1501 26.0666C33.5095 26.0666 33.8 26.3205 33.8 26.6333C33.8 26.9461 33.5095 27.2 33.15 27.2Z"
        fill="#00385F" />
</svg>