<svg width="40" height="46" viewBox="0 0 40 46" fill="none" xmlns="http://www.w3.org/2000/svg">
    <path
        d="M29.9514 23.4599L39.5561 27.4187V33.357C39.5561 35.7125 38.7984 37.9988 37.5071 39.9386L34.4123 37.0684C35.7783 35.1484 35.5542 32.5355 33.7293 30.8431C31.6482 28.9132 28.2652 28.9132 26.1842 30.8431C24.1032 32.7731 24.1032 35.9105 26.1842 37.8404C28.0091 39.5328 30.8265 39.7506 32.8969 38.4738L36.2265 41.5618C34.5723 43.3531 32.4059 44.6794 29.9514 45.2336C24.4447 43.9866 20.3467 38.8499 20.3467 33.357V27.4187L29.9514 23.4599ZM30.0398 0.942627L30.3802 0.956026C32.2807 1.10631 33.7941 2.50295 33.9656 4.24472L33.9818 4.57512L33.9941 23.5354L30.0383 21.9011L30.0398 4.57512H4.54943V33.6351L18.9654 33.6338L18.9701 33.7666C19.0222 34.962 19.2416 36.1382 19.6068 37.2672L4.52948 37.2676C2.45004 37.2676 0.746694 35.8005 0.573154 33.9473L0.558594 33.6351L0.578548 4.57512C0.578548 2.6824 2.17245 1.1157 4.20654 0.956026L4.54943 0.942627H30.0398ZM18.958 26.3276V29.9389H8.42753V26.3276H18.958ZM25.7855 19.1051V22.7164H8.42753V19.1051H25.7855ZM23.5868 11.8826V15.3876H8.42753V11.8826H23.5868ZM29.9514 37.3159C31.7196 37.3159 33.153 35.9865 33.153 34.3467C33.153 32.7069 31.7196 31.3776 29.9514 31.3776C28.1832 31.3776 26.7498 32.7069 26.7498 34.3467C26.7498 35.9865 28.1832 37.3159 29.9514 37.3159Z"
        fill="#FFFFFF" />
</svg>