<svg width="84" height="70" viewBox="0 0 84 70" fill="none" xmlns="http://www.w3.org/2000/svg">
    <path opacity="0.4"
        d="M7 28.4362C5.565 28.4362 4.375 27.4445 4.375 26.2487V18.957C4.375 10.4987 12.635 3.64453 22.75 3.64453H31.5C32.935 3.64453 34.125 4.6362 34.125 5.83203C34.125 7.02786 32.935 8.01953 31.5 8.01953H22.75C15.505 8.01953 9.625 12.9195 9.625 18.957V26.2487C9.625 27.4445 8.435 28.4362 7 28.4362Z"
        fill="#98CB4D" />
    <path
        d="M77 28.4362C75.565 28.4362 74.375 27.4445 74.375 26.2487V18.957C74.375 12.9195 68.495 8.01953 61.25 8.01953H52.5C51.065 8.01953 49.875 7.02786 49.875 5.83203C49.875 4.6362 51.065 3.64453 52.5 3.64453H61.25C71.365 3.64453 79.625 10.4987 79.625 18.957V26.2487C79.625 27.4445 78.435 28.4362 77 28.4362Z"
        fill="#98CB4D" />
    <path
        d="M61.25 66.3555H56C54.565 66.3555 53.375 65.3638 53.375 64.168C53.375 62.9721 54.565 61.9805 56 61.9805H61.25C68.495 61.9805 74.375 57.0805 74.375 51.043V46.668C74.375 45.4721 75.565 44.4805 77 44.4805C78.435 44.4805 79.625 45.4721 79.625 46.668V51.043C79.625 59.5013 71.365 66.3555 61.25 66.3555Z"
        fill="#98CB4D" />
    <path
        d="M31.5 66.3542H22.75C12.635 66.3542 4.375 59.5 4.375 51.0417V43.75C4.375 42.5542 5.565 41.5625 7 41.5625C8.435 41.5625 9.625 42.5542 9.625 43.75V51.0417C9.625 57.0792 15.505 61.9792 22.75 61.9792H31.5C32.935 61.9792 34.125 62.9708 34.125 64.1667C34.125 65.3625 32.935 66.3542 31.5 66.3542Z"
        fill="#98CB4D" />
    <path
        d="M29.747 33.1906C35.314 33.1906 39.8269 29.4298 39.8269 24.7906C39.8269 20.1514 35.314 16.3906 29.747 16.3906C24.18 16.3906 19.667 20.1514 19.667 24.7906C19.667 29.4298 24.18 33.1906 29.747 33.1906Z"
        fill="#98CB4D" />
    <path opacity="0.4"
        d="M26.247 53.6073C29.881 53.6073 32.827 51.1523 32.827 48.124C32.827 45.0956 29.881 42.6406 26.247 42.6406C22.613 42.6406 19.667 45.0956 19.667 48.124C19.667 51.1523 22.613 53.6073 26.247 53.6073Z"
        fill="#98CB4D" />
    <path opacity="0.4"
        d="M57.747 27.3573C61.381 27.3573 64.327 24.9023 64.327 21.874C64.327 18.8456 61.381 16.3906 57.747 16.3906C54.1129 16.3906 51.167 18.8456 51.167 21.874C51.167 24.9023 54.1129 27.3573 57.747 27.3573Z"
        fill="#00385F" />
    <path
        d="M54.247 53.6086C59.8141 53.6086 64.327 49.8478 64.327 45.2086C64.327 40.5693 59.8141 36.8086 54.247 36.8086C48.6802 36.8086 44.167 40.5693 44.167 45.2086C44.167 49.8478 48.6802 53.6086 54.247 53.6086Z"
        fill="#98CB4D" />
</svg>
    