<svg width="39" height="37" viewBox="0 0 39 37" fill="none" xmlns="http://www.w3.org/2000/svg">
    <path
        d="M19.5 37C17.55 37 16.0875 35.4583 14.95 34.225C14.3 33.6083 13.65 32.8375 13.325 32.6833C12.8375 32.5292 11.7 32.5292 10.8875 32.5292C9.1 32.6833 7.15 32.6833 5.85 31.45C4.55 30.2167 4.55 28.2125 4.7125 26.6708C4.7125 25.7458 4.875 24.8208 4.55 24.3583C4.3875 23.8958 3.575 23.2792 2.925 22.8167C1.625 21.7375 0 20.35 0 18.5C0 16.65 1.625 15.2625 2.925 14.1833C3.575 13.5667 4.3875 12.95 4.55 12.6417C4.7125 12.1792 4.7125 11.1 4.7125 10.3292C4.55 8.63333 4.55 6.78333 5.85 5.55C7.15 4.31667 9.2625 4.31667 10.8875 4.47083C11.8625 4.47083 12.8375 4.625 13.325 4.31667C13.8125 4.1625 14.4625 3.39167 14.95 2.775C16.0875 1.54167 17.55 0 19.5 0C21.45 0 22.9125 1.54167 24.05 2.775C24.7 3.39167 25.35 4.1625 25.675 4.31667C26.1625 4.47083 27.3 4.47083 28.1125 4.47083C29.9 4.31667 31.85 4.31667 33.15 5.55C34.45 6.78333 34.45 8.7875 34.2875 10.3292C34.2875 11.2542 34.125 12.1792 34.45 12.6417C34.6125 13.1042 35.425 13.7208 36.075 14.1833C37.375 15.2625 39 16.65 39 18.5C39 20.35 37.375 21.7375 36.075 22.8167C35.425 23.4333 34.6125 24.05 34.45 24.3583C34.2875 24.8208 34.2875 25.9 34.2875 26.6708C34.45 28.3667 34.45 30.2167 33.15 31.45C31.85 32.6833 29.7375 32.6833 28.1125 32.5292C27.1375 32.5292 26.1625 32.375 25.675 32.6833C25.1875 32.8375 24.5375 33.6083 24.05 34.225C22.9125 35.4583 21.45 37 19.5 37ZM12.1875 29.4458C13 29.4458 13.8125 29.6 14.625 29.7542C15.7625 30.2167 16.7375 31.1417 17.55 32.0667C18.2 32.8375 19.175 33.7625 19.6625 33.7625C20.15 33.7625 21.125 32.8375 21.775 32.0667C22.5875 31.1417 23.5625 30.2167 24.7 29.7542C25.8375 29.2917 27.3 29.2917 28.6 29.4458C29.575 29.4458 30.875 29.6 31.2 29.2917C31.525 28.9833 31.3625 27.75 31.3625 26.825C31.2 25.5917 31.2 24.2042 31.6875 23.125C32.175 22.0458 33.15 21.1208 34.125 20.35C34.775 19.8875 35.75 18.9625 35.75 18.5C35.75 18.0375 34.775 17.1125 33.9625 16.4958C32.9875 15.725 32.0125 14.8 31.525 13.7208C31.0375 12.6417 31.0375 11.2542 31.2 10.0208C31.2 9.09583 31.3625 7.8625 31.0375 7.55417C30.7125 7.24583 29.4125 7.4 28.4375 7.4C27.1375 7.55417 25.675 7.55417 24.5375 7.09167C23.4 6.62917 22.425 5.70417 21.6125 4.77917C20.9625 4.00833 19.9875 3.08333 19.5 3.08333C19.0125 3.08333 18.0375 4.00833 17.3875 4.77917C16.575 5.70417 15.6 6.62917 14.4625 7.09167C13.325 7.55417 11.8625 7.55417 10.5625 7.4C9.5875 7.4 8.2875 7.24583 7.9625 7.55417C7.6375 7.8625 7.8 9.09583 7.8 10.0208C7.9625 11.2542 7.9625 12.6417 7.475 13.7208C6.9875 14.8 6.0125 15.725 5.0375 16.4958C4.225 17.1125 3.25 18.0375 3.25 18.5C3.25 18.9625 4.225 19.8875 5.0375 20.5042C6.0125 21.275 6.9875 22.2 7.475 23.2792C7.9625 24.3583 7.9625 25.7458 7.8 26.9792C7.8 27.9042 7.6375 29.1375 7.9625 29.4458C8.2875 29.7542 9.5875 29.6 10.5625 29.6C11.05 29.6 11.5375 29.4458 12.1875 29.4458ZM17.875 25.2833L11.8625 19.5792L14.1375 17.4208L17.875 20.9667L26.4875 12.7958L28.7625 14.9542L17.875 25.2833Z"
        fill="white" />
</svg>