<svg width="44" height="38" viewBox="0 0 44 38" fill="none" xmlns="http://www.w3.org/2000/svg">
    <path
        d="M23.6416 3.5V9.32031L24.0615 9.3877L41.875 12.2773L42.1104 16.3818L42.1113 16.4023L42.1143 16.4229L43.0283 22.9229C37.2074 25.0124 34.4657 26.9808 33.2148 28.9795C32.0872 30.7815 32.2208 32.5717 32.249 34.1514L27.3525 33.0117C25.9693 30.2224 24.6983 28.1274 23.5127 26.6104C22.3 25.0587 21.1542 24.0793 20.042 23.5967C18.908 23.1047 17.8399 23.1434 16.8477 23.5635C15.9952 23.9244 15.2173 24.5582 14.4961 25.3301C9.93801 22.2807 7.81794 19.7784 5.18555 17.1123L15.2305 16.9131L15.7207 16.9033V3.5H23.6416Z"
        fill="#98CB4D" stroke="#00385F" />
</svg>
    