<?xml version="1.0" encoding="utf-8"?>
<!-- Generator: Adobe Illustrator 22.0.0, SVG Export Plug-In . SVG Version: 6.00 Build 0)  -->
<svg version="1.1" xmlns="http://www.w3.org/2000/svg" xmlns:xlink="http://www.w3.org/1999/xlink"
    x="0px" y="0px"
    viewBox="0 0 64 64" style="enable-background:new 0 0 64 64;" xml:space="preserve">
<g id="Layer_1">
</g>
<g id="Layer_2">
	<g>
		<path d="M32,12c-11,0-20,9-20,20s9,20,20,20s20-9,20-20S43,12,32,12z M47.2,41.3c-1.4,2.4-3.4,4.3-5.8,5.8L40,44.7l-0.9,0.5
			l1.4,2.4c-2.4,1.3-5.1,2-7.9,2.1V47h-1.1v2.8c-2.9-0.1-5.6-0.8-7.9-2.1l1.4-2.4L24,44.7l-1.4,2.4c-2.3-1.5-4.3-3.5-5.8-5.8
			l2.4-1.4L18.7,39l-2.4,1.4c-1.3-2.4-2-5.1-2.1-7.9h2.7v-1.1h-2.7c0.1-2.8,0.8-5.5,2.1-7.9l2.3,1.3l0.5-0.9l-2.3-1.3
			c1.5-2.3,3.4-4.3,5.8-5.7l1.3,2.3l0.9-0.5l-1.3-2.3c2.4-1.3,5-2,7.8-2.1v2.6h1.1v-2.6c2.8,0.1,5.5,0.8,7.8,2.1l-1.3,2.3l0.9,0.5
			l1.3-2.3c2.3,1.4,4.3,3.4,5.8,5.7l-2.3,1.3l0.5,0.9l2.3-1.3c1.3,2.4,2,5,2.1,7.9h-2.7v1.1h2.7c-0.1,2.8-0.8,5.5-2.1,7.9L45.3,39
			l-0.5,0.9L47.2,41.3z"/>
		<path d="M32.5,30.7V20.4h-1.1v10.3c-0.5,0.2-0.9,0.7-0.9,1.3c0,0.8,0.7,1.5,1.5,1.5c0.6,0,1.1-0.3,1.3-0.8h6.9v-1.1h-6.8
			C33.2,31.1,32.9,30.8,32.5,30.7z"/>
	</g>
</g>
</svg>