<svg width="46" height="35" viewBox="0 0 46 35" fill="none" xmlns="http://www.w3.org/2000/svg">
    <path
        d="M41.1802 11.7732C42.1119 13.5387 42.626 15.4714 42.626 17.5H45.6431C45.6431 15.164 45.0503 12.9321 43.9736 10.8916L41.1802 11.7732ZM42.626 17.5C42.626 18.5775 42.481 19.6277 42.2056 20.6397L45.1579 21.1202C45.4761 19.9511 45.6431 18.7401 45.6431 17.5H42.626ZM42.2056 20.6397C40.6124 26.4953 34.6464 31.1094 27.0747 32.3416L27.696 34.6248C36.4379 33.2022 43.3185 27.881 45.1579 21.1202L42.2056 20.6397ZM27.0747 32.3416C25.7661 32.5545 24.4082 32.6667 23.0149 32.6667V35C24.6184 35 26.1843 34.8709 27.696 34.6248L27.0747 32.3416ZM23.0149 32.6667C21.6214 32.6667 20.2637 32.5545 18.955 32.3416L18.3338 34.6248C19.8453 34.8709 21.4114 35 23.0149 35V32.6667ZM3.40381 17.5C3.40381 15.4698 3.91875 13.5357 4.85173 11.7691L2.05863 10.8868C0.980281 12.9286 0.386719 15.1622 0.386719 17.5H3.40381ZM18.955 32.3416C11.3835 31.1094 5.41746 26.4953 3.82425 20.6397L0.871813 21.1202C2.71131 27.881 9.5918 33.2022 18.3338 34.6248L18.955 32.3416ZM3.82425 20.6397C3.54889 19.6277 3.40381 18.5775 3.40381 17.5H0.386719C0.386719 18.7401 0.553725 19.9511 0.871813 21.1202L3.82425 20.6397ZM4.85173 11.7691C7.27991 7.17136 12.5432 3.70191 18.955 2.65849L18.3338 0.375158C10.9271 1.58048 4.85944 5.58353 2.05863 10.8868L4.85173 11.7691ZM18.955 2.65849C20.2637 2.44554 21.6214 2.33333 23.0149 2.33333V0C21.4114 0 19.8453 0.129158 18.3338 0.375158L18.955 2.65849ZM23.0149 2.33333C24.4082 2.33333 25.7661 2.44554 27.0747 2.65849L27.696 0.37516C26.1843 0.129159 24.6184 0 23.0149 0V2.33333ZM27.0747 2.65849C33.4884 3.70222 38.7531 7.17344 41.1802 11.7732L43.9736 10.8916C41.174 5.58594 35.105 1.58083 27.696 0.37516L27.0747 2.65849ZM25.9483 1.87147C26.5312 3.2844 28.69 8.72077 29.5751 13.7172L32.5642 13.4005C31.6418 8.19255 29.4137 2.59521 28.8226 1.16219L25.9483 1.87147ZM29.5751 13.7172C29.8124 15.0565 29.9542 16.3439 29.9542 17.5H32.9713C32.9713 16.2059 32.8134 14.8073 32.5642 13.4005L29.5751 13.7172ZM41.9667 10.2704C39.6475 10.8144 35.291 11.77 30.796 12.4116L31.3435 14.7062C35.9976 14.0418 40.4756 13.0585 42.8424 12.5033L41.9667 10.2704ZM30.796 12.4116C28.0693 12.8007 25.3439 13.0667 23.0149 13.0667V15.4C25.6044 15.4 28.5322 15.1074 31.3435 14.7062L30.796 12.4116ZM29.9542 17.5C29.9542 19.2125 29.6432 21.2035 29.1792 23.2104L32.1492 23.6211C32.6288 21.5474 32.9713 19.4059 32.9713 17.5H29.9542ZM29.1792 23.2104C28.1623 27.6099 26.4538 31.9034 25.9483 33.1285L28.8226 33.8378C29.3407 32.582 31.0969 28.1731 32.1492 23.6211L29.1792 23.2104ZM43.2232 19.7686C41.639 20.1595 36.0873 21.4808 30.3987 22.2673L30.9297 24.5642C36.8157 23.7504 42.5166 22.3922 44.1404 21.9915L43.2232 19.7686ZM30.3987 22.2673C27.8036 22.6262 25.2292 22.8667 23.0149 22.8667V25.2C25.4793 25.2 28.2483 24.9351 30.9297 24.5642L30.3987 22.2673ZM23.0149 22.8667C20.8006 22.8667 18.2262 22.6262 15.631 22.2673L15.1 24.5642C17.7814 24.9351 20.5505 25.2 23.0149 25.2V22.8667ZM15.631 22.2673C9.94237 21.4808 4.39072 20.1595 2.80661 19.7686L1.88947 21.9915C3.51317 22.3922 9.21418 23.7504 15.1 24.5642L15.631 22.2673ZM13.0585 17.5C13.0585 19.4059 13.4011 21.5474 13.8805 23.6211L16.8505 23.2104C16.3865 21.2035 16.0756 19.2125 16.0756 17.5H13.0585ZM13.8805 23.6211C14.9329 28.1731 16.6891 32.582 17.2072 33.8378L20.0815 33.1285C19.576 31.9034 17.8676 27.6099 16.8505 23.2104L13.8805 23.6211ZM17.2072 1.16219C16.616 2.59521 14.388 8.19255 13.4655 13.4005L16.4547 13.7172C17.3397 8.72077 19.4986 3.2844 20.0815 1.87147L17.2072 1.16219ZM13.4655 13.4005C13.2163 14.8073 13.0585 16.2059 13.0585 17.5H16.0756C16.0756 16.3439 16.2174 15.0565 16.4547 13.7172L13.4655 13.4005ZM23.0149 13.0667C20.6859 13.0667 17.9605 12.8007 15.2339 12.4116L14.6863 14.7062C17.4976 15.1074 20.4254 15.4 23.0149 15.4V13.0667ZM15.2339 12.4116C10.7371 11.7697 6.37908 10.8137 4.06067 10.2699L3.18489 12.5027C5.55097 13.0578 10.0305 14.0416 14.6863 14.7062L15.2339 12.4116ZM41.8818 10.297C41.9057 10.2874 41.9351 10.2779 41.9667 10.2704L42.8424 12.5033C42.9941 12.4677 43.1367 12.4222 43.272 12.3678L41.8818 10.297ZM2.66814 12.3233C2.82698 12.3984 2.99928 12.4592 3.18489 12.5027L4.06067 10.2699C4.12757 10.2856 4.18922 10.3076 4.24222 10.3327L2.66814 12.3233Z"
        fill="#00385F" />
</svg>
    