<svg width="92" height="85" viewBox="0 0 92 85" fill="none" xmlns="http://www.w3.org/2000/svg">
    <path
        d="M80.7927 29.3116C78.66 24.6067 82.3818 16.1609 78.5345 12.6129C74.6873 9.06484 65.5291 12.4972 60.4273 10.5303C55.4927 8.60206 51.6873 0.15625 46 0.15625C40.3127 0.15625 36.5073 8.60206 31.6145 10.4918C26.4709 12.4586 17.3127 9.02628 13.4655 12.5743C9.61818 16.1223 13.34 24.5681 11.2073 29.3116C9.15818 33.8238 0 37.3332 0 42.5781C0 47.823 9.15818 51.3325 11.2073 55.8446C13.34 60.5496 9.61818 68.9954 13.4655 72.5434C17.3127 76.0914 26.4709 72.6591 31.5727 74.6259C36.5073 76.5542 40.3127 85 46 85C51.6873 85 55.4927 76.5542 60.3855 74.6645C65.4873 72.6977 74.6455 76.13 78.4927 72.582C82.34 69.0339 78.6182 60.5881 80.7509 55.8832C82.8418 51.3325 92 47.823 92 42.5781C92 37.3332 82.8418 33.8238 80.7927 29.3116ZM41.8182 59.5854L26.3036 45.2777L32.2 39.84L41.8182 48.71L63.94 28.3089L69.8364 33.7467L41.8182 59.5854Z"
        fill="#1A5478" />
</svg>