<svg width="157" height="90" viewBox="0 0 157 90" fill="none" xmlns="http://www.w3.org/2000/svg">
    <path
        d="M157 4.48171V84.9029C157 87.3858 154.727 89.4058 151.986 89.4058H4.92036C2.24921 89.3637 0.046916 87.4071 0 84.9869V4.48171C0 2.01999 2.24921 0 4.99058 0H151.986C154.727 0 157 2.01999 157 4.48171Z"
        fill="#978650" />
    <g opacity="0.1">
        <path
            d="M94.3503 35.3065C94.3503 35.3065 93.9519 35.5588 93.7177 35.8537C93.6238 35.9798 93.3663 36.0426 93.1087 36.0638H93.0851C92.6634 36.106 92.1713 36.0638 91.9137 35.9586C91.4452 35.8116 91.2811 35.5375 90.9999 35.6218C90.9297 35.643 90.9064 35.664 90.8595 35.6849C90.6954 35.7901 90.6252 35.9162 90.1799 36.0423C89.5943 36.1687 89.6409 36.3373 89.6176 36.7159C89.5943 37.0946 89.7347 37.3262 89.571 37.5787C89.4305 37.8522 88.4462 37.747 87.8372 37.7049C87.6732 37.6839 87.5091 37.7049 87.3687 37.7682H87.3451V37.7891C86.9936 37.8943 86.6889 38.1466 86.2672 38.5046C85.6815 39.0306 85.8689 39.0515 85.0958 38.9463C84.9085 38.9042 84.6975 38.9254 84.4633 38.9675C83.854 39.0306 83.1981 39.325 82.6124 39.6197C81.8393 39.9986 82.3548 40.1669 82.2846 40.9242C82.2143 41.6609 82.0267 42.0395 81.5581 42.3548C81.0896 42.6707 80.7146 42.7129 79.9884 43.5544C79.9182 43.6175 79.8713 43.6809 79.8244 43.7439C79.2387 44.396 79.1449 44.4591 78.9109 44.4172C78.6297 44.396 78.8171 42.8393 78.8171 42.3548C78.8171 41.8919 79.0983 41.345 79.8011 40.819L79.8247 40.7978C80.5042 40.3139 80.9728 40.2087 81.5351 39.5566C82.0739 38.883 82.1441 38.4834 81.9335 38.1463C81.7225 37.8098 81.1368 38.7566 80.6916 38.9461C80.223 39.1143 80.1761 38.8409 79.8247 38.5671L79.8011 38.5462C79.6373 38.441 79.3795 38.4831 79.1216 38.5671V38.5883C78.7702 38.6933 78.3951 38.9039 78.2078 38.9251C77.9033 38.9461 77.5519 39.0934 77.0131 39.3881C76.9898 39.3881 76.9429 39.4093 76.9193 39.4302C76.3569 39.7455 76.1459 39.4933 75.5136 39.2617C74.9043 39.0094 74.2484 38.8409 73.3113 39.1777C72.9599 39.3038 72.4445 39.7037 71.9523 40.1666C71.9287 40.1878 71.8821 40.2087 71.8588 40.2299C71.0621 40.9875 70.3124 41.871 70.3826 42.1447C70.5231 42.6077 71.0854 42.5234 71.8352 42.923C72.5849 43.3228 71.9992 43.3228 71.718 44.2069C71.4369 45.0903 71.5307 45.1958 71.343 45.9531C71.1324 46.7104 69.8669 47.3419 69.5624 47.6151C69.2579 47.8888 68.5081 48.5622 67.7348 48.457C66.9617 48.3305 66.9617 48.962 66.3757 49.8667C65.8134 50.7713 66.2353 50.5191 66.3521 51.0241C66.4696 51.508 65.8603 52.7076 65.415 53.1072C64.9934 53.5068 64.5951 52.7704 64.8057 51.9709C64.9931 51.1503 64.5482 51.5501 64.056 51.4028C63.5405 51.2345 64.4074 50.9189 64.3136 50.4981C64.2434 50.0773 63.6577 50.456 63.4467 50.5403C63.2361 50.6452 62.9782 50.8135 62.5565 50.4139C62.1818 50.0773 62.252 49.93 62.2753 49.9088C62.2051 49.9719 61.7366 50.3927 61.1509 50.8765C60.4947 51.4237 61.268 51.1081 61.9945 51.2764C62.7206 51.4235 62.4161 51.2764 63.0487 51.5499C63.6813 51.8443 62.5801 51.8652 62.1349 52.0128C61.7133 52.1392 61.7366 52.3703 62.2284 52.6864C62.697 53.0017 63.0018 53.5068 63.2124 54.7064C63.4467 55.9057 62.6031 56.1792 61.8301 57.0629C61.0335 57.9678 59.5809 58.3674 58.5969 58.62C57.5896 58.8725 57.8471 59.23 57.0036 59.1038C56.1836 58.9565 56.5117 58.8092 55.8086 59.0198C55.1058 59.2509 55.8086 59.756 56.4881 60.4717C57.1676 61.1872 56.3008 62.8285 55.8319 63.0386C55.3634 63.2281 55.2462 63.8802 54.6369 63.7959C54.0043 63.7119 54.1684 63.2699 53.5827 62.9965C52.9734 62.7021 53.5122 63.7331 53.9574 64.8691C54.379 65.9633 54.8476 65.9423 55.0116 66.5523C55.0116 66.5732 55.0349 66.6154 55.0349 66.6575C55.1052 67.0992 54.5897 67.0152 53.9571 66.6575C53.8866 66.6154 53.84 66.5945 53.7697 66.5523C53.395 66.3213 53.02 66.0263 52.6686 65.6898C51.6613 64.7009 51.7315 64.8482 51.4034 63.7959C51.0756 62.7439 51.0989 62.6387 50.677 62.365C50.2553 62.0706 50.3492 61.8811 50.4427 61.4182C50.5362 60.9343 48.3106 58.6828 47.4204 58.5988C46.5067 58.5145 46.7878 58.8092 46.3426 59.2721C45.8974 59.756 44.89 60.198 44.1636 60.64C43.4372 61.1032 43.4841 61.4185 43.4841 62.6812C43.4841 63.9223 43.0858 63.8805 41.727 64.2382C40.3683 64.5957 41.0242 63.249 40.6026 62.9543C40.181 62.6811 39.6888 61.2921 39.4545 59.819C39.197 58.3253 39.0093 59.5037 37.791 59.1878C36.5963 58.8725 37.1115 57.715 36.3148 57.3154C35.5182 56.9158 35.2137 57.0838 34.464 57.3997C33.7142 57.715 32.9176 57.3154 32.4257 56.7473C31.9572 56.1792 31.3246 56.5369 30.4577 56.3686C29.5908 56.2213 29.872 56.0109 29.099 55.9054C28.3259 55.7793 29.1692 56.5157 29.7083 57.2312C30.2237 57.9466 30.8563 57.5889 32.6836 58.2201C34.5112 58.8513 32.871 59.125 32.1448 59.7772C31.4184 60.4296 30.8094 60.5138 29.8018 60.9977C28.7945 61.5028 28.4195 61.5449 27.3652 61.9233C26.3343 62.3022 26.1 62.0285 25.3972 61.7762C24.6944 61.5237 24.2258 60.3241 23.4292 58.7882C22.6092 57.2312 22.0469 56.2213 21.4379 55.5477C20.8286 54.8744 20.9693 55.695 21.1567 56.1792C21.3676 56.6421 21.8126 57.2733 22.2811 58.4938C22.7733 59.6932 22.6795 59.2721 22.9373 60.1349C23.2185 60.9768 24.5776 62.8282 25.3972 63.2281C26.2172 63.6489 28.1852 62.9122 29.1692 62.891C30.1765 62.8698 29.099 63.333 28.2088 65.1426C27.5293 66.5105 27.1779 66.321 26.4984 66.5523C26.2877 66.6366 26.0298 66.763 25.7017 66.9943C24.3896 67.9623 24.2724 69.0146 24.0851 70.2346C24.0382 70.6556 24.0618 71.0343 24.1084 71.413C24.1084 71.4551 24.1084 71.4972 24.1317 71.5182C24.155 71.7286 24.1786 71.9599 24.2252 72.1706C24.2485 72.2967 24.2721 72.4437 24.2721 72.5914C24.2954 72.7175 24.3188 72.8645 24.3188 73.0122C24.3421 73.2016 24.3657 73.433 24.3421 73.6436C24.3421 73.6648 24.3421 73.7067 24.3188 73.7279C24.3188 73.8962 24.2721 74.0432 24.1783 74.1908C24.1081 74.4012 23.944 74.6116 23.78 74.8011C23.2878 75.3901 22.585 75.8949 22.2103 76.316C22.1165 76.4212 22.0462 76.5264 21.9993 76.6104C21.976 76.6525 21.9527 76.6947 21.9527 76.7368C21.9058 76.842 21.8825 76.9472 21.8589 77.0315C21.812 77.1785 21.7887 77.3049 21.7654 77.4523C21.6715 77.81 21.5544 78.2939 21.1561 79.2407C21.0858 79.388 21.0389 79.5144 20.9687 79.6196C20.8749 79.7879 20.758 79.9352 20.6642 80.0407C20.5704 80.1668 20.4535 80.2508 20.3364 80.3351C19.985 80.5667 19.6103 80.6297 19.2117 80.7559C18.9541 80.8401 18.6729 80.9665 18.4153 81.1769C17.5251 81.9133 17.1265 82.0185 16.213 82.3341C16.0959 82.3763 15.9551 82.4393 15.8147 82.4815C14.5731 82.9444 13.2141 82.2289 13.0736 81.5768C12.9332 80.9244 13.3079 80.8401 13.1438 79.7669C13.0034 78.6937 11.6677 76.5476 11.1991 75.4954C10.7306 74.4434 11.0351 74.2332 11.8084 73.1179C12.5582 71.9816 11.2694 70.7608 10.5432 69.4566C9.81679 68.1518 9.77018 68.8672 9.77018 67.9417C9.77018 67.0158 9.69996 66.6999 8.88001 66.3215C8.08335 65.9426 7.5915 65.7113 6.20886 65.3957C4.82652 65.0801 4.84983 65.7746 3.51441 65.6061C2.15568 65.4169 2.2259 65.7955 1.35903 65.7113C0.960705 65.6691 0.468854 65.3957 0 65.0801V53.6971C0.492158 53.3603 1.31212 53.1711 2.43687 52.8134C4.1237 52.2874 3.84251 52.7503 5.31868 52.3714C6.79485 51.9927 8.59882 51.6143 9.60644 51.6771C10.6374 51.7402 10.4733 52.4135 10.4733 52.9395C10.4733 53.4446 10.7309 53.3606 12.0197 53.655C13.3318 53.9493 12.629 54.3283 13.5894 54.4965C14.5734 54.686 14.2453 54.3283 14.7138 53.634C15.1591 52.9395 15.4636 53.634 16.7052 54.1812C17.9704 54.7494 17.8765 54.4125 19.4465 54.2655C20.9929 54.097 21.1334 54.3073 21.4848 54.1603C21.8362 54.0339 21.8831 52.5823 21.6721 51.9296C21.4379 51.2775 21.0631 51.7826 20.2429 51.7826C19.7041 51.7826 19.5165 51.6774 19.5401 51.4248C19.5401 51.2778 19.587 51.0883 19.6805 50.8355C19.7038 50.7934 19.7038 50.7515 19.7274 50.7303C19.8679 50.3726 19.985 50.2883 20.2898 50.1831C20.4539 50.12 20.7114 50.057 21.0628 49.9096C21.0861 49.8887 21.1331 49.8887 21.1567 49.8887V49.8675C21.4848 49.7623 21.8362 49.6992 22.1876 49.6783C22.7969 49.6152 23.3826 49.6152 23.8278 49.3836C23.9213 49.3206 23.9919 49.2784 24.0152 49.2363C24.1556 49.0053 23.4528 48.7946 23.0076 48.5208C22.914 48.479 22.8435 48.4368 22.7733 48.3738C22.4921 48.1003 22.4921 47.8478 22.5623 47.5531C22.6092 47.3849 22.6795 47.1954 22.7497 46.985C22.9137 46.4169 22.3513 46.8167 21.6954 47.1533C21.0395 47.4901 21.8126 47.6162 21.5314 48.0791C21.3909 48.3104 21.1567 48.2895 20.9457 48.1631C20.8053 48.1 20.6881 47.9742 20.5943 47.8266C20.5241 47.7635 20.4772 47.7002 20.4539 47.6371C20.3367 47.4061 20.1727 47.4061 19.9148 47.5531C19.7274 47.6371 19.4931 47.8057 19.165 48.016C18.626 48.3529 18.8136 48.6054 18.8605 49.0262C18.8839 49.1523 18.8839 49.2784 18.8605 49.4258C18.8605 49.51 18.8136 49.594 18.7903 49.6783C18.6263 50.12 18.3451 50.1622 18.0639 50.1412C17.7827 50.1412 17.5015 50.0991 17.3611 50.3304C17.0566 50.7934 17.2672 51.1511 16.7049 51.2354C16.1661 51.3406 16.3771 51.6143 16.1192 51.9718C15.8849 52.3295 15.3225 51.6983 15.229 51.004C15.1355 50.3095 14.1981 49.5522 14.1045 49.1942C14.0107 48.8367 12.9565 48.4159 12.3941 48.2474C11.855 48.1 12.2068 48.6051 12.6517 49.089C13.0969 49.5522 13.9402 49.6992 14.0107 50.2043C14.0576 50.7303 13.6357 50.4568 13.3079 50.7515C12.9798 51.0462 13.1438 51.6564 12.6517 51.8454C12.1362 52.056 12.2064 51.2775 12.3236 50.5832C12.4407 49.9096 11.7143 49.7835 11.1991 49.3415C10.6604 48.8786 9.8401 48.4581 9.55922 48.2474C9.30164 48.0582 8.57521 48.7946 7.77855 48.7734C7.00551 48.7524 7.31001 48.6263 7.00551 48.9419C6.70102 49.2572 6.3493 49.8044 5.83414 49.8887C5.31868 49.9939 5.0611 50.3304 4.96727 50.8564C4.85013 51.4036 4.40489 51.4458 3.63185 51.7402C2.8585 52.0348 1.80427 51.6771 1.14837 51.4667C0.492158 51.2775 0.609295 50.8352 0.796959 50.3726C0.86718 50.2255 0.890484 50.0151 0.961012 49.7832C1.07815 49.2994 1.26551 48.71 1.92141 48.4999C2.1793 48.4156 2.36665 48.3947 2.53071 48.3947C2.55401 48.3738 2.55401 48.3738 2.55401 48.3738C3.02256 48.3529 3.25683 48.5002 3.7959 48.3738C4.52234 48.1843 4.28776 47.8687 4.26445 46.9638C4.26445 46.9219 4.26445 46.8798 4.24115 46.8377C4.14732 46.1222 3.18692 46.3959 3.04647 45.8699C2.92934 45.3227 3.88974 45.6805 5.55357 45.4489C5.67071 45.4279 5.78784 45.4067 5.88137 45.3646C6.51397 45.1963 6.74824 44.8386 6.88868 44.4597C7.02912 44.081 7.07604 43.6605 7.33392 43.4707C7.91961 43.029 8.27102 42.8814 8.48199 41.9979C8.71626 41.1145 9.4893 40.7774 10.1921 41.0302C10.3326 41.0933 10.4264 41.1563 10.4733 41.2406C10.6374 41.5353 10.2157 41.9561 10.2623 42.3557C10.3093 42.8817 11.0121 42.7767 11.4573 42.8817C11.879 42.9659 13.7301 42.6715 14.3624 42.2505C14.8546 41.8927 15.206 41.5771 15.6276 41.2827C15.7212 41.2197 15.815 41.1357 15.9321 41.0724C16.5178 40.7146 16.0726 40.483 16.2133 40.3148C16.3305 40.1256 16.799 39.6414 16.6116 39.1154C16.4243 38.6734 15.7917 38.8841 15.3934 38.6104C15.3464 38.5682 15.2998 38.5054 15.2529 38.4421C15.0186 38.0844 15.1827 37.6845 15.3934 37.3058C15.4872 37.1373 15.5807 36.969 15.6746 36.8008C15.7448 36.6534 15.7448 36.5692 15.6979 36.5692C15.6509 36.5273 15.5338 36.5692 15.3934 36.6113C15.1827 36.6956 14.9248 36.822 14.7138 36.9062C14.1751 37.1373 13.847 37.6214 13.3548 38.2738C13.1675 38.5264 13.0736 38.7368 13.0503 38.9472C13.027 38.9684 13.027 38.9684 13.027 38.9684C12.9568 39.3049 13.0503 39.6205 13.0739 40.0204C13.1208 40.6725 12.0666 41.3037 11.5745 41.2197C11.3169 41.1566 11.1761 40.9462 11.0826 40.6937C11.0357 40.4833 11.0124 40.2308 10.9888 40.0416C10.9419 39.6417 10.6374 39.3892 10.239 39.5156C9.84071 39.6629 9.04406 39.9785 8.27102 39.7888C7.49767 39.6205 7.73225 38.6316 8.10697 37.7688C8.48199 36.9062 8.69265 37.1794 9.93454 36.6113C11.1997 36.0641 10.848 35.833 11.8556 35.0542C12.8397 34.2548 13.0506 33.7079 14.0346 33.0555C14.995 32.4031 15.6512 32.1717 18.0878 31.9401C19.9856 31.7509 19.6109 31.9823 19.8449 32.3818C19.8682 32.4661 19.9387 32.5504 20.0555 32.6347C20.0788 32.6768 20.1257 32.7189 20.1727 32.7399C20.7583 33.1188 21.2036 33.2452 21.766 33.3501C22.0705 33.4132 22.4219 33.4553 22.8435 33.5605C24.0618 33.834 23.9446 34.192 24.0854 34.4443C24.2494 34.6968 23.5466 35.1385 22.914 35.1597H22.6328V35.1388C22.1876 35.1179 21.93 34.9705 21.6488 34.8653C21.2974 34.7392 21.5317 35.16 21.766 35.4125C21.9533 35.6017 22.2345 35.6651 22.6798 35.6651C22.7969 35.6651 22.9609 35.6441 23.1014 35.6229C23.8042 35.5599 24.8118 35.1179 25.1163 35.1812C25.2335 35.2021 25.4677 35.1812 25.7489 35.1181C26.2408 34.9917 26.9203 34.8237 27.4124 34.6973C28.1855 34.4867 28.1855 34.0449 28.4903 33.8557C28.7246 33.6875 29.24 33.6453 30.3645 33.7296C30.5518 33.7505 30.7861 33.7505 31.0207 33.7717C32.5904 33.8769 32.4263 33.6244 33.4339 33.2664C33.8556 33.1191 34.1604 33.0981 34.418 33.1403C34.793 33.1824 35.0975 33.3295 35.5427 33.3295C36.3158 33.3295 37.4405 32.9084 37.8152 32.4457C37.8385 32.4248 37.8385 32.4036 37.8621 32.4036C38.1903 31.9828 38.3543 32.1723 38.94 31.8564C39.5726 31.5199 39.3849 31.562 41.0485 31.2885C42.7353 31.0151 43.1805 31.6675 43.907 31.2885C44.6331 30.9096 43.5555 30.0471 43.7662 29.8155C43.9536 29.5632 45.5702 29.7733 46.273 29.5002C46.9761 29.2052 46.5542 28.8266 46.8823 28.4903C47.2104 28.1326 48.4989 27.9852 49.811 27.88C51.1464 27.7536 51.0762 28.1744 51.6619 28.0271C52.2243 27.901 52.0602 27.522 52.5288 27.438C52.9973 27.375 52.9973 27.1431 53.2785 27.017C53.5597 26.8908 54.5201 26.9118 55.2698 27.3326C56.0432 27.7534 56.1836 27.2695 56.98 27.3326C57.7766 27.3956 57.4252 28.0268 57.4252 28.3215C57.4252 28.6162 56.8395 29.2261 56.3477 29.4156C55.8791 29.626 56.3008 29.8995 57.0036 29.8573C57.7064 29.8152 58.1516 29.5839 58.9952 29.5208C59.8152 29.4787 60.1197 29.626 60.893 29.9416C61.666 30.2569 62.3223 30.2569 62.8141 30.152C63.3296 30.0259 63.1655 29.626 63.4467 29.542C63.7279 29.4368 65.1339 29.9628 65.8836 30.2363C66.6333 30.5097 65.7664 30.8253 65.8836 31.12C65.9771 31.3932 66.8443 31.8983 67.4064 31.8352C67.9451 31.7721 67.7345 31.2673 68.6246 31.3092C69.5384 31.3513 69.796 31.3513 70.7567 31.0779C71.7407 30.8251 71.6705 30.6149 73.0998 30.6989C74.529 30.8041 74.5057 30.9093 74.9976 30.9724C75.4897 31.0355 75.7004 30.846 76.6844 31.1197C77.6448 31.372 77.3403 32.0032 77.5982 32.1296C77.8558 32.2557 78.2777 32.2136 79.285 32.1505C79.5662 32.1296 79.7303 32.1296 79.8238 32.1505C80.105 32.1927 80.0347 32.3819 80.4564 32.6344C81.0421 32.9918 80.6673 33.0761 81.0421 33.013C81.1123 33.013 81.2061 32.9921 81.2996 32.9709C81.651 32.9078 82.0963 32.7817 82.7522 32.7396C83.6191 32.6556 83.5958 32.7605 84.0876 33.0552C84.5798 33.3286 84.9781 33.2865 85.4936 33.0761C85.9854 32.8448 85.634 32.6344 85.7042 32.6344C85.7981 32.6344 86.7115 32.8026 88.0003 32.9497C88.3754 32.9918 88.6566 33.0549 88.9141 33.1182C89.4998 33.2656 89.8748 33.4548 90.6948 33.7285C90.9524 33.8125 91.1634 33.8968 91.3041 34.0017C91.8196 34.2966 91.7726 34.612 92.171 34.8854C92.7097 35.2432 92.7097 34.9485 93.2019 34.7593C93.2488 34.7384 93.2721 34.7384 93.2954 34.7384C93.741 34.591 93.9755 34.9278 94.3503 35.3065Z"
            fill="white" />
        <path
            d="M72.3651 47.5514C72.6926 47.6597 73.3169 48.1138 73.6925 48.0915C74.0682 48.0689 74.2687 48.5189 73.9679 48.5638C73.6674 48.6086 72.6653 49.0361 72.6653 49.0361C72.6653 49.0361 72.3648 48.6987 72.1894 49.0361C72.014 49.3734 71.9137 49.621 71.964 49.8234C72.014 50.0258 72.3648 50.6107 72.1645 50.9032C71.964 51.1957 71.6886 51.3532 71.6886 51.7131C71.6886 52.0731 71.9391 52.4556 71.5884 52.6131C71.2376 52.7706 70.8871 52.8155 70.5862 52.9056C70.2857 52.9956 70.0604 53.0179 69.9349 53.2655C69.8098 53.5131 69.509 53.873 68.8829 53.8504C68.2567 53.8279 68.2567 53.3781 67.6805 53.8055C67.1043 54.233 67.0795 54.4805 66.7787 54.3679C66.4782 54.2555 66.7036 54.098 66.7787 53.6706C66.8538 53.2432 65.7518 53.3556 66.7536 52.8607C67.7557 52.3658 67.7556 52.2983 68.4318 52.2083C69.1082 52.1182 69.4839 52.4107 69.7595 51.8932C70.0349 51.3758 69.7596 51.1734 70.3106 51.1508C70.8616 51.1282 71.2124 51.3532 71.3127 50.7908C71.413 50.2285 71.3378 49.7559 71.3127 49.396C71.2875 49.0361 71.1373 48.6987 71.5884 48.5638C72.0394 48.4288 72.0894 48.6761 72.1394 48.3614C72.1897 48.0466 71.8892 47.3942 72.3651 47.5514Z"
            fill="white" />
        <path
            d="M62.2952 59.75C62.7711 59.8175 62.9965 60.5822 62.8462 60.8973C62.696 61.2123 62.5457 61.5723 62.9714 61.6397C63.3973 61.7072 63.6978 61.7521 63.6978 62.0222C63.6978 62.2921 63.8732 61.7298 64.1988 62.4497C64.5245 63.1695 64.224 63.2822 64.5996 63.8219C64.9753 64.362 65.4263 64.6318 64.9001 64.9017C64.3742 65.1716 64.775 65.4641 64.2237 65.3066C63.6726 65.149 63.898 65.2391 63.6227 64.7668C63.347 64.2945 63.1719 64.6767 62.9214 64.6544C62.6708 64.6318 62.5957 64.6318 62.7963 64.3171C62.9965 64.002 63.0968 64.0246 62.8714 63.6647C62.646 63.3047 62.9965 62.8773 62.6708 62.8099C62.3452 62.7424 62.2449 63.2373 61.6687 63.5523C61.0926 63.8674 60.241 63.9571 60.2662 63.8448C60.2913 63.7324 60.617 63.5749 61.1429 62.99C61.6687 62.405 61.9944 62.765 61.8944 61.8653C61.7942 60.9653 61.4437 61.2129 61.7693 60.5831C62.095 59.9524 62.2952 59.75 62.2952 59.75Z"
            fill="white" />
        <path
            d="M60.6918 64.8531C61.0708 65.1935 61.5685 65.1007 61.4182 65.438C61.268 65.7754 60.8215 65.8206 61.0699 66.1579C61.3182 66.4953 61.5436 66.9904 61.8693 66.9453C62.1949 66.9004 62.1698 66.6754 62.9713 66.6754C63.7729 66.6754 64.274 66.5179 64.3239 66.8103C64.3739 67.1028 63.9731 67.1254 63.4473 67.5528C62.9214 67.9802 62.3952 68.4076 62.8211 68.6775C63.247 68.9474 63.4221 69.4422 63.2719 69.6223C63.1216 69.8024 62.9713 69.9823 63.3218 70.2073C63.6726 70.4323 65.3509 70.3648 64.9501 70.9046C64.5493 71.4446 63.5724 71.7368 62.5454 71.7594C61.5185 71.7819 62.344 71.5118 60.2655 71.332C58.1871 71.1519 57.8363 71.6244 56.3835 70.9946C54.9306 70.3648 53.9788 70.9046 53.1772 69.7573C52.3757 68.61 52.7013 69.1723 51.6992 67.9802C50.6974 66.788 51.1733 66.788 50.3215 66.3154C49.47 65.8432 48.7435 65.1682 49.3194 65.1682C49.8956 65.1682 49.6199 64.5607 51.3984 65.888C53.1769 67.2154 52.701 67.1477 54.0036 67.9353C55.3063 68.7226 55.7319 68.8127 56.2081 68.7226C56.684 68.6326 57.3853 68.7226 56.9345 68.2052C56.4837 67.6877 56.2332 67.0353 56.6089 66.923C56.9845 66.8106 56.9597 67.3729 57.5858 66.7654C58.212 66.1579 58.212 66.0007 58.763 65.798C59.314 65.5956 59.0135 65.798 59.5394 65.5055C60.0656 65.2131 60.2659 64.4709 60.6918 64.8531Z"
            fill="white" />
        <path
            d="M67.5806 67.4635C67.8532 67.7783 68.307 68.1834 68.5073 68.5208C68.7078 68.8581 69.0835 68.2349 69.8099 68.2542C70.5363 68.2735 71.6136 68.6331 72.0643 68.8132C72.5151 68.9933 73.2918 69.1057 73.7677 69.6906C74.2436 70.2755 74.5944 69.9382 74.6192 70.5231C74.6444 71.1081 74.7444 71.0406 75.1703 71.3779C75.5962 71.7153 75.6713 72.3454 74.9197 72.0752C74.1682 71.8053 73.9428 70.8831 73.1412 70.9728C72.3397 71.0629 72.6653 71.2653 72.0392 71.3777C71.413 71.49 71.1373 71.2876 70.3861 71.2427C69.6345 71.1978 69.0835 71.4228 69.4343 70.8153C69.7851 70.2078 70.0356 70.1855 68.8081 69.7355C67.5806 69.2855 67.1047 69.5105 67.1047 69.0382C67.1047 68.5659 67.3053 68.5208 66.829 68.1159C66.3531 67.7111 66.2029 67.4186 66.5034 67.216C66.8042 67.0135 67.4052 67.2611 67.5806 67.4635Z"
            fill="white" />
        <path
            d="M69.0332 73.9417C69.8599 74.3242 70.1856 75.089 70.5863 74.954C70.9871 74.8191 70.8369 74.5941 71.1374 73.7842C71.4379 72.9742 71.463 72.142 71.8387 72.4794C72.2143 72.8167 71.8638 73.4754 72.4648 73.6861C73.0661 73.8968 73.1913 74.0543 73.3164 74.6841C73.4415 75.314 73.5669 75.1115 74.193 75.7639C74.8192 76.4163 75.3816 76.304 75.4886 77.0462C75.5956 77.7886 76.6477 78.5534 76.698 79.3181C76.748 80.0829 76.8985 80.6229 76.2721 81.5904C75.6459 82.5576 75.3954 83.0527 75.1948 83.4575C74.9943 83.8624 74.3933 84.065 73.742 84.065C73.0907 84.065 72.715 83.8175 72.3143 83.9075C71.9135 83.9976 71.6378 84.4476 71.1619 84.1325C70.686 83.8175 70.4103 83.4126 70.2601 83.1651C70.1098 82.9175 70.0347 82.0853 69.3334 82.1753C68.6321 82.2654 68.7324 82.5801 68.3065 82.1753C67.8805 81.7705 68.1811 81.4329 66.9287 81.253C65.6764 81.0729 65.3508 80.9831 64.8246 81.0955C64.2987 81.2081 63.7473 81.3654 63.1715 81.7705C62.5953 82.1753 61.6935 81.9729 61.1927 82.1753C60.6917 82.3777 59.9404 82.8277 59.3891 82.5578C58.838 82.2879 59.0383 82.153 59.0634 81.5229C59.0885 80.8931 59.0383 81.3205 58.6878 80.2407C58.337 79.1609 58.4872 79.3184 58.1619 78.801C57.8362 78.2835 57.5857 78.5311 58.0368 77.7886C58.4875 77.0462 58.3373 76.8889 58.5878 76.6413C58.8383 76.394 59.0637 76.7088 59.9152 76.1914C60.7668 75.6739 61.0173 75.8989 61.794 75.629C62.5704 75.3591 62.7458 74.3242 63.2218 74.0092C63.6977 73.6941 63.8231 73.4468 64.1736 73.4468C64.5241 73.4468 64.9251 73.6269 65.5513 73.8516C66.1775 74.0766 66.0524 74.0989 66.5782 73.5817C67.1041 73.0643 66.5782 72.5694 67.5301 72.6595C68.4819 72.7495 68.8327 72.6146 68.9578 73.1095C69.0835 73.6043 69.0332 73.9417 69.0332 73.9417Z"
            fill="white" />
        <path
            d="M86.417 84.5596C86.9181 83.9746 87.1686 83.9072 86.9932 83.2325C86.8178 82.5575 86.8678 82.0282 87.5191 82.6305C88.1704 83.2327 88.8968 83.5701 89.3979 83.5924C89.8989 83.615 91.1013 83.9523 89.8738 84.7846C88.6463 85.6171 88.8717 85.0321 87.895 86.2692C86.9184 87.5062 87.6697 87.5288 86.4925 88.1363C85.3153 88.7439 84.0127 89.0137 84.2632 88.4737C84.5137 87.9337 84.3883 87.9337 85.4655 87.2138C86.5427 86.4939 87.244 85.9542 87.244 85.3466C87.244 84.7391 86.417 84.5596 86.417 84.5596Z"
            fill="white" />
        <path
            d="M26.601 78.488C26.1502 77.9031 26.1502 77.7233 26.0999 76.7784C26.0499 75.8335 25.6991 75.3836 26.0999 74.8438C26.5007 74.3037 27.5528 73.404 27.9536 72.7742C28.3543 72.1444 28.4546 70.7947 28.7051 72.0095C28.9557 73.2242 29.7572 73.9441 28.5549 75.5639C27.3525 77.1832 26.601 78.488 26.601 78.488Z"
            fill="white" />
        <path
            d="M2.50364 45.0131C2.40336 44.833 2.85443 44.2483 2.85443 44.2483C2.85443 44.2483 3.40547 43.9784 3.25521 42.9884C3.10496 41.9986 3.00469 42.5836 2.60391 41.6387C2.20313 40.6938 1.60181 40.8739 2.20313 40.2438C2.80414 39.614 3.50574 38.6692 3.65599 39.4339C3.80624 40.1987 3.45575 40.6938 3.80624 41.0538C4.15704 41.4137 4.85833 41.4881 5.25911 42.0807C5.65989 42.6733 7.263 42.8983 6.06067 43.6631C4.85833 44.4279 4.3073 43.933 3.85653 44.473C3.40577 45.0131 2.50364 45.0131 2.50364 45.0131Z"
            fill="white" />
        <path
            d="M0.900619 44.2923C1.70218 43.8874 1.99502 43.9772 1.94872 43.2573C1.90241 42.5375 2.45345 41.9077 1.60191 41.8625C0.750365 41.8176 0.499839 42.2673 0.399568 42.5824C0.299296 42.8974 0.299296 42.9872 0.549822 43.3022C0.800347 43.6173 0.85033 44.067 0.750365 44.292C0.6504 44.517 0.900619 44.2923 0.900619 44.2923Z"
            fill="white" />
        <path
            d="M156.989 73.3634C156.834 73.6949 156.748 74.0827 156.804 74.8389C156.904 76.1894 156.954 76.0534 156.654 76.7295C156.353 77.4039 155.252 77.4937 154.349 77.9888C153.448 78.484 153.398 78.0786 152.797 79.4291C152.196 80.7783 152.545 80.0589 152.044 81.2282C151.544 82.3978 152.245 81.8132 150.792 82.4876C149.339 83.162 148.788 82.5774 148.638 82.9827C148.488 83.3881 149.489 83.0725 148.439 83.9279C147.386 84.7819 146.934 85.0077 146.283 85.3668C145.632 85.7273 145.231 86.1327 145.383 86.8969C145.532 87.6611 146.283 87.6162 145.433 88.3374C144.608 89.0328 144.253 88.384 144.004 89.3963H140.072V89.2809C140.072 88.2011 139.922 89.0119 140.523 87.1676C141.124 85.3219 140.122 85.9515 140.623 83.9279C141.124 81.9027 141.024 79.7428 141.524 78.2576C142.025 76.7741 143.128 77.1792 142.025 75.8287C140.922 74.4795 140.723 74.704 139.772 73.8034C138.819 72.9046 139.421 73.0841 138.869 72.004C138.318 70.9242 137.968 71.014 137.517 70.2049C137.066 69.3942 136.816 69.6649 137.265 68.3144C137.717 66.9652 136.716 67.0101 137.717 66.6047C138.72 66.201 138.57 65.2107 138.418 64.8502C138.268 64.4914 139.171 64.3551 137.767 64.1758C136.364 63.9965 135.963 64.3999 135.463 63.636C134.962 62.8718 135.362 62.7355 134.311 62.2869C133.258 61.8366 132.106 61.8366 131.705 61.4761C131.305 61.1156 131.305 61.1156 131.305 61.1156C131.305 61.1156 132.056 60.8466 130.352 60.667C128.65 60.4861 127.396 60.667 126.545 59.5872C125.694 58.5074 125.894 59.137 125.694 58.1469C125.493 57.1566 125.243 57.1566 124.442 56.5271C123.639 55.8973 123.639 55.5368 122.888 55.2677C122.137 54.997 121.987 55.0884 121.987 55.2228C121.987 55.3572 121.937 55.8973 122.639 56.3924C123.34 56.8876 123.39 57.3378 123.39 57.562C123.39 57.7862 122.437 58.0571 122.437 58.0571C122.437 58.0571 122.437 57.7864 122.137 57.1566C121.836 56.5271 121.736 56.2129 121.134 55.447C120.533 54.6828 120.383 54.593 120.383 54.593C120.383 54.593 119.682 53.603 118.48 52.2987C117.277 50.9928 116.926 51.8036 116.926 50.3184C116.926 48.8332 117.227 48.8332 116.926 47.798C116.626 46.7645 115.925 46.2696 116.526 46.0884C117.128 45.9091 117.477 45.6398 116.376 44.7842C115.274 43.9285 114.873 44.3788 114.471 43.2092C114.072 42.0396 114.923 42.1294 113.271 41.5893C111.617 41.0493 111.417 40.599 110.664 40.2851C109.913 39.9695 109.462 39.7899 109.462 39.7899C109.462 39.7899 109.613 39.6553 107.81 39.5192C106.006 39.3846 106.206 38.6204 104.854 39.1155C103.585 39.5801 103.33 39.6875 103.302 39.6988C103.341 39.6556 104.015 38.893 102.749 38.9795C101.446 39.0706 101.748 39.34 101.698 39.88C101.648 40.42 101.848 41.0496 100.947 41.3652C100.044 41.6791 98.7419 42.5348 99.2432 41.6342C99.7446 40.7354 100.997 40.1058 100.546 39.8797C100.094 39.6556 99.1433 40.3749 99.0415 39.6556C98.9415 38.9346 99.1433 38.5757 98.0906 38.5309C97.0382 38.486 96.187 38.0806 96.9882 37.765C97.7892 37.451 98.542 37.5854 98.7919 36.8212C99.0415 36.0554 100.895 35.8761 98.8419 35.9207C96.7886 35.9656 95.8858 35.9656 96.1373 35.6051C96.3872 35.2463 96.2872 34.5716 97.7395 34.7511C99.1936 34.9307 99.1936 34.3906 98.8419 34.0318C98.0605 33.229 96.7886 33.1762 97.7895 32.6813C98.7922 32.1861 99.3932 31.8722 100.346 31.691C101.297 31.5117 102.299 31.8722 103.851 32.231C105.405 32.5915 107.91 32.2759 109.062 32.5915C110.215 32.9071 110.764 33.5366 111.116 33.492C111.467 33.4455 112.468 32.5017 113.471 32.5017C114.472 32.5017 114.973 32.3671 117.028 32.5915C119.082 32.8157 121.085 32.9071 121.135 33.3557C121.185 33.806 121.185 34.0318 121.938 34.0318C122.689 34.0318 123.34 33.6264 123.792 34.2562C124.241 34.8858 124.942 35.336 124.843 34.8409C124.743 34.3457 124.241 33.9404 124.643 33.7611C125.044 33.5815 126.196 33.492 126.496 33.5815C126.798 33.6713 127.749 33.806 128.05 33.7611C128.35 33.7162 128.15 33.2659 129.151 33.5366C130.154 33.806 130.303 34.4804 130.505 34.5253C130.705 34.5718 131.156 33.8349 131.206 33.3477C131.256 32.8606 131.705 32.8606 130.805 32.231C129.904 31.6015 130.717 30.837 131.363 31.1063C132.007 31.377 131.606 31.7361 132.257 32.3208C132.908 32.9071 133.01 33.4006 133.459 33.2213C133.91 33.0418 133.661 32.2759 134.262 32.8608C134.863 33.4458 135.013 33.1525 135.564 33.0514C136.116 32.952 135.664 32.6364 136.315 32.952C136.967 33.2659 138.069 33.6264 137.266 34.2114C136.465 34.7963 135.263 34.7065 134.412 35.1568C133.559 35.6054 133.811 35.4707 133.559 36.0108C133.309 36.5508 133.409 36.5957 132.409 36.8215C131.406 37.0457 131.104 36.8664 131.156 37.6306C131.206 38.3948 131.104 38.4862 130.755 38.89C130.403 39.2953 130.605 39.6558 131.005 39.8354C131.406 40.0149 131.858 39.7007 131.858 40.2408C131.858 40.7808 132.609 41.1845 133.611 41.1845C134.612 41.1845 135.063 41.4103 135.665 42.085C136.266 42.7595 135.413 42.8044 136.416 43.66C137.418 44.514 138.369 44.9194 138.521 44.1552C138.671 43.3893 138.521 43.2097 138.671 42.3111C138.821 41.4106 139.773 41.3208 139.272 40.5101C138.771 39.701 138.02 39.3405 138.721 38.8902C139.422 38.4416 138.571 38.025 139.773 37.8055C140.976 37.586 141.777 37.4064 142.278 38.2155C142.778 39.0263 142.228 39.5661 142.728 39.9252C143.229 40.2856 144.783 39.7456 145.083 39.43C145.384 39.1161 146.235 39.1607 146.537 40.3305C146.836 41.5001 147.036 41.8157 147.488 41.9504C147.939 42.085 147.939 42.3558 148.49 42.8044C149.042 43.2546 150.093 43.9756 148.49 44.1103C146.887 44.2449 145.584 44.0654 144.983 44.5605C144.382 45.054 144.332 44.6952 144.733 45.3696C145.133 46.0441 144.833 45.5938 145.133 46.4494C145.434 47.3051 146.937 47.3051 145.834 47.8897C144.733 48.4747 144.933 48.609 144.282 48.4298C143.63 48.2488 143.481 46.9573 142.728 48.0084C141.977 49.0593 142.077 49.4633 141.426 49.7789C140.774 50.0945 140.725 49.4633 140.123 50.4533C139.522 51.4436 140.475 51.5331 139.122 52.6578C137.768 53.7828 137.117 53.2428 137.017 54.1879C136.917 55.1333 137.569 56.258 137.217 56.4822C136.868 56.708 136.917 56.6617 136.516 56.0319C136.116 55.4024 136.316 55.0433 134.914 54.9521C133.51 54.8623 133.612 54.5484 133.06 55.0884C132.509 55.6282 133.26 55.8078 131.706 55.6282C130.154 55.4473 129.955 53.7825 129.653 55.718C129.354 57.6518 129.304 57.8776 129.803 58.4176C130.304 58.9577 131.657 60.2619 132.258 59.677C132.859 59.0921 132.108 58.3727 133.26 58.5972C134.413 58.8214 134.713 58.5523 134.513 59.1372C134.313 59.7219 132.759 59.8117 134.011 60.3517C135.264 60.8915 136.316 60.2619 136.416 61.1159C136.516 61.9716 136.266 62.1957 136.316 62.6909C136.366 63.186 136.616 63.5465 137.769 63.5465C138.921 63.5465 138.871 63.1411 139.173 63.6812C139.473 64.2212 140.425 63.9519 140.825 63.186C141.226 62.4218 141.526 61.5662 142.127 62.4667C142.729 63.3672 142.83 63.5465 143.43 63.186C144.031 62.8272 144.031 62.8272 144.031 62.8272C144.031 62.8272 144.684 62.2872 145.233 62.7358C145.785 63.186 146.687 62.6909 146.887 63.3207C147.087 63.9519 146.787 64.0417 147.638 64.2661C148.491 64.4919 149.492 64.1314 149.993 64.7613C150.494 65.3911 149.142 64.9857 150.594 65.7516C152.046 66.5158 152.498 66.6055 152.398 67.1007C152.298 67.5959 152.699 67.6854 154.001 67.9563C155.304 68.2254 155.102 68.091 156.155 68.8103C156.453 69.0138 156.733 69.1356 156.991 69.2124V73.3634H156.989Z"
            fill="white" />
    </g>
    <path
        d="M22.633 35.1607V35.1398C22.6097 34.7823 22.5159 34.4455 22.3755 34.1508C22.235 33.8352 22.0474 33.5827 21.7662 33.3514C21.7429 33.2883 21.649 33.2252 21.5788 33.1622C21.2507 32.8884 20.876 32.6783 20.4307 32.5307C20.3605 32.5098 20.2903 32.4886 20.2198 32.4886C20.1026 32.4255 19.9622 32.4043 19.8451 32.3834C19.5875 32.3415 19.3063 32.3203 19.0484 32.3203C18.5566 32.3203 18.088 32.3834 17.6428 32.5307C17.1975 32.678 16.8228 32.8882 16.4947 33.1622C16.1433 33.4144 15.8854 33.7515 15.6747 34.1511C15.4874 34.5507 15.3936 35.0136 15.3936 35.5187V40.064C15.3936 40.527 15.4638 40.9475 15.6278 41.2843C15.6278 41.3261 15.6511 41.3683 15.6747 41.4104C15.8857 41.8103 16.1433 42.1471 16.4947 42.4203C16.8228 42.694 17.1975 42.9041 17.6428 43.0517C18.088 43.1781 18.5566 43.2621 19.0484 43.2621C19.517 43.2621 19.9858 43.1781 20.4307 43.0517C20.876 42.9044 21.2507 42.6943 21.5788 42.4203C21.9302 42.1471 22.1881 41.8103 22.3755 41.4104C22.5628 41.0317 22.6799 40.5688 22.6799 40.064V35.5187C22.6799 35.392 22.6799 35.2871 22.633 35.1607ZM20.4777 40.0425C20.4777 40.4843 20.3605 40.842 20.1026 41.0945C19.8214 41.3677 19.47 41.4941 19.0484 41.4941C18.6032 41.4941 18.2521 41.3677 17.9709 41.0945C17.713 40.8417 17.5725 40.4843 17.5725 40.0425V35.5603C17.5725 35.1395 17.6897 34.803 17.924 34.5504C17.924 34.5295 17.9473 34.5083 17.9709 34.4874C18.0178 34.4455 18.0411 34.4243 18.088 34.4034C18.1113 34.3612 18.1582 34.3403 18.2051 34.3191C18.4394 34.1508 18.7206 34.0878 19.0484 34.0878C19.47 34.0878 19.8218 34.2142 20.1026 34.4874C20.3602 34.7402 20.4777 35.0976 20.4777 35.5606V40.0425Z"
        fill="#CECECF" />
    <path
        d="M28.1856 32.4023L25.749 34.3171V36.4214L28.1856 34.5275V43.1547H30.3646V32.4023H28.1856Z"
        fill="#CECECF" />
    <path
        d="M34.418 32.4023V35.8745H36.5031V34.1701H39.6661L35.7767 43.155H38.143L42.0322 34.1701V32.4023H34.418Z"
        fill="#CECECF" />
    <path
        d="M51.0296 34.1511C50.8422 33.7515 50.5843 33.4144 50.2329 33.1622C49.9051 32.8884 49.5301 32.6783 49.0849 32.5307C48.6396 32.3834 48.1711 32.3203 47.7025 32.3203C47.2104 32.3203 46.7418 32.3834 46.2966 32.5307C45.8513 32.678 45.4766 32.8882 45.1485 33.1622C44.7971 33.4144 44.5392 33.7515 44.3519 34.1511C44.1409 34.5507 44.0474 35.0136 44.0474 35.5187V40.064C44.0474 40.5691 44.1409 41.0317 44.3519 41.4104C44.5392 41.8103 44.7971 42.1471 45.1485 42.4203C45.4766 42.694 45.8513 42.9041 46.2966 43.0517C46.7418 43.1781 47.2104 43.2621 47.7025 43.2621C48.1711 43.2621 48.6396 43.1781 49.0849 43.0517C49.5301 42.9044 49.9048 42.6943 50.2329 42.4203C50.5843 42.1471 50.8422 41.8103 51.0296 41.4104C51.2405 41.0317 51.3341 40.5688 51.3341 40.064V35.5187C51.3341 35.0136 51.2402 34.5507 51.0296 34.1511ZM49.1318 40.0428C49.1318 40.4845 49.0146 40.8423 48.7568 41.0948C48.4756 41.368 48.1242 41.4944 47.7025 41.4944C47.2573 41.4944 46.9059 41.368 46.6483 41.0948C46.3671 40.842 46.2267 40.4845 46.2267 40.0428V35.5606C46.2267 35.0976 46.3674 34.7402 46.6483 34.4874C46.9059 34.2142 47.2576 34.0878 47.7025 34.0878C48.1242 34.0878 48.4756 34.2142 48.7568 34.4874C49.0146 34.7402 49.1318 35.0976 49.1318 35.5606V40.0428Z"
        fill="#CECECF" />
    <path
        d="M69.3744 38.5678C69.187 38.1679 68.9527 37.8314 68.6479 37.5579C68.3668 37.2845 68.0153 37.0741 67.6406 36.9267C67.2656 36.7794 66.8909 36.7161 66.4693 36.7161C66.3285 36.7161 66.1881 36.7161 66.024 36.737C65.8836 36.7582 65.7428 36.8003 65.5788 36.8422L68.0856 32.4023H65.6959L63.1655 37.0526C62.9079 37.5577 62.6734 38.0415 62.4627 38.5047C62.2517 38.9677 62.1582 39.4303 62.1582 39.9354C62.1582 40.4614 62.2517 40.9452 62.4394 41.3451C62.6267 41.7662 62.9079 42.1027 63.236 42.3971C63.5638 42.6708 63.9625 42.881 64.4307 43.0286C64.876 43.1759 65.3678 43.2599 65.8836 43.2599C66.4223 43.2599 66.9142 43.1759 67.3594 43.0286C67.828 42.8812 68.203 42.6499 68.5544 42.3762C68.8825 42.0818 69.1401 41.724 69.3278 41.3242C69.5387 40.9034 69.6323 40.4407 69.6323 39.8935C69.632 39.4094 69.5384 38.9677 69.3744 38.5678ZM67.008 41.0719C66.7035 41.3451 66.3285 41.4927 65.8836 41.4927C65.4383 41.4927 65.0636 41.3454 64.7824 41.0719C64.5012 40.7982 64.3372 40.4195 64.3372 39.9144C64.3372 39.4094 64.5012 39.031 64.7824 38.757C65.0636 38.4838 65.4386 38.3362 65.8836 38.3362C66.3521 38.3362 66.7271 38.4835 67.008 38.7779C67.2892 39.0514 67.4297 39.4303 67.4297 39.9142C67.4297 40.4195 67.2892 40.7979 67.008 41.0719Z"
        fill="#CECECF" />
    <path
        d="M79.1215 38.589V38.5678C79.0979 38.3995 79.0746 38.2101 79.0277 38.0418C78.9105 37.5579 78.606 37.0947 78.1372 36.6739C77.8796 36.4426 77.5748 36.2743 77.2001 36.1479C76.8487 36.0009 76.4034 35.9375 75.888 35.9375C75.4896 35.9375 75.1382 36.0006 74.8104 36.1058C74.4823 36.211 74.248 36.3374 74.1076 36.4847V34.1701H78.9341V32.4023H72.1163V38.4838H74.1076C74.2014 38.2731 74.3419 38.0627 74.5529 37.8945C74.7871 37.705 75.1152 37.5998 75.5602 37.5998C76.0992 37.5998 76.4739 37.7681 76.6849 38.1049C76.8956 38.4205 76.9894 38.8203 77.013 39.3885V39.5358C77.013 39.8723 76.9897 40.1879 76.9428 40.4614C76.8726 40.7348 76.7554 40.9664 76.5445 41.135C76.2866 41.366 75.9588 41.4924 75.5136 41.4924C75.045 41.4924 74.7169 41.366 74.4826 41.135C74.2484 40.9034 74.1076 40.5878 74.0374 40.167H71.8584V40.2303C71.905 40.5881 71.9755 40.9667 72.0927 41.3242C72.2098 41.7031 72.4677 42.0608 72.8424 42.3974C73.1 42.629 73.4517 42.8184 73.8966 43.0076C74.3419 43.1762 74.8806 43.2602 75.5132 43.2602C76.1458 43.2602 76.6613 43.1762 77.1065 43.0076C77.5282 42.8184 77.8799 42.629 78.1608 42.3764C78.5824 41.9769 78.8636 41.5561 79.004 41.1143C79.1445 40.6723 79.2147 40.1463 79.2147 39.5363C79.215 39.2202 79.1917 38.9046 79.1215 38.589Z"
        fill="#CECECF" />
    <path
        d="M81.3003 32.4023V35.8745H83.3854V34.1701H86.5484L84.4633 38.9677L82.659 43.155H85.0254L87.3448 37.7893V37.7683H87.3684L88.9148 34.1704V32.4026L81.3003 32.4023Z"
        fill="#CECECF" />
    <path
        d="M98.2396 34.8035C98.1927 34.5928 98.1458 34.4036 98.0522 34.2142C97.8649 33.8143 97.5837 33.4566 97.2556 33.1831C96.9278 32.9094 96.5292 32.678 96.0606 32.5307C95.6154 32.4043 95.1235 32.3203 94.6081 32.3203C94.0693 32.3203 93.5771 32.4043 93.1319 32.5516C92.6633 32.699 92.2886 32.9091 91.9372 33.204C91.6793 33.4351 91.4687 33.6879 91.3046 34.0032C91.2344 34.0875 91.1875 34.1718 91.1406 34.256C90.9532 34.6768 90.8594 35.1607 90.8594 35.6658V35.6867C90.8594 36.1918 90.9532 36.6335 91.1406 37.0124C91.3046 37.4123 91.5389 37.7488 91.8434 38.0223C92.1246 38.2957 92.476 38.4855 92.8507 38.6325C93.2257 38.7796 93.6237 38.8639 94.0221 38.8639C94.1625 38.8639 94.3266 38.8427 94.4673 38.8217C94.6314 38.8005 94.7718 38.7796 94.9126 38.7165L92.4291 43.1567H94.7954L97.3494 38.5067C97.3494 38.4858 97.3727 38.4646 97.3727 38.4436C97.5368 38.128 97.7008 37.8334 97.8413 37.5387C97.9115 37.3704 97.9584 37.2231 98.0286 37.0758C98.1927 36.6968 98.2862 36.3182 98.3098 35.9183C98.3331 35.8343 98.3331 35.7291 98.3331 35.6448C98.3331 35.3504 98.3098 35.0767 98.2396 34.8035ZM95.7092 36.8232C95.4047 37.0964 95.053 37.2228 94.6081 37.2228C94.1162 37.2228 93.7412 37.0964 93.46 36.802C93.2726 36.6126 93.1555 36.3603 93.1086 36.0653H93.085C93.085 35.9392 93.0614 35.8131 93.0614 35.6658C93.0614 35.2871 93.1316 34.9922 93.2956 34.7402C93.3426 34.635 93.4128 34.5716 93.483 34.4874C93.7875 34.2142 94.1392 34.0878 94.6075 34.0878C95.0527 34.0878 95.4041 34.2142 95.7086 34.4874C95.9662 34.7402 96.1302 35.0976 96.1538 35.5606V35.7922C96.1308 36.2551 95.9668 36.5707 95.7092 36.8232Z"
        fill="#CECECF" />
    <path
        d="M112.368 32.4023L110.985 33.4755H110.962L109.931 34.3171V36.4214L112.367 34.5275V43.1547H114.57V32.4023H112.368Z"
        fill="#CECECF" />
    <path
        d="M118.6 32.4023V35.8745H120.685V34.1701H123.848L123.801 34.2543L119.958 43.155H122.325L126.214 34.1701V32.4023H118.6Z"
        fill="#CECECF" />
    <path
        d="M131.486 32.4023L131.251 32.5918L129.705 33.7911L129.049 34.3171V36.4214L131.486 34.5275V43.1547H133.665V32.4023H131.486Z"
        fill="#CECECF" />
    <path
        d="M144.887 34.2142C144.7 33.8143 144.442 33.4566 144.114 33.1831C143.763 32.9094 143.364 32.678 142.919 32.5307C142.474 32.4043 141.982 32.3203 141.443 32.3203C140.928 32.3203 140.436 32.4043 139.967 32.5516C139.522 32.699 139.123 32.9091 138.796 33.204C138.444 33.4984 138.186 33.8352 137.999 34.256C137.812 34.6768 137.718 35.1607 137.718 35.6658C137.718 36.1708 137.812 36.6335 137.975 37.0124C138.163 37.4123 138.397 37.7488 138.701 38.0223C138.819 38.1275 138.936 38.2327 139.053 38.2957C139.24 38.4431 139.475 38.5483 139.709 38.6325C140.084 38.7796 140.482 38.8639 140.88 38.8639C141.021 38.8639 141.161 38.8427 141.325 38.8217C141.466 38.8005 141.63 38.7796 141.771 38.7165L139.287 43.1567H141.654L143.34 40.0637L144.184 38.5067C144.465 38.0226 144.699 37.5387 144.887 37.0758C145.074 36.6126 145.191 36.1287 145.191 35.6448C145.192 35.1188 145.098 34.635 144.887 34.2142ZM140.342 34.4874C140.623 34.2142 140.998 34.0878 141.443 34.0878C141.888 34.0878 142.263 34.2142 142.568 34.4874C142.849 34.7611 142.989 35.161 142.989 35.6658C142.989 36.1708 142.849 36.5495 142.568 36.8232C142.263 37.0964 141.888 37.2228 141.443 37.2228C140.975 37.2228 140.6 37.0964 140.318 36.802C140.037 36.5286 139.897 36.1496 139.897 35.6658C139.897 35.161 140.038 34.7614 140.342 34.4874Z"
        fill="#CECECF" />
    <path
        d="M102.645 77.0771C102.504 76.8039 102.34 76.5933 102.106 76.4038C101.871 76.2146 101.614 76.067 101.309 75.983C101.005 75.8778 100.7 75.8359 100.372 75.8359C100.021 75.8359 99.7158 75.8778 99.4116 75.983C99.1071 76.067 98.8492 76.2143 98.615 76.4038C98.3807 76.593 98.1933 76.8037 98.0526 77.0771C97.9355 77.3509 97.8652 77.6665 97.8652 78.0242V81.1174C97.8652 81.4748 97.9355 81.7907 98.0526 82.0642C98.193 82.3374 98.3807 82.5692 98.615 82.7375C98.8492 82.9267 99.1071 83.0743 99.4116 83.1795C99.7161 83.2635 100.021 83.3056 100.372 83.3056C100.7 83.3056 101.005 83.2635 101.309 83.1795C101.614 83.0743 101.871 82.9267 102.106 82.7375C102.34 82.5692 102.504 82.3376 102.645 82.0642C102.785 81.7907 102.856 81.4748 102.856 81.1174V78.0242C102.856 77.6665 102.785 77.3509 102.645 77.0771ZM101.356 81.1174C101.356 81.4118 101.263 81.6643 101.075 81.8326C100.911 82.022 100.653 82.1063 100.372 82.1063C100.068 82.1063 99.8096 82.022 99.6456 81.8326C99.4582 81.6643 99.3644 81.4118 99.3644 81.1174V78.0451C99.3644 77.7295 99.4582 77.477 99.6456 77.3087C99.8096 77.1193 100.067 77.0353 100.372 77.0353C100.653 77.0353 100.911 77.1193 101.075 77.3087C101.262 77.477 101.356 77.7295 101.356 78.0451V81.1174Z"
        fill="#CECECF" />
    <path
        d="M109.322 79.7529C109.251 79.4163 109.041 79.1007 108.713 78.8061C108.549 78.6587 108.338 78.5326 108.08 78.4486C107.822 78.3643 107.541 78.3222 107.189 78.3222C106.908 78.3222 106.674 78.3431 106.44 78.4274C106.229 78.5114 106.065 78.5957 105.948 78.6797V77.1017H109.275V75.9023H104.589V80.0478H105.971C106.018 79.9005 106.112 79.7741 106.276 79.6479C106.416 79.5218 106.65 79.4587 106.955 79.4587C107.33 79.4587 107.588 79.5639 107.729 79.7953C107.893 80.0269 107.963 80.3425 107.963 80.7842C107.963 81.0158 107.939 81.2262 107.893 81.4157C107.846 81.6051 107.775 81.7525 107.635 81.8786C107.471 82.0259 107.213 82.1102 106.932 82.1102C106.604 82.1102 106.37 82.0259 106.205 81.8786C106.065 81.7103 105.948 81.479 105.924 81.2053H104.425C104.448 81.4578 104.495 81.7313 104.589 81.9838C104.659 82.2573 104.846 82.5098 105.081 82.7202C105.268 82.8885 105.503 83.0149 105.807 83.1413C106.136 83.2674 106.487 83.3095 106.932 83.3095C107.354 83.3095 107.705 83.2674 108.01 83.1413C108.314 83.0149 108.549 82.8885 108.736 82.7202C109.041 82.4467 109.228 82.1523 109.322 81.8574C109.415 81.5421 109.462 81.1841 109.462 80.7842C109.462 80.4262 109.415 80.0897 109.322 79.7529Z"
        fill="#CECECF" />
    <path d="M113.586 75.1211L110.306 84.0217H111.712L114.992 75.1211H113.586Z" fill="#CECECF" />
    <path
        d="M118.084 75.9023L116.421 77.2069V78.6378L118.084 77.3333V83.2459H119.584V75.9023H118.084Z"
        fill="#CECECF" />
    <path
        d="M124.622 75.9023L122.958 77.2069V78.6378L124.622 77.3333V83.2459H126.121V75.9023H124.622Z"
        fill="#CECECF" />
    <path d="M129.002 79.668V80.9304H132.54V79.668H129.002Z" fill="#CECECF" />
    <path
        d="M138.913 77.0771C138.796 76.8039 138.608 76.5933 138.374 76.4038C138.163 76.2146 137.882 76.067 137.577 75.983C137.273 75.8778 136.968 75.8359 136.64 75.8359C136.289 75.8359 135.984 75.8778 135.68 75.983C135.375 76.067 135.117 76.2143 134.883 76.4038C134.649 76.593 134.461 76.8037 134.344 77.0771C134.204 77.3509 134.133 77.6665 134.133 78.0242V81.1174C134.133 81.4748 134.204 81.7907 134.344 82.0642C134.461 82.3374 134.649 82.5692 134.883 82.7375C135.117 82.9267 135.375 83.0743 135.68 83.1795C135.984 83.2635 136.289 83.3056 136.64 83.3056C136.968 83.3056 137.273 83.2635 137.577 83.1795C137.882 83.0743 138.163 82.9267 138.374 82.7375C138.608 82.5692 138.796 82.3376 138.913 82.0642C139.053 81.7907 139.124 81.4748 139.124 81.1174V78.0242C139.124 77.6665 139.054 77.3509 138.913 77.0771ZM137.624 81.1174C137.624 81.4118 137.531 81.6643 137.343 81.8326C137.179 82.022 136.945 82.1063 136.64 82.1063C136.336 82.1063 136.101 82.022 135.914 81.8326C135.726 81.6643 135.632 81.4118 135.632 81.1174V78.0451C135.632 77.7295 135.726 77.477 135.914 77.3087C136.101 77.1193 136.335 77.0353 136.64 77.0353C136.945 77.0353 137.179 77.1193 137.343 77.3087C137.531 77.477 137.624 77.7295 137.624 78.0451V81.1174Z"
        fill="#CECECF" />
    <path
        d="M145.45 77.0771C145.333 76.8039 145.146 76.5933 144.911 76.4038C144.7 76.2146 144.419 76.067 144.115 75.983C143.81 75.8778 143.505 75.8359 143.178 75.8359C142.826 75.8359 142.521 75.8778 142.217 75.983C142.194 75.983 142.17 76.0042 142.147 76.0042C141.866 76.0882 141.631 76.2355 141.421 76.4038C141.186 76.593 141.022 76.8037 140.882 77.0771C140.741 77.3509 140.671 77.6665 140.671 78.0242V81.1174C140.671 81.4748 140.741 81.7907 140.882 82.0642C140.905 82.0854 140.905 82.1275 140.928 82.1484C141.069 82.3795 141.21 82.5902 141.421 82.7375C141.655 82.9267 141.912 83.0743 142.217 83.1795C142.521 83.2635 142.826 83.3056 143.178 83.3056C143.505 83.3056 143.81 83.2635 144.115 83.1795C144.419 83.0743 144.7 82.9267 144.911 82.7375C145.146 82.5692 145.333 82.3376 145.45 82.0642C145.591 81.7907 145.661 81.4748 145.661 81.1174V78.0242C145.661 77.6665 145.591 77.3509 145.45 77.0771ZM144.161 81.1174C144.161 81.4118 144.068 81.6643 143.904 81.8326C143.716 82.022 143.482 82.1063 143.177 82.1063C142.873 82.1063 142.638 82.022 142.451 81.8326C142.264 81.6643 142.17 81.4118 142.17 81.1174V78.0451C142.17 77.7295 142.264 77.477 142.451 77.3087C142.639 77.1193 142.873 77.0353 143.177 77.0353C143.482 77.0353 143.716 77.1193 143.904 77.3087C144.068 77.477 144.161 77.7295 144.161 78.0451V81.1174Z"
        fill="#CECECF" />
    <path d="M14.269 47.5508V48.2241H15.3935V51.4013H16.2135V48.2241H17.3379V47.5508H14.269Z"
        fill="#CECECF" />
    <path
        d="M21.157 48.9826C21.157 48.8352 21.1337 48.7088 21.11 48.5827C21.0867 48.4566 21.0398 48.3302 20.9929 48.225C20.9696 48.204 20.9696 48.1828 20.946 48.1619C20.8991 48.0988 20.8289 48.0148 20.7353 47.9308C20.6884 47.8887 20.6415 47.8466 20.5949 47.8256C20.5011 47.7414 20.3839 47.6783 20.2435 47.6362C20.15 47.5943 20.0328 47.5731 19.9154 47.5522C19.8219 47.5312 19.728 47.5313 19.6109 47.5313C19.353 47.5313 19.1423 47.5734 18.9547 47.6364C18.7673 47.6995 18.6033 47.805 18.4625 47.9314C18.3454 48.0366 18.2752 48.1415 18.2049 48.2258C18.158 48.331 18.1111 48.4574 18.0878 48.5835C18.0645 48.7096 18.0409 48.836 18.0409 48.9834C18.0176 49.1307 18.0176 49.2987 18.0176 49.4884C18.0176 49.6567 18.0176 49.825 18.0409 49.9723C18.0409 50.0357 18.0409 50.0984 18.0642 50.1406C18.0642 50.2248 18.0642 50.3088 18.0875 50.3719C18.1108 50.4983 18.1577 50.6244 18.2046 50.7296C18.2748 50.8348 18.3451 50.9188 18.4622 51.0243C18.6026 51.1504 18.7667 51.2556 18.9544 51.3187C19.1184 51.403 19.3058 51.4239 19.54 51.4239H19.6103C19.8445 51.4239 20.0552 51.403 20.2429 51.3187C20.4302 51.2556 20.5943 51.1504 20.735 51.0243C20.8522 50.9191 20.9224 50.8348 20.9926 50.7296C21.0395 50.6244 21.0861 50.4983 21.1097 50.3719C21.133 50.2667 21.1567 50.1194 21.1567 49.9723V49.8671C21.18 49.7619 21.18 49.6146 21.18 49.4884C21.1806 49.2982 21.1806 49.1299 21.157 48.9826ZM20.2901 50.224C20.2901 50.308 20.2668 50.3711 20.2432 50.4132C20.1966 50.4763 20.173 50.5184 20.126 50.5396C20.0791 50.6027 20.0089 50.6657 19.9151 50.7079C19.8682 50.7288 19.7979 50.75 19.7277 50.7288C19.7044 50.75 19.6575 50.75 19.6106 50.75C19.4934 50.75 19.3763 50.75 19.2825 50.7079C19.2122 50.6657 19.1184 50.6027 19.0482 50.5396C19.0249 50.5187 18.978 50.4766 18.9547 50.4132C18.9314 50.3711 18.9078 50.308 18.9078 50.224C18.8845 50.161 18.8608 50.0558 18.8608 49.9293V49.0247C18.8608 48.8983 18.8841 48.814 18.9078 48.7297C18.9078 48.6458 18.9311 48.5824 18.9547 48.5406C18.978 48.4775 19.0249 48.4354 19.0482 48.3932C19.1184 48.3302 19.2122 48.288 19.2825 48.2459C19.376 48.2247 19.4931 48.2038 19.6106 48.2038C19.7041 48.2038 19.8212 48.2247 19.9151 48.2459C20.0089 48.288 20.0791 48.3302 20.126 48.3932C20.173 48.4354 20.1963 48.4775 20.2432 48.5406C20.2665 48.5827 20.2901 48.6458 20.2901 48.7297C20.3134 48.814 20.3134 48.8983 20.337 49.0247V49.9293C20.3137 50.0345 20.3137 50.1185 20.2901 50.1819C20.2901 50.2031 20.2901 50.224 20.2901 50.224Z"
        fill="#CECECF" />
    <path
        d="M25.1398 48.2914C25.0696 48.144 24.9994 48.0179 24.8586 47.9127C24.7415 47.8075 24.6008 47.7232 24.437 47.6599C24.2497 47.5968 24.062 47.5547 23.8277 47.5547H22.1875V51.4052H23.0075V49.9533H23.8277C24.062 49.9533 24.2494 49.9324 24.437 49.8691C24.6008 49.806 24.7415 49.7217 24.8586 49.5956C24.9994 49.4904 25.0693 49.3643 25.1398 49.2167C25.2101 49.0693 25.2334 48.9223 25.2334 48.7537C25.2337 48.6072 25.2104 48.439 25.1398 48.2914ZM24.2497 49.1332C24.1794 49.1963 24.1092 49.2384 24.0154 49.2384C23.9452 49.2806 23.8746 49.2806 23.7811 49.2806H23.0078V48.2286H23.7811C23.9921 48.2286 24.1325 48.2916 24.2497 48.3759C24.3432 48.4811 24.4137 48.6072 24.4137 48.7546C24.4137 48.9228 24.3432 49.049 24.2497 49.1332Z"
        fill="#CECECF" />
    <path
        d="M28.9122 48.2241V47.5508H26.1006V51.4013H28.9122V50.728H26.9209V49.8021H28.6077V49.1288H26.9209V48.2238H28.9122V48.2241Z"
        fill="#CECECF" />
    <path
        d="M31.794 50.6041C31.6768 50.7093 31.5128 50.7511 31.3021 50.7511C31.185 50.7511 31.0911 50.7511 30.9976 50.709C30.9038 50.6668 30.8336 50.6247 30.7633 50.5616C30.74 50.5195 30.6931 50.4774 30.6695 50.4352C30.6462 50.3722 30.6226 50.3088 30.5993 50.2248C30.5993 50.1618 30.576 50.0566 30.576 49.9302C30.5527 49.8038 30.5527 49.6567 30.5527 49.4884C30.5527 49.299 30.5527 49.1516 30.576 49.0255C30.576 48.8991 30.5993 48.8148 30.5993 48.7306C30.6226 48.6466 30.6462 48.5832 30.6695 48.5414C30.6928 48.4783 30.7397 48.4362 30.7633 48.394C30.8336 48.331 30.9038 48.2888 30.9976 48.2467C31.0911 48.2255 31.185 48.2046 31.3021 48.2046C31.5128 48.2046 31.6768 48.2467 31.7707 48.3519C31.8878 48.4571 31.9816 48.5832 32.0049 48.7515H32.8718C32.7783 48.3307 32.6142 48.036 32.333 47.8259C32.0519 47.6364 31.7004 47.5312 31.3021 47.5312C31.0442 47.5312 30.8336 47.5734 30.6459 47.6364C30.4819 47.6995 30.2945 47.805 30.1541 47.9314C30.0602 48.0366 29.9667 48.1415 29.9198 48.2258C29.8496 48.331 29.8026 48.4574 29.7793 48.5835C29.756 48.7096 29.7324 48.836 29.7324 48.9834V49.9723C29.7324 50.1196 29.7557 50.2667 29.7793 50.3719C29.8026 50.4983 29.8496 50.6244 29.9198 50.7296C29.9667 50.8348 30.0605 50.9188 30.1541 51.0243C30.2945 51.1504 30.4819 51.2556 30.6459 51.3187C30.8333 51.403 31.0442 51.4239 31.3021 51.4239C31.7004 51.4239 32.0519 51.3187 32.333 51.1295C32.6142 50.9188 32.7783 50.6242 32.8718 50.2246H32.0285C31.9813 50.3725 31.8878 50.4989 31.794 50.6041Z"
        fill="#CECECF" />
    <path
        d="M36.6911 48.5835C36.6678 48.4574 36.6209 48.331 36.5507 48.2258C36.5037 48.1415 36.4102 48.0366 36.3164 47.9314C36.1756 47.805 36.0119 47.6998 35.8245 47.6365C35.6372 47.5734 35.4262 47.5312 35.1683 47.5312C34.9107 47.5312 34.6998 47.5734 34.5124 47.6365C34.3251 47.6995 34.161 47.805 34.0203 47.9314C33.9264 48.0366 33.8329 48.1415 33.786 48.2258C33.7158 48.331 33.6689 48.4574 33.6455 48.5835C33.6222 48.7096 33.5986 48.836 33.5986 48.9834V49.9723C33.5986 50.1196 33.6219 50.2667 33.6455 50.3719C33.6689 50.4983 33.7158 50.6244 33.786 50.7296C33.8329 50.8348 33.9264 50.9188 34.0203 51.0243C34.1607 51.1504 34.3248 51.2556 34.5124 51.3187C34.6998 51.403 34.9107 51.4239 35.1683 51.4239C35.4262 51.4239 35.6369 51.403 35.8245 51.3187C36.0119 51.2556 36.1759 51.1504 36.3164 51.0243C36.4102 50.9191 36.5037 50.8348 36.5507 50.7296C36.6209 50.6244 36.6678 50.4983 36.6911 50.3719C36.7144 50.2667 36.738 50.1194 36.738 49.9723V48.9834C36.738 48.836 36.7144 48.7096 36.6911 48.5835ZM35.8945 49.9305C35.8945 50.0569 35.8711 50.1618 35.8711 50.2251C35.8478 50.3091 35.8245 50.3722 35.8009 50.4143C35.7776 50.4774 35.754 50.5195 35.7074 50.5407C35.6372 50.6038 35.567 50.6668 35.4731 50.709C35.3796 50.7511 35.2858 50.7511 35.1686 50.7511C35.0515 50.7511 34.958 50.7511 34.8641 50.709C34.7706 50.6668 34.7001 50.6038 34.6299 50.5407C34.5829 50.5198 34.5596 50.4777 34.5363 50.4143C34.513 50.3722 34.4894 50.3091 34.4661 50.2251C34.4428 50.1621 34.4428 50.0569 34.4428 49.9305C34.4195 49.8041 34.4195 49.657 34.4195 49.4887C34.4195 49.2993 34.4195 49.1519 34.4428 49.0258C34.4428 48.8994 34.4428 48.8151 34.4661 48.7309C34.4894 48.6469 34.513 48.5835 34.5363 48.5417C34.5596 48.4786 34.5833 48.4365 34.6299 48.3943C34.7001 48.3313 34.7703 48.2891 34.8641 48.247C34.958 48.2258 35.0515 48.2049 35.1686 48.2049C35.2858 48.2049 35.3796 48.2258 35.4731 48.247C35.567 48.2891 35.6372 48.3313 35.7074 48.3943C35.7543 48.4365 35.7776 48.4786 35.8009 48.5417C35.8242 48.5838 35.8478 48.6469 35.8711 48.7309C35.8711 48.8151 35.8945 48.8994 35.8945 49.0258C35.9178 49.1519 35.9178 49.299 35.9178 49.4887C35.9178 49.6567 35.9178 49.8041 35.8945 49.9305Z"
        fill="#CECECF" />
    <path
        d="M40.1817 47.5508V49.9073L38.4949 47.5508H37.7451V51.4013H38.5887V49.0448L40.2755 51.4013H41.0252V47.5508H40.1817Z"
        fill="#CECECF" />
    <path
        d="M46.742 49.9288C46.6954 49.8236 46.6249 49.7181 46.5314 49.6341C46.4844 49.592 46.4375 49.5501 46.3909 49.5289C46.344 49.5077 46.2971 49.4656 46.2036 49.4237C46.555 49.2552 46.7423 48.982 46.7423 48.624C46.7423 48.4557 46.6957 48.3084 46.6488 48.182C46.5786 48.0558 46.4848 47.9509 46.3676 47.8455C46.2738 47.7612 46.1333 47.6769 45.9693 47.6348C45.8052 47.5929 45.6179 47.5508 45.4069 47.5508H43.6968V51.4013H45.4774C45.6881 51.4013 45.8758 51.3592 46.0398 51.317C46.1803 51.254 46.321 51.1909 46.4381 51.086C46.5553 51.0017 46.6491 50.8753 46.696 50.7492C46.7663 50.6228 46.7896 50.4545 46.7896 50.286C46.7889 50.1601 46.7653 50.034 46.742 49.9288ZM44.5397 48.2241H45.3597C45.5237 48.2241 45.6642 48.2662 45.758 48.3505C45.8518 48.4348 45.8985 48.5397 45.8985 48.6658C45.8985 48.8132 45.8515 48.9186 45.758 49.0029C45.6645 49.066 45.5237 49.1081 45.3597 49.1081H44.5397V48.2241ZM45.8049 50.6021C45.7111 50.6861 45.5707 50.7282 45.4066 50.7282H44.5397V49.7812H45.4066C45.5707 49.7812 45.7111 49.8233 45.8049 49.9076C45.8985 49.9918 45.969 50.0968 45.969 50.2441C45.969 50.3914 45.8985 50.5178 45.8049 50.6021Z"
        fill="#CECECF" />
    <path
        d="M49.5299 47.5508H48.874L47.3276 51.4013H48.1945L48.4524 50.707H49.9752L50.2327 51.4013H51.0996L49.5299 47.5508ZM48.6867 50.0761L49.2254 48.687L49.7409 50.0761H48.6867Z"
        fill="#CECECF" />
    <path
        d="M54.1926 47.5508V49.9073L52.5057 47.5508H51.7793V51.4013H52.5993V49.0448L54.2861 51.4013H55.0358V47.5508H54.1926Z"
        fill="#CECECF" />
    <path
        d="M58.1283 49.0905L59.5343 47.5547H58.5266L57.0035 49.2379V47.5547H56.1836V51.4052H57.0035V50.2477L57.5659 49.6587L58.6671 51.4049H59.6275L58.1283 49.0905Z"
        fill="#CECECF" />
    <path
        d="M38.8838 67.6431V82.4104C38.8838 83.0047 38.3423 83.491 37.6806 83.491H17.4279C16.7661 83.491 16.2246 83.0047 16.2246 82.4104V67.6431C16.2246 67.0488 16.7658 66.5625 17.4279 66.5625H37.6806C38.3423 66.5625 38.8838 67.0488 38.8838 67.6431Z"
        fill="#F7D072" />
    <path opacity="0.2"
        d="M34.4412 70.1328L37.9556 66.9766H36.8075L32.965 70.4275L32.4965 70.8483L31.0436 72.1743L30.5751 72.5951H25.3269L22.9137 70.4278L22.1403 69.7123L19.0945 66.9771H17.97L20.9923 69.7123L21.4608 70.1334H16.6343V70.8488H22.2808L23.7802 72.2167L24.1786 72.5956V73.4372H16.6349V74.153H24.1792V76.7411H16.6349V77.4566H24.1792V78.2981H24.2025L22.7499 79.6239L22.2814 80.045H16.6349V80.7601H21.4847L18.4389 83.4956H19.5636L22.6095 80.7601L25.3505 78.2984H30.5754L36.339 83.4956H37.4871L34.4412 80.7601H38.893V80.045H33.6446L31.6998 78.2984H31.7468V77.4568H38.8927V76.7414H31.7468V74.1532H38.8927V73.4375H31.7468V72.5959H31.6998L33.6446 70.8494H38.8927V70.1339H34.4412V70.1328ZM30.9268 77.5816H24.9758V73.31H30.9268V77.5816Z"
        fill="white" />
    <path
        d="M24.9288 72.1758L25.3974 72.5966H25.4207L25.7488 72.891H29.3803L30.177 72.1758H24.9288ZM24.9288 72.1758L25.3974 72.5966H25.4207L25.7488 72.891H29.3803L30.177 72.1758H24.9288ZM24.9288 72.1758L25.3974 72.5966H25.4207L25.7488 72.891H29.3803L30.177 72.1758H24.9288ZM24.9288 72.1758L25.3974 72.5966H25.4207L25.7488 72.891H29.3803L30.177 72.1758H24.9288ZM24.9288 72.1758L25.3974 72.5966H25.4207L25.7488 72.891H29.3803L30.177 72.1758H24.9288ZM24.9288 72.1758L25.3974 72.5966H25.4207L25.7488 72.891H29.3803L30.177 72.1758H24.9288ZM23.7808 72.1758V77.878H31.3483V72.1758H23.7808ZM30.5284 77.1623H24.5774V72.8907H30.5284V77.1623ZM24.9288 72.1758L25.3974 72.5966H25.4207L25.7488 72.891H29.3803L30.177 72.1758H24.9288ZM29.8256 77.5833L29.357 77.1623H25.7488L25.2802 77.5833H25.2569L24.9524 77.878H30.177L29.8256 77.5833ZM24.9288 72.1758L25.3974 72.5966H25.4207L25.7488 72.891H29.3803L30.177 72.1758H24.9288ZM24.9288 72.1758L25.3974 72.5966H25.4207L25.7488 72.891H29.3803L30.177 72.1758H24.9288ZM24.9288 72.1758L25.3974 72.5966H25.4207L25.7488 72.891H29.3803L30.177 72.1758H24.9288ZM24.9288 72.1758L25.3974 72.5966H25.4207L25.7488 72.891H29.3803L30.177 72.1758H24.9288Z"
        fill="#717070" />
    <path d="M22.2053 69.7148L23.0075 70.4353H16.2246V69.7148H22.2053Z" fill="#717070" />
    <path d="M38.8837 69.7148V70.4353H32.1011L32.9029 69.7148H38.8837Z" fill="#717070" />
    <path d="M24.5714 73.0156H16.2246V73.736H24.5714V73.0156Z" fill="#717070" />
    <path d="M38.8839 73.0156H30.5371V73.736H38.8839V73.0156Z" fill="#717070" />
    <path d="M24.5714 76.3164H16.2246V77.0368H24.5714V76.3164Z" fill="#717070" />
    <path d="M38.8839 76.3164H30.5371V77.0368H38.8839V76.3164Z" fill="#717070" />
    <path d="M23.0084 79.6211L22.2062 80.3415H16.2246V79.6211H23.0084Z" fill="#717070" />
    <path d="M38.8839 79.6211V80.3415H32.9023L32.1001 79.6211H38.8839Z" fill="#717070" />
    <path d="M25.7405 77.168L18.6969 83.4934H17.563L24.6065 77.168H25.7405Z" fill="#717070" />
    <path d="M37.5463 66.5625L30.5031 72.8882H29.3691L36.4124 66.5625H37.5463Z" fill="#717070" />
    <path d="M25.7392 72.8882H24.6055L17.562 66.5625H18.696L25.7392 72.8882Z" fill="#717070" />
    <path
        d="M37.5452 83.4934H36.4112L30.1698 77.8881L29.8359 77.5882L29.3677 77.168H30.5016L30.938 77.5596L31.3038 77.8881L31.7398 78.28L33.2338 79.6214L33.702 80.0419L34.036 80.3418L34.5042 80.7624L37.5452 83.4934Z"
        fill="#717070" />
    <path
        d="M65.163 66.5586H65.0287H63.8947H46.1786H45.0446H44.9103C44.2486 66.5586 43.707 67.0449 43.707 67.6389V69.7099V70.4303V73.0118V73.7322V76.3138V77.0342V79.6149V80.3353V82.4062C43.707 83.0005 44.2486 83.4869 44.9103 83.4869H45.0455H45.9148H46.1795H47.0488H63.8266H63.8938H64.9606H65.0278H65.163C65.8247 83.4869 66.3662 83.0005 66.3662 82.4062V80.7558V80.3353V80.0354V79.6149V77.4547V77.0342V76.7343V76.3138V74.1528V73.7322V73.4323V73.0118V70.8508V70.4303V70.1304V69.7099V67.6389C66.3662 67.0449 65.8247 66.5586 65.163 66.5586Z"
        fill="#ECEDF7" />
    <path
        d="M66.3665 73.3301V82.5075C66.3665 83.1018 65.824 83.589 65.1623 83.589H51.1329L43.7061 76.919V67.74C43.7061 67.147 44.2485 66.6602 44.9102 66.6602H58.9397L66.3665 73.3301Z"
        fill="#B7C3A1" />
    <path opacity="0.2"
        d="M65.1273 66.5391H64.993H64.4254L45.5762 83.4673H45.8791H46.1438H47.0131H63.7909H63.8581H64.9249H64.992H65.1273C65.789 83.4673 66.3305 82.9813 66.3305 82.3867V80.7363V80.3158V80.0159V79.5953V77.4352V77.0146V76.7147V76.2942V74.1332V73.7127V73.4128V72.9923V70.8313V70.4108V70.1109V69.6904V67.6191C66.3305 67.0251 65.789 66.5391 65.1273 66.5391Z"
        fill="#040000" />
    <path d="M54.0781 18.3981L54.6439 16.7812H59.2266L58.6609 18.3981H54.0781Z" fill="#CECECF" />
    <path
        d="M65.3472 22.7285H63.6401L63.4546 13.2148H65.8194L65.7743 19.415L70.5184 13.2148H72.8991L65.3472 22.7285Z"
        fill="#CECECF" />
    <path d="M70.9551 22.7285L74.6302 13.2148H76.9134L73.2383 22.7285H70.9551Z" fill="#CECECF" />
    <path
        d="M84.6049 19.9217C84.4258 20.3849 84.1584 20.7939 83.8027 21.1505C83.4458 21.5072 83.0251 21.8073 82.5428 22.0519C82.0589 22.2975 81.5269 22.4848 80.9446 22.614C80.3644 22.7423 79.7671 22.8076 79.1535 22.8076C78.2673 22.8076 77.5111 22.7161 76.8865 22.5335C76.2606 22.351 75.7547 22.0235 75.3677 21.5515L77.3109 20.3489C77.5669 20.6513 77.9125 20.8611 78.3504 20.9762C78.7867 21.0927 79.2737 21.1503 79.8112 21.1503C80.5011 21.1503 81.0605 21.0481 81.4901 20.8424C81.9194 20.638 82.2079 20.3445 82.356 19.9606C82.4833 19.6312 82.4643 19.369 82.2996 19.1721C82.2134 19.084 82.107 19.0165 81.9825 18.9719C81.8568 18.9273 81.6544 18.8871 81.3714 18.8513L80.0427 18.6784C79.5414 18.6164 79.1348 18.5197 78.8235 18.3914C78.5114 18.262 78.2645 18.0945 78.0802 17.8902C77.6905 17.4531 77.6531 16.8299 77.9661 16.0189C78.1311 15.5915 78.374 15.2024 78.6956 14.8499C79.0185 14.4987 79.4031 14.1953 79.8526 13.9419C80.3012 13.6874 80.8041 13.4894 81.3631 13.3471C81.9221 13.2047 82.5195 13.1328 83.1542 13.1328C83.9643 13.1328 84.6374 13.2176 85.1747 13.3873C85.7125 13.5558 86.1544 13.8408 86.5033 14.2421L84.6092 15.4045C84.3584 15.1195 84.0336 14.9391 83.635 14.8642C83.2379 14.7882 82.8463 14.7499 82.464 14.7499C81.8504 14.7499 81.3527 14.8683 80.9715 15.1043C80.5904 15.3403 80.3353 15.6229 80.208 15.9525C80.1595 16.0776 80.139 16.1971 80.1433 16.3136C80.1482 16.4287 80.1908 16.5364 80.2733 16.6344C80.3592 16.7236 80.476 16.7985 80.6213 16.8616C80.7673 16.9236 80.9599 16.9682 81.2024 16.9943L82.5308 17.1684C83.0438 17.2315 83.4519 17.3207 83.7589 17.4358C84.0643 17.5523 84.3032 17.712 84.4767 17.9163C84.7043 18.1479 84.8236 18.4341 84.8358 18.772C84.8472 19.1104 84.7702 19.4932 84.6049 19.9217Z"
        fill="#CECECF" />
    <path
        d="M92.446 22.7285L92.4052 21.0453H88.2505L86.893 22.7285H84.5107L92.4408 13.2148H94.2306L94.8267 22.7285H92.446ZM92.3101 16.0202L89.4946 19.4814H92.4021L92.3101 16.0202Z"
        fill="#CECECF" />
    <path d="M97.7734 18.3981L98.3392 16.7812H102.922L102.356 18.3981H97.7734Z" fill="#CECECF" />
    <path opacity="0.1"
        d="M157 4.48171V84.9029C157 87.3858 154.751 89.4058 152.009 89.4058H78.5117V0H152.009C154.751 0 157 2.01999 157 4.48171Z"
        fill="#040000" />
</svg>
    