<svg enable-background="new 0 0 1000 1000" viewBox="0 0 1000 1000"
    xmlns="http://www.w3.org/2000/svg">
    <path
        d="m500 9.6c-270.6 0-490 219.5-490 490.4 0 80.1 19.2 155.6 53.2 222.4 1.6 4.7 3.9 9.1 6.9 13 .2.3.4.7.6 1l.1-.1c8.2 10.1 20.7 16.6 34.7 16.6 24.6 0 44.5-20 44.5-44.6l-.4-4.1c0-12.9-5.5-24.5-14.2-32.6l.7-.7c-24.6-52-38.3-110.2-38.3-171.5 0-222 179.8-401.9 401.6-401.9s401.6 180 401.6 401.9c0 222-179.8 401.9-401.6 401.9-87.4 0-168.3-28-234.2-75.4-8.2-9.9-20.5-16.3-34.4-16.3-24.6 0-44.5 20-44.5 44.6l.4 4.1c0 19.8 13 36.7 30.9 42.4 79.8 56.5 177.3 89.7 282.5 89.7 270.6 0 490-219.6 490-490.4-.1-270.9-219.5-490.4-490.1-490.4zm.5 178.7c-24.6 0-44.5 20-44.5 44.6l-.4 259.5c-.4 2.5-.7 5.1-.7 7.7 0 5.2.9 10.2 2.5 14.8 5.5 18.4 22.5 31.8 42.7 31.8 4.6 0 9.1-.7 13.3-2l255 .4c24.6 0 44.5-20 44.5-44.6s-19.9-44.6-44.5-44.6l-223.7-.3.3-222.7c0-24.6-19.9-44.6-44.5-44.6z" />
</svg>