<svg width="19" height="21" viewBox="0 0 19 21" fill="none" xmlns="http://www.w3.org/2000/svg">
    <path fill-rule="evenodd" clip-rule="evenodd"
        d="M1.27513 14.9314L3.53667 17.0139C6.42261 19.6712 7.86552 21 9.57229 21C11.2789 21 12.722 19.6712 15.6079 17.0139L17.8695 14.9314C18.4254 14.4194 18.7035 14.1634 18.8519 13.8134C19.0002 13.4634 19.0002 13.0635 19.0002 12.2637V8.68134C19.0002 8.12465 19.0002 7.6058 18.9972 7.12164C18.9788 4.04655 18.8437 2.36976 17.8497 1.27135C16.699 -1.0349e-07 14.8472 0 11.1436 0H8.00097C4.29731 0 2.44549 -1.0349e-07 1.29493 1.27135C0.300861 2.36976 0.162743 4.04655 0.144358 7.12164C0.141451 7.6058 0.144358 8.12465 0.144358 8.68134V12.2637C0.144358 13.0635 0.144358 13.4634 0.292707 13.8134C0.441055 14.1634 0.719068 14.4194 1.27513 14.9314ZM5.25101 6.94508C5.25101 6.2259 5.77864 5.64287 6.4295 5.64287H12.7148C13.3656 5.64287 13.8933 6.2259 13.8933 6.94508C13.8933 7.66426 13.3656 8.24728 12.7148 8.24728H6.4295C5.77864 8.24728 5.25101 7.66426 5.25101 6.94508ZM6.82233 12.1539C6.82233 11.4347 7.34997 10.8517 8.00081 10.8517H11.1435C11.7943 10.8517 12.3219 11.4347 12.3219 12.1539C12.3219 12.8731 11.7943 13.4561 11.1435 13.4561H8.00081C7.34997 13.4561 6.82233 12.8731 6.82233 12.1539Z"
        fill="#98CB4D" />
</svg>
    