<svg width="18" height="21" viewBox="0 0 18 21" fill="none" xmlns="http://www.w3.org/2000/svg">
    <path fill-rule="evenodd" clip-rule="evenodd"
        d="M1.87426 14.9314L3.80708 17.0139C6.27356 19.6712 7.50675 21 8.96544 21C10.424 21 11.6573 19.6712 14.1238 17.0139L16.0566 14.9314C16.5318 14.4194 16.7695 14.1634 16.8962 13.8134C17.023 13.4634 17.023 13.0635 17.023 12.2637V8.68134C17.023 8.12465 17.023 7.6058 17.0205 7.12164C17.0048 4.04655 16.8893 2.36976 16.0397 1.27135C15.0563 -1.0349e-07 13.4737 0 10.3084 0H7.62251C4.45717 0 2.87451 -1.0349e-07 1.89118 1.27135C1.0416 2.36976 0.923555 4.04655 0.907842 7.12164C0.905358 7.6058 0.907842 8.12465 0.907842 8.68134V12.2637C0.907842 13.0635 0.907842 13.4634 1.03463 13.8134C1.16141 14.1634 1.39902 14.4194 1.87426 14.9314ZM5.27224 6.94508C5.27224 6.2259 5.72319 5.64287 6.27944 5.64287H11.6512C12.2074 5.64287 12.6584 6.2259 12.6584 6.94508C12.6584 7.66426 12.2074 8.24728 11.6512 8.24728H6.27944C5.72319 8.24728 5.27224 7.66426 5.27224 6.94508ZM6.61517 12.1539C6.61517 11.4347 7.06613 10.8517 7.62237 10.8517H10.3082C10.8645 10.8517 11.3154 11.4347 11.3154 12.1539C11.3154 12.8731 10.8645 13.4561 10.3082 13.4561H7.62237C7.06613 13.4561 6.61517 12.8731 6.61517 12.1539Z"
        fill="#00385F" />
</svg>
    